<svg width="1441" height="1024" viewBox="0 0 1441 1024" fill="none" xmlns="http://www.w3.org/2000/svg">
    <g clip-path="url(#clip0_1302_47083)">
        <path fill-rule="evenodd" clip-rule="evenodd" d="M233.408 459.402L226.273 445.945C226.232 445.867 226.207 445.783 226.198 445.695C226.19 445.608 226.199 445.52 226.224 445.437C226.276 445.268 226.392 445.126 226.548 445.043C226.704 444.96 226.886 444.942 227.055 444.994C227.138 445.02 227.216 445.061 227.283 445.117C227.35 445.173 227.406 445.241 227.447 445.319L234.583 458.776L235.595 458.236C235.903 458.071 236.241 457.97 236.589 457.936C236.936 457.903 237.287 457.938 237.621 458.04C237.955 458.143 238.266 458.31 238.535 458.533C238.805 458.756 239.028 459.03 239.192 459.339L239.622 460.152L244.19 466.855L238.38 469.951L236.368 465.963L235.182 466.565L237.206 470.578L234.716 471.905L231.727 464.36L231.297 463.548C231.133 463.239 231.032 462.9 230.998 462.551C230.965 462.203 231 461.851 231.102 461.516C231.204 461.181 231.371 460.87 231.593 460.6C231.815 460.329 232.089 460.106 232.397 459.941L233.408 459.402ZM236.218 459.414L233.021 461.119C232.866 461.201 232.73 461.313 232.619 461.448C232.508 461.583 232.424 461.739 232.373 461.906C232.322 462.073 232.304 462.249 232.321 462.424C232.338 462.598 232.389 462.767 232.471 462.922L232.901 463.734L238.448 460.777L238.017 459.965C237.935 459.811 237.823 459.674 237.688 459.562C237.554 459.451 237.398 459.367 237.231 459.316C237.064 459.265 236.889 459.247 236.715 459.264C236.541 459.281 236.373 459.332 236.218 459.414Z" fill="#D1D5DB"/>
        <path d="M230.554 465.908C230.441 465.772 230.279 465.687 230.103 465.671C229.928 465.655 229.753 465.709 229.617 465.822H229.619L229.612 465.827L229.57 465.859C229.511 465.904 229.45 465.947 229.387 465.989C229.223 466.099 228.977 466.249 228.66 466.399C227.847 466.791 226.956 466.997 226.054 467.001C225.878 467.001 225.709 467.072 225.584 467.197C225.459 467.322 225.389 467.491 225.389 467.668C225.389 467.845 225.459 468.014 225.584 468.139C225.709 468.265 225.878 468.335 226.054 468.335C227.154 468.331 228.24 468.081 229.232 467.603C229.541 467.456 229.84 467.287 230.125 467.098C230.232 467.026 230.337 466.951 230.438 466.871L230.458 466.856L230.464 466.851L230.466 466.848H230.468L230.468 466.847C230.604 466.734 230.689 466.571 230.705 466.395C230.721 466.219 230.666 466.044 230.554 465.908ZM231.926 469.298C231.974 469.371 232.008 469.453 232.025 469.539C232.042 469.624 232.042 469.713 232.025 469.799C232.008 469.885 231.974 469.966 231.925 470.039C231.877 470.112 231.814 470.174 231.742 470.223L231.74 470.224L231.738 470.225L231.731 470.229L231.71 470.243L231.635 470.291C231.237 470.536 230.823 470.754 230.397 470.944C229.611 471.294 228.515 471.668 227.384 471.668C227.207 471.668 227.038 471.598 226.914 471.473C226.789 471.348 226.719 471.178 226.719 471.001C226.719 470.825 226.789 470.655 226.914 470.53C227.038 470.405 227.207 470.335 227.384 470.335C228.247 470.335 229.145 470.042 229.856 469.725C230.227 469.56 230.586 469.371 230.932 469.159C230.958 469.143 230.977 469.131 230.989 469.123L231.002 469.115L231.004 469.113C231.076 469.065 231.158 469.031 231.243 469.014C231.329 468.997 231.417 468.997 231.503 469.014C231.589 469.031 231.67 469.065 231.743 469.114C231.815 469.163 231.877 469.225 231.926 469.298Z" fill="#D1D5DB"/>
    </g>
    <path d="M104.27 778.24C101.557 775.52 101.318 770.547 101.318 769.667H99.3232V772.333H94.0045V769.667H91.3452C91.3452 768.2 92.5419 767 94.0045 767H103.312V768.333C103.312 768.44 103.365 774.507 105.679 776.827L104.27 778.24ZM104.642 767V769.667H105.972V767H104.642ZM101.983 780.333C99.3232 777.667 99.3232 773.667 99.3232 773.667H94.0045V776.333C94.0045 777.667 94.0045 777.667 92.6749 779C91.3452 780.333 91.3452 781.667 91.3452 781.667V791C91.3452 792.467 92.5419 793.667 94.0045 793.667H99.3232C100.786 793.667 101.983 792.467 101.983 791V780.333Z" fill="#D1D5DB"/>
    <path d="M131.61 402.574C128.897 399.854 128.658 394.881 128.658 394.001H126.664V396.667H121.345V394.001H118.686C118.686 392.534 119.882 391.334 121.345 391.334H130.653V392.667C130.653 392.774 130.706 398.841 133.019 401.161L131.61 402.574ZM131.982 391.334V394.001H133.312V391.334H131.982ZM129.323 404.667C126.664 402.001 126.664 398.001 126.664 398.001H121.345V400.667C121.345 402.001 121.345 402.001 120.015 403.334C118.686 404.667 118.686 406.001 118.686 406.001V415.334C118.686 416.801 119.882 418.001 121.345 418.001H126.664C128.126 418.001 129.323 416.801 129.323 415.334V404.667Z" fill="#D1D5DB"/>
    <path d="M339.738 580.335C339.073 580.335 338.491 580.118 337.993 579.685C337.495 579.251 337.201 578.701 337.112 578.035L334.951 561.835C334.907 561.435 335.017 561.086 335.283 560.786C335.549 560.486 335.882 560.336 336.281 560.335H351.838C352.237 560.335 352.569 560.486 352.835 560.786C353.101 561.086 353.212 561.436 353.167 561.835L351.007 578.035C350.918 578.702 350.624 579.252 350.125 579.686C349.626 580.12 349.044 580.336 348.381 580.335H339.738ZM344.059 571.002C345.167 571.002 346.109 570.613 346.885 569.835C347.66 569.058 348.048 568.113 348.048 567.002V565.669C348.048 565.291 347.92 564.974 347.665 564.719C347.41 564.464 347.094 564.336 346.718 564.335C346.343 564.334 346.027 564.462 345.772 564.719C345.516 564.976 345.389 565.293 345.389 565.669V567.002C345.389 567.38 345.261 567.697 345.006 567.953C344.751 568.209 344.435 568.336 344.059 568.335C343.683 568.334 343.368 568.206 343.112 567.951C342.857 567.696 342.729 567.38 342.729 567.002V565.669C342.729 565.291 342.602 564.974 342.347 564.719C342.091 564.464 341.776 564.336 341.4 564.335C341.024 564.334 340.708 564.462 340.453 564.719C340.198 564.976 340.07 565.293 340.07 565.669V567.002C340.07 568.113 340.458 569.058 341.234 569.835C342.009 570.613 342.951 571.002 344.059 571.002ZM348.048 559.002C347.494 559.002 347.023 558.808 346.636 558.419C346.249 558.031 346.055 557.558 346.054 557.002C346.053 556.446 346.247 555.974 346.636 555.586C347.025 555.198 347.496 555.004 348.048 555.002C348.6 555 349.072 555.195 349.462 555.586C349.852 555.977 350.045 556.449 350.043 557.002C350.04 557.555 349.846 558.027 349.462 558.419C349.077 558.811 348.606 559.006 348.048 559.002ZM341.4 557.669C340.469 557.669 339.682 557.346 339.04 556.702C338.397 556.058 338.076 555.269 338.076 554.335C338.076 553.402 338.397 552.613 339.04 551.969C339.682 551.324 340.469 551.002 341.4 551.002C342.331 551.002 343.117 551.324 343.76 551.969C344.403 552.613 344.724 553.402 344.724 554.335C344.724 555.269 344.403 556.058 343.76 556.702C343.117 557.346 342.331 557.669 341.4 557.669Z" fill="#D1D5DB"/>
    <path d="M203.035 365.667C202.37 365.667 201.788 365.45 201.29 365.017C200.792 364.583 200.498 364.033 200.408 363.367L198.248 347.167C198.203 346.767 198.314 346.418 198.58 346.118C198.846 345.818 199.179 345.668 199.577 345.667H215.135C215.533 345.667 215.866 345.818 216.132 346.118C216.398 346.418 216.509 346.768 216.464 347.167L214.304 363.367C214.215 364.034 213.921 364.584 213.422 365.018C212.923 365.452 212.341 365.668 211.677 365.667H203.035ZM207.356 356.334C208.464 356.334 209.406 355.945 210.182 355.167C210.957 354.39 211.345 353.445 211.345 352.334V351.001C211.345 350.623 211.217 350.306 210.962 350.051C210.707 349.796 210.391 349.668 210.015 349.667C209.639 349.666 209.324 349.794 209.069 350.051C208.813 350.308 208.686 350.625 208.686 351.001V352.334C208.686 352.712 208.558 353.029 208.303 353.285C208.047 353.541 207.732 353.668 207.356 353.667C206.98 353.666 206.665 353.538 206.409 353.283C206.154 353.028 206.026 352.712 206.026 352.334V351.001C206.026 350.623 205.899 350.306 205.643 350.051C205.388 349.796 205.073 349.668 204.697 349.667C204.321 349.666 204.005 349.794 203.75 350.051C203.495 350.308 203.367 350.625 203.367 351.001V352.334C203.367 353.445 203.755 354.39 204.53 355.167C205.306 355.945 206.248 356.334 207.356 356.334ZM211.345 344.334C210.791 344.334 210.32 344.14 209.933 343.751C209.546 343.363 209.351 342.89 209.35 342.334C209.35 341.778 209.544 341.306 209.933 340.918C210.322 340.53 210.793 340.336 211.345 340.334C211.897 340.332 212.368 340.527 212.758 340.918C213.148 341.309 213.342 341.781 213.339 342.334C213.337 342.887 213.143 343.359 212.758 343.751C212.374 344.143 211.903 344.338 211.345 344.334ZM204.697 343.001C203.766 343.001 202.979 342.678 202.337 342.034C201.694 341.39 201.372 340.601 201.372 339.667C201.372 338.734 201.694 337.945 202.337 337.301C202.979 336.656 203.766 336.334 204.697 336.334C205.627 336.334 206.414 336.656 207.057 337.301C207.699 337.945 208.021 338.734 208.021 339.667C208.021 340.601 207.699 341.39 207.057 342.034C206.414 342.678 205.627 343.001 204.697 343.001Z" fill="#D1D5DB"/>
    <path d="M272.249 826.961H269.058V819.869C269.058 819.19 268.487 818.641 267.781 818.641C267.076 818.641 266.505 819.19 266.505 819.869V826.961H256.293V819.869C256.293 819.19 255.722 818.641 255.016 818.641C254.311 818.641 253.74 819.19 253.74 819.869V826.961H250.549C250.196 826.961 249.911 827.517 249.911 827.856V830.929C249.911 834.614 256.293 838.894 256.293 844.814V846.801H258.846V849.361H263.952V846.801H266.505V844.814C266.505 838.894 272.887 834.614 272.887 830.929V827.856C272.887 827.517 272.602 826.961 272.249 826.961ZM260.701 837.449C260.743 837.315 260.659 837.201 260.512 837.201H258.033C257.886 837.201 257.845 837.117 257.938 837.009C257.938 837.009 263.047 830.508 263.146 830.382C263.222 830.263 263.305 830.305 263.279 830.442C263.239 830.615 262.148 835.051 262.148 835.051C262.095 835.181 262.172 835.281 262.317 835.281H264.798C264.944 835.281 264.99 835.379 264.901 835.491C264.901 835.491 259.784 842.148 259.692 842.259C259.6 842.371 259.514 842.337 259.561 842.147L260.701 837.449Z" fill="#D1D5DB"/>
    <g clip-path="url(#clip1_1302_47083)">
        <path d="M29.3561 524.413C29.3561 523.137 27.0342 519.57 27.0342 519.57C27.0342 519.57 24.6772 523.137 24.6772 524.413C24.6772 525.686 25.7251 526.719 27.0169 526.719C28.3081 526.719 29.3561 525.686 29.3561 524.413ZM12.5672 504.429H7.88826V499.803H9.1641V497.279H0.653809V499.803H1.93029V506.952C1.93029 508.811 3.45441 510.317 5.33402 510.317H12.5672V511.579H15.1208V503.168H12.5672V504.429ZM30.0116 514.943V507.794C30.0116 505.936 28.4881 504.429 26.6104 504.429H19.3759V503.169H16.8223V511.58H19.3759V510.317H24.0555V514.943H22.7809V517.467H31.2893V514.943H30.0116Z" fill="#D1D5DB"/>
    </g>
    <path d="M302.762 685.413C302.762 684.137 300.44 680.57 300.44 680.57C300.44 680.57 298.083 684.137 298.083 685.413C298.083 686.686 299.131 687.719 300.423 687.719C301.714 687.719 302.762 686.686 302.762 685.413ZM285.973 665.429H281.295V660.803H282.57V658.279H274.06V660.803H275.337V667.952C275.337 669.811 276.861 671.317 278.74 671.317H285.973V672.579H288.527V664.168H285.973V665.429ZM303.418 675.943V668.794C303.418 666.936 301.894 665.429 300.017 665.429H292.782V664.169H290.229V672.58H292.782V671.317H297.462V675.943H296.187V678.467H304.696V675.943H303.418Z" fill="#D1D5DB"/>
    <path d="M84.0372 202.413C84.0372 201.137 81.7153 197.57 81.7153 197.57C81.7153 197.57 79.3583 201.137 79.3583 202.413C79.3583 203.686 80.4063 204.719 81.6981 204.719C82.9893 204.719 84.0372 203.686 84.0372 202.413ZM67.2483 182.429H62.5694V177.803H63.8453V175.279H55.335V177.803H56.6114V184.952C56.6114 186.811 58.1356 188.317 60.0152 188.317H67.2483V189.579H69.8019V181.168H67.2483V182.429ZM84.6927 192.943V185.794C84.6927 183.936 83.1692 182.429 81.2915 182.429H74.0571V181.169H71.5035V189.58H74.0571V188.317H78.7367V192.943H77.4621V195.467H85.9705V192.943H84.6927Z" fill="#D1D5DB"/>
    <g clip-path="url(#clip2_1302_47083)">
        <path fill-rule="evenodd" clip-rule="evenodd" d="M151.386 727.736L144.251 714.279C144.21 714.201 144.185 714.117 144.176 714.029C144.168 713.942 144.177 713.854 144.202 713.771C144.254 713.602 144.37 713.46 144.526 713.377C144.682 713.294 144.864 713.276 145.033 713.328C145.116 713.354 145.194 713.395 145.261 713.451C145.328 713.507 145.384 713.575 145.425 713.653L152.561 727.11L153.573 726.57C153.881 726.405 154.219 726.304 154.567 726.27C154.914 726.237 155.265 726.272 155.599 726.374C155.933 726.477 156.244 726.644 156.513 726.867C156.783 727.09 157.006 727.364 157.17 727.673L157.6 728.486L162.168 735.189L156.358 738.285L154.346 734.297L153.16 734.899L155.184 738.912L152.694 740.239L149.705 732.694L149.275 731.882C149.111 731.573 149.01 731.234 148.976 730.885C148.943 730.537 148.978 730.185 149.08 729.85C149.182 729.515 149.349 729.204 149.571 728.934C149.793 728.663 150.067 728.44 150.375 728.275L151.386 727.736ZM154.196 727.748L150.999 729.453C150.844 729.535 150.708 729.647 150.597 729.782C150.486 729.917 150.402 730.073 150.351 730.24C150.3 730.407 150.282 730.583 150.299 730.758C150.316 730.932 150.367 731.101 150.449 731.256L150.879 732.068L156.426 729.111L155.995 728.299C155.913 728.145 155.801 728.008 155.667 727.896C155.532 727.785 155.376 727.701 155.209 727.65C155.042 727.599 154.867 727.581 154.693 727.598C154.519 727.615 154.351 727.666 154.196 727.748Z" fill="#D1D5DB"/>
        <path d="M148.532 734.242C148.419 734.106 148.257 734.021 148.081 734.005C147.906 733.989 147.731 734.043 147.596 734.156H147.597L147.59 734.161L147.548 734.193C147.489 734.238 147.428 734.281 147.365 734.323C147.201 734.433 146.955 734.583 146.638 734.733C145.825 735.125 144.935 735.331 144.032 735.335C143.856 735.335 143.687 735.406 143.562 735.531C143.437 735.656 143.367 735.825 143.367 736.002C143.367 736.179 143.437 736.348 143.562 736.473C143.687 736.599 143.856 736.669 144.032 736.669C145.132 736.664 146.218 736.415 147.21 735.937C147.519 735.79 147.818 735.621 148.103 735.432C148.21 735.36 148.315 735.285 148.416 735.205L148.436 735.19L148.443 735.185L148.445 735.182H148.446L148.447 735.181C148.582 735.068 148.667 734.905 148.683 734.729C148.699 734.553 148.644 734.378 148.532 734.242ZM149.904 737.632C149.952 737.705 149.986 737.787 150.003 737.873C150.02 737.958 150.02 738.047 150.003 738.133C149.986 738.219 149.952 738.3 149.903 738.373C149.855 738.446 149.792 738.508 149.72 738.557L149.718 738.558L149.716 738.559L149.709 738.563L149.688 738.577L149.613 738.625C149.215 738.87 148.801 739.088 148.375 739.278C147.589 739.628 146.493 740.002 145.362 740.002C145.185 740.002 145.016 739.932 144.892 739.807C144.767 739.682 144.697 739.512 144.697 739.335C144.697 739.159 144.767 738.989 144.892 738.864C145.016 738.739 145.185 738.669 145.362 738.669C146.225 738.669 147.123 738.376 147.834 738.059C148.205 737.894 148.564 737.705 148.91 737.493C148.936 737.477 148.955 737.465 148.967 737.457L148.98 737.449L148.982 737.447C149.054 737.399 149.136 737.365 149.221 737.348C149.307 737.331 149.395 737.331 149.481 737.348C149.567 737.365 149.648 737.399 149.721 737.448C149.793 737.497 149.855 737.559 149.904 737.632Z" fill="#D1D5DB"/>
    </g>
    <g clip-path="url(#clip3_1302_47083)">
        <path fill-rule="evenodd" clip-rule="evenodd" d="M178.726 298.402L171.591 284.945C171.551 284.867 171.525 284.783 171.517 284.695C171.508 284.608 171.517 284.52 171.543 284.437C171.594 284.268 171.711 284.126 171.866 284.043C172.022 283.96 172.204 283.942 172.373 283.994C172.456 284.02 172.534 284.061 172.601 284.117C172.669 284.173 172.725 284.241 172.766 284.319L179.901 297.776L180.913 297.236C181.222 297.071 181.559 296.97 181.907 296.936C182.255 296.903 182.605 296.938 182.939 297.04C183.273 297.143 183.584 297.31 183.853 297.533C184.123 297.756 184.346 298.03 184.51 298.339L184.941 299.152L189.508 305.855L183.699 308.951L181.686 304.963L180.5 305.565L182.525 309.578L180.034 310.905L177.046 303.36L176.616 302.548C176.452 302.239 176.35 301.9 176.317 301.551C176.283 301.203 176.318 300.851 176.42 300.516C176.523 300.181 176.689 299.87 176.912 299.6C177.134 299.329 177.407 299.106 177.715 298.941L178.726 298.402ZM181.537 298.414L178.339 300.119C178.185 300.201 178.048 300.313 177.937 300.448C177.826 300.583 177.743 300.739 177.691 300.906C177.64 301.073 177.623 301.249 177.64 301.424C177.656 301.598 177.707 301.767 177.789 301.922L178.219 302.734L183.766 299.777L183.335 298.965C183.253 298.811 183.142 298.674 183.007 298.562C182.872 298.451 182.717 298.367 182.55 298.316C182.383 298.265 182.207 298.247 182.034 298.264C181.86 298.281 181.691 298.332 181.537 298.414Z" fill="#D1D5DB"/>
        <path d="M175.872 304.908C175.759 304.772 175.597 304.687 175.422 304.671C175.246 304.655 175.071 304.709 174.936 304.822H174.937L174.93 304.827L174.889 304.859C174.829 304.904 174.768 304.947 174.706 304.989C174.541 305.099 174.295 305.249 173.978 305.399C173.165 305.791 172.275 305.997 171.372 306.001C171.196 306.001 171.027 306.072 170.902 306.197C170.778 306.322 170.708 306.491 170.708 306.668C170.708 306.845 170.778 307.014 170.902 307.139C171.027 307.265 171.196 307.335 171.372 307.335C172.473 307.331 173.558 307.081 174.55 306.603C174.86 306.456 175.158 306.287 175.444 306.098C175.551 306.026 175.655 305.951 175.756 305.871L175.776 305.856L175.783 305.851L175.785 305.848H175.786L175.787 305.847C175.922 305.734 176.007 305.571 176.023 305.395C176.039 305.219 175.985 305.044 175.872 304.908ZM177.244 308.298C177.293 308.371 177.326 308.453 177.343 308.539C177.36 308.624 177.36 308.713 177.343 308.799C177.326 308.885 177.292 308.966 177.244 309.039C177.195 309.112 177.133 309.174 177.06 309.223L177.059 309.224L177.056 309.225L177.049 309.229L177.029 309.243L176.953 309.291C176.555 309.536 176.142 309.754 175.715 309.944C174.929 310.294 173.833 310.668 172.702 310.668C172.526 310.668 172.357 310.598 172.232 310.473C172.107 310.348 172.037 310.178 172.037 310.001C172.037 309.825 172.107 309.655 172.232 309.53C172.357 309.405 172.526 309.335 172.702 309.335C173.565 309.335 174.464 309.042 175.175 308.725C175.545 308.56 175.904 308.371 176.25 308.159C176.276 308.143 176.295 308.131 176.307 308.123L176.321 308.115L176.322 308.113C176.395 308.065 176.476 308.031 176.562 308.014C176.647 307.997 176.736 307.997 176.821 308.014C176.907 308.031 176.988 308.065 177.061 308.114C177.133 308.163 177.196 308.225 177.244 308.298Z" fill="#D1D5DB"/>
    </g>
    <g clip-path="url(#clip4_1302_47083)">
        <path d="M53.5244 612.295H50.3332V605.203C50.3332 604.524 49.762 603.975 49.0568 603.975C48.3515 603.975 47.7803 604.524 47.7803 605.203V612.295H37.5684V605.203C37.5684 604.524 36.9972 603.975 36.2913 603.975C35.5861 603.975 35.0155 604.524 35.0155 605.203V612.295H31.8243C31.4713 612.295 31.186 612.851 31.186 613.19V616.263C31.186 619.948 37.5684 624.228 37.5684 630.148V632.135H40.1214V634.695H45.2273V632.135H47.7803V630.148C47.7803 624.228 54.1627 619.948 54.1627 616.263V613.19C54.1627 612.851 53.8774 612.295 53.5244 612.295ZM41.9768 622.783C42.0182 622.649 41.934 622.535 41.7878 622.535H39.3083C39.1615 622.535 39.12 622.451 39.2132 622.343C39.2132 622.343 44.3223 615.841 44.4219 615.716C44.4972 615.597 44.5801 615.639 44.554 615.776C44.5144 615.949 43.4236 620.385 43.4236 620.385C43.3707 620.515 43.4473 620.615 43.5921 620.615H46.073C46.2191 620.615 46.2657 620.713 46.1764 620.825C46.1764 620.825 41.0596 627.482 40.9677 627.593C40.8752 627.705 40.7896 627.671 40.8362 627.481L41.9768 622.783Z" fill="#D1D5DB"/>
    </g>
    <g clip-path="url(#clip5_1302_47083)">
        <path d="M326.93 236.627H323.739V229.535C323.739 228.856 323.168 228.307 322.463 228.307C321.757 228.307 321.186 228.856 321.186 229.535V236.627H310.974V229.535C310.974 228.856 310.403 228.307 309.697 228.307C308.992 228.307 308.421 228.856 308.421 229.535V236.627H305.23C304.877 236.627 304.592 237.183 304.592 237.522V240.595C304.592 244.28 310.974 248.56 310.974 254.48V256.467H313.527V259.027H318.633V256.467H321.186V254.48C321.186 248.56 327.568 244.28 327.568 240.595V237.522C327.568 237.183 327.283 236.627 326.93 236.627ZM315.383 247.115C315.424 246.981 315.34 246.867 315.194 246.867H312.714C312.567 246.867 312.526 246.783 312.619 246.675C312.619 246.675 317.728 240.174 317.828 240.048C317.903 239.929 317.986 239.971 317.96 240.108C317.92 240.281 316.829 244.717 316.829 244.717C316.776 244.847 316.853 244.947 316.998 244.947H319.479C319.625 244.947 319.671 245.045 319.582 245.157C319.582 245.157 314.465 251.814 314.373 251.925C314.281 252.037 314.195 252.003 314.242 251.813L315.383 247.115Z" fill="#D1D5DB"/>
    </g>
    <g clip-path="url(#clip6_1302_47083)">
        <path fill-rule="evenodd" clip-rule="evenodd" d="M594.408 285.402L587.273 271.945C587.232 271.867 587.207 271.783 587.198 271.695C587.19 271.608 587.199 271.52 587.224 271.437C587.276 271.268 587.392 271.126 587.548 271.043C587.704 270.96 587.886 270.942 588.055 270.994C588.138 271.02 588.216 271.061 588.283 271.117C588.35 271.173 588.406 271.241 588.447 271.319L595.583 284.776L596.595 284.236C596.903 284.071 597.241 283.97 597.589 283.936C597.936 283.903 598.287 283.938 598.621 284.04C598.955 284.143 599.266 284.31 599.535 284.533C599.805 284.756 600.028 285.03 600.192 285.339L600.622 286.152L605.19 292.855L599.38 295.951L597.368 291.963L596.182 292.565L598.206 296.578L595.716 297.905L592.727 290.36L592.297 289.548C592.133 289.239 592.032 288.9 591.998 288.551C591.965 288.203 592 287.851 592.102 287.516C592.204 287.181 592.371 286.87 592.593 286.6C592.815 286.329 593.089 286.106 593.397 285.941L594.408 285.402ZM597.218 285.414L594.021 287.119C593.866 287.201 593.73 287.313 593.619 287.448C593.508 287.583 593.424 287.739 593.373 287.906C593.322 288.073 593.304 288.249 593.321 288.424C593.338 288.598 593.389 288.767 593.471 288.922L593.901 289.734L599.448 286.777L599.017 285.965C598.935 285.811 598.823 285.674 598.688 285.562C598.554 285.451 598.398 285.367 598.231 285.316C598.064 285.265 597.889 285.247 597.715 285.264C597.541 285.281 597.373 285.332 597.218 285.414Z" fill="#D1D5DB"/>
        <path d="M591.554 291.908C591.441 291.772 591.279 291.687 591.103 291.671C590.928 291.655 590.753 291.709 590.617 291.822H590.619L590.612 291.827L590.57 291.859C590.511 291.904 590.45 291.947 590.387 291.989C590.223 292.099 589.977 292.249 589.66 292.399C588.847 292.791 587.956 292.997 587.054 293.001C586.878 293.001 586.709 293.072 586.584 293.197C586.459 293.322 586.389 293.491 586.389 293.668C586.389 293.845 586.459 294.014 586.584 294.139C586.709 294.265 586.878 294.335 587.054 294.335C588.154 294.331 589.24 294.081 590.232 293.603C590.541 293.456 590.84 293.287 591.125 293.098C591.232 293.026 591.337 292.951 591.438 292.871L591.458 292.856L591.464 292.851L591.466 292.848H591.468L591.468 292.847C591.604 292.734 591.689 292.571 591.705 292.395C591.721 292.219 591.666 292.044 591.554 291.908ZM592.926 295.298C592.974 295.371 593.008 295.453 593.025 295.539C593.042 295.624 593.042 295.713 593.025 295.799C593.008 295.885 592.974 295.966 592.925 296.039C592.877 296.112 592.814 296.174 592.742 296.223L592.74 296.224L592.738 296.225L592.731 296.229L592.71 296.243L592.635 296.291C592.237 296.536 591.823 296.754 591.397 296.944C590.611 297.294 589.515 297.668 588.384 297.668C588.207 297.668 588.038 297.598 587.914 297.473C587.789 297.348 587.719 297.178 587.719 297.001C587.719 296.825 587.789 296.655 587.914 296.53C588.038 296.405 588.207 296.335 588.384 296.335C589.247 296.335 590.145 296.042 590.856 295.725C591.227 295.56 591.586 295.371 591.932 295.159C591.958 295.143 591.977 295.131 591.989 295.123L592.002 295.115L592.004 295.113C592.076 295.065 592.158 295.031 592.243 295.014C592.329 294.997 592.417 294.997 592.503 295.014C592.589 295.031 592.67 295.065 592.743 295.114C592.815 295.163 592.877 295.225 592.926 295.298Z" fill="#D1D5DB"/>
    </g>
    <path d="M465.27 604.24C462.557 601.52 462.318 596.547 462.318 595.667H460.323V598.333H455.005V595.667H452.345C452.345 594.2 453.542 593 455.005 593H464.312V594.333C464.312 594.44 464.365 600.507 466.679 602.827L465.27 604.24ZM465.642 593V595.667H466.972V593H465.642ZM462.983 606.333C460.323 603.667 460.323 599.667 460.323 599.667H455.005V602.333C455.005 603.667 455.005 603.667 453.675 605C452.345 606.333 452.345 607.667 452.345 607.667V617C452.345 618.467 453.542 619.667 455.005 619.667H460.323C461.786 619.667 462.983 618.467 462.983 617V606.333Z" fill="#D1D5DB"/>
    <path d="M492.61 228.574C489.897 225.854 489.658 220.881 489.658 220.001H487.664V222.667H482.345V220.001H479.686C479.686 218.534 480.882 217.334 482.345 217.334H491.653V218.667C491.653 218.774 491.706 224.841 494.019 227.161L492.61 228.574ZM492.982 217.334V220.001H494.312V217.334H492.982ZM490.323 230.667C487.664 228.001 487.664 224.001 487.664 224.001H482.345V226.667C482.345 228.001 482.345 228.001 481.015 229.334C479.686 230.667 479.686 232.001 479.686 232.001V241.334C479.686 242.801 480.882 244.001 482.345 244.001H487.664C489.126 244.001 490.323 242.801 490.323 241.334V230.667Z" fill="#D1D5DB"/>
    <path d="M564.035 191.667C563.37 191.667 562.788 191.45 562.29 191.017C561.792 190.583 561.498 190.033 561.408 189.367L559.248 173.167C559.203 172.767 559.314 172.418 559.58 172.118C559.846 171.818 560.179 171.668 560.577 171.667H576.135C576.533 171.667 576.866 171.818 577.132 172.118C577.398 172.418 577.509 172.768 577.464 173.167L575.304 189.367C575.215 190.034 574.921 190.584 574.422 191.018C573.923 191.452 573.341 191.668 572.677 191.667H564.035ZM568.356 182.334C569.464 182.334 570.406 181.945 571.182 181.167C571.957 180.39 572.345 179.445 572.345 178.334V177.001C572.345 176.623 572.217 176.306 571.962 176.051C571.707 175.796 571.391 175.668 571.015 175.667C570.639 175.666 570.324 175.794 570.069 176.051C569.813 176.308 569.686 176.625 569.686 177.001V178.334C569.686 178.712 569.558 179.029 569.303 179.285C569.047 179.541 568.732 179.668 568.356 179.667C567.98 179.666 567.665 179.538 567.409 179.283C567.154 179.028 567.026 178.712 567.026 178.334V177.001C567.026 176.623 566.899 176.306 566.643 176.051C566.388 175.796 566.073 175.668 565.697 175.667C565.321 175.666 565.005 175.794 564.75 176.051C564.495 176.308 564.367 176.625 564.367 177.001V178.334C564.367 179.445 564.755 180.39 565.53 181.167C566.306 181.945 567.248 182.334 568.356 182.334ZM572.345 170.334C571.791 170.334 571.32 170.14 570.933 169.751C570.546 169.363 570.351 168.89 570.35 168.334C570.35 167.778 570.544 167.306 570.933 166.918C571.322 166.53 571.793 166.336 572.345 166.334C572.897 166.332 573.368 166.527 573.758 166.918C574.148 167.309 574.342 167.781 574.339 168.334C574.337 168.887 574.143 169.359 573.758 169.751C573.374 170.143 572.903 170.338 572.345 170.334ZM565.697 169.001C564.766 169.001 563.979 168.678 563.337 168.034C562.694 167.39 562.372 166.601 562.372 165.667C562.372 164.734 562.694 163.945 563.337 163.301C563.979 162.656 564.766 162.334 565.697 162.334C566.627 162.334 567.414 162.656 568.057 163.301C568.699 163.945 569.021 164.734 569.021 165.667C569.021 166.601 568.699 167.39 568.057 168.034C567.414 168.678 566.627 169.001 565.697 169.001Z" fill="#D1D5DB"/>
    <g clip-path="url(#clip7_1302_47083)">
        <path d="M390.356 350.413C390.356 349.137 388.034 345.57 388.034 345.57C388.034 345.57 385.677 349.137 385.677 350.413C385.677 351.686 386.725 352.719 388.017 352.719C389.308 352.719 390.356 351.686 390.356 350.413ZM373.567 330.429H368.888V325.803H370.164V323.279H361.654V325.803H362.93V332.952C362.93 334.811 364.454 336.317 366.334 336.317H373.567V337.579H376.121V329.168H373.567V330.429ZM391.012 340.943V333.794C391.012 331.936 389.488 330.429 387.61 330.429H380.376V329.169H377.822V337.58H380.376V336.317H385.056V340.943H383.781V343.467H392.289V340.943H391.012Z" fill="#D1D5DB"/>
    </g>
    <path d="M445.037 28.4127C445.037 27.1366 442.715 23.5699 442.715 23.5699C442.715 23.5699 440.358 27.1366 440.358 28.4127C440.358 29.6863 441.406 30.7193 442.698 30.7193C443.989 30.7193 445.037 29.6863 445.037 28.4127ZM428.248 8.42874H423.569V3.80346H424.845V1.2793H416.335V3.80346H417.611V10.9523C417.611 12.8108 419.136 14.3167 421.015 14.3167H428.248V15.5788H430.802V7.16794H428.248V8.42874ZM445.693 18.9427V11.7939C445.693 9.93594 444.169 8.42938 442.292 8.42938H435.057V7.16858H432.503V15.5801H435.057V14.3174H439.737V18.9427H438.462V21.4668H446.97V18.9427H445.693Z" fill="#D1D5DB"/>
    <g clip-path="url(#clip8_1302_47083)">
        <path fill-rule="evenodd" clip-rule="evenodd" d="M512.386 553.736L505.251 540.279C505.21 540.201 505.185 540.117 505.176 540.029C505.168 539.942 505.177 539.854 505.202 539.771C505.254 539.602 505.37 539.46 505.526 539.377C505.682 539.294 505.864 539.276 506.033 539.328C506.116 539.354 506.194 539.395 506.261 539.451C506.328 539.507 506.384 539.575 506.425 539.653L513.561 553.11L514.573 552.57C514.881 552.405 515.219 552.304 515.567 552.27C515.914 552.237 516.265 552.272 516.599 552.374C516.933 552.477 517.244 552.644 517.513 552.867C517.783 553.09 518.006 553.364 518.17 553.673L518.6 554.486L523.168 561.189L517.358 564.285L515.346 560.297L514.16 560.899L516.184 564.912L513.694 566.239L510.705 558.694L510.275 557.882C510.111 557.573 510.01 557.234 509.976 556.885C509.943 556.537 509.978 556.185 510.08 555.85C510.182 555.515 510.349 555.204 510.571 554.934C510.793 554.663 511.067 554.44 511.375 554.275L512.386 553.736ZM515.196 553.748L511.999 555.453C511.844 555.535 511.708 555.647 511.597 555.782C511.486 555.917 511.402 556.073 511.351 556.24C511.3 556.407 511.282 556.583 511.299 556.758C511.316 556.932 511.367 557.101 511.449 557.256L511.879 558.068L517.426 555.111L516.995 554.299C516.913 554.145 516.801 554.008 516.667 553.896C516.532 553.785 516.376 553.701 516.209 553.65C516.042 553.599 515.867 553.581 515.693 553.598C515.519 553.615 515.351 553.666 515.196 553.748Z" fill="#D1D5DB"/>
        <path d="M509.532 560.242C509.419 560.106 509.257 560.021 509.081 560.005C508.906 559.989 508.731 560.043 508.596 560.156H508.597L508.59 560.161L508.548 560.193C508.489 560.238 508.428 560.281 508.365 560.323C508.201 560.433 507.955 560.583 507.638 560.733C506.825 561.125 505.935 561.331 505.032 561.335C504.856 561.335 504.687 561.406 504.562 561.531C504.437 561.656 504.367 561.825 504.367 562.002C504.367 562.179 504.437 562.348 504.562 562.473C504.687 562.599 504.856 562.669 505.032 562.669C506.132 562.664 507.218 562.415 508.21 561.937C508.519 561.79 508.818 561.621 509.103 561.432C509.21 561.36 509.315 561.285 509.416 561.205L509.436 561.19L509.443 561.185L509.445 561.182H509.446L509.447 561.181C509.582 561.068 509.667 560.905 509.683 560.729C509.699 560.553 509.644 560.378 509.532 560.242ZM510.904 563.632C510.952 563.705 510.986 563.787 511.003 563.873C511.02 563.958 511.02 564.047 511.003 564.133C510.986 564.219 510.952 564.3 510.903 564.373C510.855 564.446 510.792 564.508 510.72 564.557L510.718 564.558L510.716 564.559L510.709 564.563L510.688 564.577L510.613 564.625C510.215 564.87 509.801 565.088 509.375 565.278C508.589 565.628 507.493 566.002 506.362 566.002C506.185 566.002 506.016 565.932 505.892 565.807C505.767 565.682 505.697 565.512 505.697 565.335C505.697 565.159 505.767 564.989 505.892 564.864C506.016 564.739 506.185 564.669 506.362 564.669C507.225 564.669 508.123 564.376 508.834 564.059C509.205 563.894 509.564 563.705 509.91 563.493C509.936 563.477 509.955 563.465 509.967 563.457L509.98 563.449L509.982 563.447C510.054 563.399 510.136 563.365 510.221 563.348C510.307 563.331 510.395 563.331 510.481 563.348C510.567 563.365 510.648 563.399 510.721 563.448C510.793 563.497 510.855 563.559 510.904 563.632Z" fill="#D1D5DB"/>
    </g>
    <g clip-path="url(#clip9_1302_47083)">
        <path fill-rule="evenodd" clip-rule="evenodd" d="M539.726 124.402L532.591 110.945C532.551 110.867 532.525 110.783 532.517 110.695C532.508 110.608 532.517 110.52 532.543 110.437C532.594 110.268 532.711 110.126 532.866 110.043C533.022 109.96 533.204 109.942 533.373 109.994C533.456 110.02 533.534 110.061 533.601 110.117C533.669 110.173 533.725 110.241 533.766 110.319L540.901 123.776L541.913 123.236C542.222 123.071 542.559 122.97 542.907 122.936C543.255 122.903 543.605 122.938 543.939 123.04C544.273 123.143 544.584 123.31 544.853 123.533C545.123 123.756 545.346 124.03 545.51 124.339L545.941 125.152L550.508 131.855L544.699 134.951L542.686 130.963L541.5 131.565L543.525 135.578L541.034 136.905L538.046 129.36L537.616 128.548C537.452 128.239 537.35 127.9 537.317 127.551C537.283 127.203 537.318 126.851 537.42 126.516C537.523 126.181 537.689 125.87 537.912 125.6C538.134 125.329 538.407 125.106 538.715 124.941L539.726 124.402ZM542.537 124.414L539.339 126.119C539.185 126.201 539.048 126.313 538.937 126.448C538.826 126.583 538.743 126.739 538.691 126.906C538.64 127.073 538.623 127.249 538.64 127.424C538.656 127.598 538.707 127.767 538.789 127.922L539.219 128.734L544.766 125.777L544.335 124.965C544.253 124.811 544.142 124.674 544.007 124.562C543.872 124.451 543.717 124.367 543.55 124.316C543.383 124.265 543.207 124.247 543.034 124.264C542.86 124.281 542.691 124.332 542.537 124.414Z" fill="#D1D5DB"/>
        <path d="M536.872 130.908C536.759 130.772 536.597 130.687 536.422 130.671C536.246 130.655 536.071 130.709 535.936 130.822H535.937L535.93 130.827L535.889 130.859C535.829 130.904 535.768 130.947 535.706 130.989C535.541 131.099 535.295 131.249 534.978 131.399C534.165 131.791 533.275 131.997 532.372 132.001C532.196 132.001 532.027 132.072 531.902 132.197C531.778 132.322 531.708 132.491 531.708 132.668C531.708 132.845 531.778 133.014 531.902 133.139C532.027 133.265 532.196 133.335 532.372 133.335C533.473 133.331 534.558 133.081 535.55 132.603C535.86 132.456 536.158 132.287 536.444 132.098C536.551 132.026 536.655 131.951 536.756 131.871L536.776 131.856L536.783 131.851L536.785 131.848H536.786L536.787 131.847C536.922 131.734 537.007 131.571 537.023 131.395C537.039 131.219 536.985 131.044 536.872 130.908ZM538.244 134.298C538.293 134.371 538.326 134.453 538.343 134.539C538.36 134.624 538.36 134.713 538.343 134.799C538.326 134.885 538.292 134.966 538.244 135.039C538.195 135.112 538.133 135.174 538.06 135.223L538.059 135.224L538.056 135.225L538.049 135.229L538.029 135.243L537.953 135.291C537.555 135.536 537.142 135.754 536.715 135.944C535.929 136.294 534.833 136.668 533.702 136.668C533.526 136.668 533.357 136.598 533.232 136.473C533.107 136.348 533.037 136.178 533.037 136.001C533.037 135.825 533.107 135.655 533.232 135.53C533.357 135.405 533.526 135.335 533.702 135.335C534.565 135.335 535.464 135.042 536.175 134.725C536.545 134.56 536.904 134.371 537.25 134.159C537.276 134.143 537.295 134.131 537.307 134.123L537.321 134.115L537.322 134.113C537.395 134.065 537.476 134.031 537.562 134.014C537.647 133.997 537.736 133.997 537.821 134.014C537.907 134.031 537.988 134.065 538.061 134.114C538.133 134.163 538.196 134.225 538.244 134.298Z" fill="#D1D5DB"/>
    </g>
    <g clip-path="url(#clip10_1302_47083)">
        <path d="M414.524 438.295H411.333V431.203C411.333 430.524 410.762 429.975 410.057 429.975C409.351 429.975 408.78 430.524 408.78 431.203V438.295H398.568V431.203C398.568 430.524 397.997 429.975 397.291 429.975C396.586 429.975 396.015 430.524 396.015 431.203V438.295H392.824C392.471 438.295 392.186 438.851 392.186 439.19V442.263C392.186 445.948 398.568 450.228 398.568 456.148V458.135H401.121V460.695H406.227V458.135H408.78V456.148C408.78 450.228 415.163 445.948 415.163 442.263V439.19C415.163 438.851 414.877 438.295 414.524 438.295ZM402.977 448.783C403.018 448.649 402.934 448.535 402.788 448.535H400.308C400.161 448.535 400.12 448.451 400.213 448.343C400.213 448.343 405.322 441.841 405.422 441.716C405.497 441.597 405.58 441.639 405.554 441.776C405.514 441.949 404.424 446.385 404.424 446.385C404.371 446.515 404.447 446.615 404.592 446.615H407.073C407.219 446.615 407.266 446.713 407.176 446.825C407.176 446.825 402.06 453.482 401.968 453.593C401.875 453.705 401.79 453.671 401.836 453.481L402.977 448.783Z" fill="#D1D5DB"/>
    </g>
    <g clip-path="url(#clip11_1302_47083)">
        <path d="M687.93 62.6266H684.739V55.5348C684.739 54.8564 684.168 54.3066 683.463 54.3066C682.757 54.3066 682.186 54.8564 682.186 55.5348V62.6266H671.974V55.5348C671.974 54.8564 671.403 54.3066 670.697 54.3066C669.992 54.3066 669.421 54.8564 669.421 55.5348V62.6266H666.23C665.877 62.6266 665.592 63.1828 665.592 63.522V66.5946C665.592 70.2804 671.974 74.5601 671.974 80.4801V82.4666H674.527V85.0266H679.633V82.4666H682.186V80.4801C682.186 74.5601 688.568 70.2798 688.568 66.5946V63.522C688.568 63.1828 688.283 62.6266 687.93 62.6266ZM676.383 73.115C676.424 72.9806 676.34 72.8666 676.194 72.8666H673.714C673.567 72.8666 673.526 72.7834 673.619 72.6753C673.619 72.6753 678.728 66.1735 678.828 66.0481C678.903 65.929 678.986 65.9706 678.96 66.1076C678.92 66.281 677.829 70.7169 677.829 70.7169C677.776 70.8474 677.853 70.9466 677.998 70.9466H680.479C680.625 70.9466 680.671 71.0452 680.582 71.1566C680.582 71.1566 675.465 77.8138 675.373 77.9252C675.281 78.0366 675.195 78.0026 675.242 77.8132L676.383 73.115Z" fill="#D1D5DB"/>
    </g>
    <g clip-path="url(#clip12_1302_47083)">
        <path fill-rule="evenodd" clip-rule="evenodd" d="M955.406 633.4L948.271 619.943C948.23 619.865 948.205 619.781 948.196 619.693C948.188 619.606 948.197 619.518 948.222 619.435C948.274 619.266 948.39 619.124 948.546 619.041C948.702 618.958 948.884 618.94 949.053 618.992C949.136 619.018 949.214 619.059 949.281 619.115C949.349 619.171 949.404 619.239 949.445 619.317L956.581 632.774L957.593 632.234C957.901 632.07 958.239 631.968 958.587 631.934C958.934 631.901 959.285 631.936 959.619 632.039C959.953 632.141 960.264 632.308 960.533 632.531C960.803 632.754 961.026 633.028 961.19 633.337L961.62 634.15L966.188 640.853L960.378 643.949L958.366 639.961L957.18 640.563L959.204 644.576L956.714 645.903L953.725 638.358L953.295 637.546C953.131 637.237 953.03 636.898 952.996 636.55C952.963 636.201 952.998 635.849 953.1 635.514C953.202 635.179 953.369 634.868 953.591 634.598C953.814 634.327 954.087 634.104 954.395 633.939L955.406 633.4ZM958.216 633.412L955.019 635.117C954.864 635.199 954.728 635.311 954.617 635.446C954.506 635.581 954.422 635.737 954.371 635.904C954.32 636.072 954.302 636.247 954.319 636.422C954.336 636.596 954.387 636.765 954.469 636.92L954.899 637.732L960.446 634.775L960.015 633.963C959.933 633.809 959.821 633.672 959.687 633.56C959.552 633.449 959.396 633.365 959.229 633.314C959.062 633.263 958.887 633.245 958.713 633.262C958.539 633.279 958.371 633.33 958.216 633.412Z" fill="#D1D5DB"/>
        <path d="M952.552 639.906C952.439 639.77 952.277 639.685 952.101 639.669C951.926 639.653 951.751 639.707 951.616 639.82H951.617L951.61 639.825L951.568 639.857C951.509 639.902 951.448 639.945 951.386 639.987C951.221 640.097 950.975 640.247 950.658 640.397C949.845 640.79 948.955 640.995 948.052 640.999C947.876 640.999 947.707 641.07 947.582 641.195C947.457 641.32 947.387 641.489 947.387 641.666C947.387 641.843 947.457 642.013 947.582 642.138C947.707 642.263 947.876 642.333 948.052 642.333C949.152 642.329 950.238 642.079 951.23 641.601C951.539 641.454 951.838 641.285 952.123 641.096C952.23 641.024 952.335 640.949 952.436 640.869L952.456 640.854L952.463 640.849L952.465 640.846H952.466L952.467 640.845C952.602 640.732 952.687 640.569 952.703 640.393C952.719 640.217 952.664 640.042 952.552 639.906ZM953.924 643.296C953.972 643.369 954.006 643.451 954.023 643.537C954.04 643.622 954.04 643.711 954.023 643.797C954.006 643.883 953.972 643.964 953.923 644.037C953.875 644.11 953.812 644.172 953.74 644.221L953.738 644.222L953.736 644.223L953.729 644.227L953.708 644.241L953.633 644.289C953.235 644.534 952.821 644.752 952.395 644.942C951.609 645.292 950.513 645.666 949.382 645.666C949.205 645.666 949.036 645.596 948.912 645.471C948.787 645.346 948.717 645.176 948.717 644.999C948.717 644.823 948.787 644.653 948.912 644.528C949.036 644.403 949.205 644.333 949.382 644.333C950.245 644.333 951.144 644.04 951.854 643.723C952.225 643.558 952.584 643.369 952.93 643.157C952.956 643.141 952.975 643.129 952.987 643.121L953 643.113L953.002 643.111C953.074 643.063 953.156 643.029 953.241 643.012C953.327 642.995 953.415 642.995 953.501 643.012C953.587 643.029 953.668 643.063 953.741 643.112C953.813 643.161 953.875 643.223 953.924 643.296Z" fill="#D1D5DB"/>
    </g>
    <path d="M826.268 952.24C823.555 949.52 823.316 944.547 823.316 943.667H821.321V946.333H816.003V943.667H813.343C813.343 942.2 814.54 941 816.003 941H825.31V942.333C825.31 942.44 825.363 948.507 827.677 950.827L826.268 952.24ZM826.64 941V943.667H827.97V941H826.64ZM823.981 954.333C821.321 951.667 821.321 947.667 821.321 947.667H816.003V950.333C816.003 951.667 816.003 951.667 814.673 953C813.343 954.333 813.343 955.667 813.343 955.667V965C813.343 966.467 814.54 967.667 816.003 967.667H821.321C822.784 967.667 823.981 966.467 823.981 965V954.333Z" fill="#D1D5DB"/>
    <path d="M1061.74 754.333C1061.07 754.333 1060.49 754.116 1059.99 753.683C1059.49 753.249 1059.2 752.699 1059.11 752.033L1056.95 735.833C1056.9 735.433 1057.02 735.084 1057.28 734.784C1057.55 734.484 1057.88 734.334 1058.28 734.333H1073.84C1074.23 734.333 1074.57 734.484 1074.83 734.784C1075.1 735.084 1075.21 735.434 1075.17 735.833L1073 752.033C1072.92 752.7 1072.62 753.25 1072.12 753.684C1071.62 754.118 1071.04 754.334 1070.38 754.333H1061.74ZM1066.06 745C1067.17 745 1068.11 744.611 1068.88 743.833C1069.66 743.056 1070.05 742.111 1070.05 741V739.667C1070.05 739.289 1069.92 738.972 1069.66 738.717C1069.41 738.462 1069.09 738.334 1068.72 738.333C1068.34 738.332 1068.03 738.46 1067.77 738.717C1067.51 738.974 1067.39 739.291 1067.39 739.667V741C1067.39 741.378 1067.26 741.695 1067 741.951C1066.75 742.207 1066.43 742.334 1066.06 742.333C1065.68 742.332 1065.37 742.204 1065.11 741.949C1064.86 741.694 1064.73 741.378 1064.73 741V739.667C1064.73 739.289 1064.6 738.972 1064.34 738.717C1064.09 738.462 1063.77 738.334 1063.4 738.333C1063.02 738.332 1062.71 738.46 1062.45 738.717C1062.2 738.974 1062.07 739.291 1062.07 739.667V741C1062.07 742.111 1062.46 743.056 1063.23 743.833C1064.01 744.611 1064.95 745 1066.06 745ZM1070.05 733C1069.49 733 1069.02 732.806 1068.63 732.417C1068.25 732.029 1068.05 731.556 1068.05 731C1068.05 730.444 1068.24 729.972 1068.63 729.584C1069.02 729.196 1069.49 729.002 1070.05 729C1070.6 728.998 1071.07 729.193 1071.46 729.584C1071.85 729.975 1072.04 730.447 1072.04 731C1072.04 731.553 1071.84 732.025 1071.46 732.417C1071.07 732.809 1070.6 733.004 1070.05 733ZM1063.4 731.667C1062.47 731.667 1061.68 731.344 1061.04 730.7C1060.4 730.056 1060.07 729.267 1060.07 728.333C1060.07 727.4 1060.4 726.611 1061.04 725.967C1061.68 725.322 1062.47 725 1063.4 725C1064.33 725 1065.12 725.322 1065.76 725.967C1066.4 726.611 1066.72 727.4 1066.72 728.333C1066.72 729.267 1066.4 730.056 1065.76 730.7C1065.12 731.344 1064.33 731.667 1063.4 731.667Z" fill="#D1D5DB"/>
    <path d="M994.248 1000.96H991.056V993.869C991.056 993.19 990.485 992.641 989.78 992.641C989.075 992.641 988.503 993.19 988.503 993.869V1000.96H978.292V993.869C978.292 993.19 977.72 992.641 977.014 992.641C976.309 992.641 975.739 993.19 975.739 993.869V1000.96H972.547C972.194 1000.96 971.909 1001.52 971.909 1001.86V1004.93C971.909 1008.61 978.292 1012.89 978.292 1018.81V1020.8H980.845V1023.36H985.95V1020.8H988.503V1018.81C988.503 1012.89 994.886 1008.61 994.886 1004.93V1001.86C994.886 1001.52 994.601 1000.96 994.248 1000.96ZM982.7 1011.45C982.741 1011.31 982.657 1011.2 982.511 1011.2H980.031C979.885 1011.2 979.843 1011.12 979.936 1011.01C979.936 1011.01 985.045 1004.51 985.145 1004.38C985.22 1004.26 985.303 1004.3 985.277 1004.44C985.238 1004.62 984.147 1009.05 984.147 1009.05C984.094 1009.18 984.17 1009.28 984.315 1009.28H986.796C986.942 1009.28 986.989 1009.38 986.9 1009.49C986.9 1009.49 981.783 1016.15 981.691 1016.26C981.598 1016.37 981.513 1016.34 981.559 1016.15L982.7 1011.45Z" fill="#D1D5DB"/>
    <path d="M1024.76 859.413C1024.76 858.137 1022.44 854.57 1022.44 854.57C1022.44 854.57 1020.08 858.137 1020.08 859.413C1020.08 860.686 1021.13 861.719 1022.42 861.719C1023.71 861.719 1024.76 860.686 1024.76 859.413ZM1007.97 839.429H1003.29V834.803H1004.57V832.279H996.058V834.803H997.335V841.952C997.335 843.811 998.859 845.317 1000.74 845.317H1007.97V846.579H1010.53V838.168H1007.97V839.429ZM1025.42 849.943V842.794C1025.42 840.936 1023.89 839.429 1022.01 839.429H1014.78V838.169H1012.23V846.58H1014.78V845.317H1019.46V849.943H1018.19V852.467H1026.69V849.943H1025.42Z" fill="#D1D5DB"/>
    <g clip-path="url(#clip13_1302_47083)">
        <path fill-rule="evenodd" clip-rule="evenodd" d="M873.384 901.734L866.249 888.277C866.208 888.199 866.183 888.115 866.174 888.027C866.166 887.94 866.175 887.852 866.2 887.769C866.252 887.6 866.368 887.458 866.524 887.375C866.68 887.292 866.862 887.274 867.031 887.326C867.114 887.352 867.192 887.393 867.259 887.449C867.327 887.505 867.382 887.573 867.423 887.651L874.559 901.108L875.571 900.568C875.879 900.404 876.217 900.302 876.565 900.268C876.912 900.235 877.263 900.27 877.597 900.372C877.931 900.475 878.242 900.642 878.511 900.865C878.781 901.088 879.004 901.362 879.168 901.671L879.598 902.484L884.166 909.187L878.356 912.283L876.344 908.295L875.158 908.897L877.182 912.91L874.692 914.237L871.704 906.692L871.273 905.88C871.109 905.571 871.008 905.232 870.974 904.884C870.941 904.535 870.976 904.183 871.078 903.848C871.18 903.513 871.347 903.202 871.569 902.932C871.792 902.661 872.065 902.438 872.373 902.273L873.384 901.734ZM876.194 901.746L872.997 903.451C872.842 903.533 872.706 903.645 872.595 903.78C872.484 903.915 872.4 904.071 872.349 904.238C872.298 904.406 872.28 904.581 872.297 904.756C872.314 904.93 872.365 905.099 872.447 905.254L872.877 906.066L878.424 903.109L877.993 902.297C877.911 902.143 877.799 902.006 877.665 901.894C877.53 901.783 877.375 901.699 877.208 901.648C877.041 901.597 876.865 901.579 876.691 901.596C876.517 901.613 876.349 901.664 876.194 901.746Z" fill="#D1D5DB"/>
        <path d="M870.53 908.24C870.417 908.104 870.255 908.019 870.079 908.003C869.904 907.987 869.729 908.041 869.594 908.154H869.595L869.588 908.159L869.546 908.191C869.487 908.236 869.426 908.279 869.364 908.321C869.199 908.431 868.953 908.581 868.636 908.731C867.823 909.123 866.933 909.329 866.03 909.333C865.854 909.333 865.685 909.404 865.56 909.529C865.435 909.654 865.365 909.823 865.365 910C865.365 910.177 865.435 910.347 865.56 910.472C865.685 910.597 865.854 910.667 866.03 910.667C867.13 910.663 868.216 910.413 869.208 909.935C869.517 909.788 869.816 909.619 870.102 909.43C870.208 909.358 870.313 909.283 870.414 909.203L870.434 909.188L870.441 909.183L870.443 909.18H870.444L870.445 909.179C870.58 909.066 870.665 908.903 870.681 908.727C870.697 908.551 870.642 908.376 870.53 908.24ZM871.902 911.63C871.95 911.703 871.984 911.785 872.001 911.871C872.018 911.956 872.018 912.045 872.001 912.131C871.984 912.217 871.95 912.298 871.901 912.371C871.853 912.444 871.79 912.506 871.718 912.555L871.716 912.556L871.714 912.557L871.707 912.561L871.686 912.575L871.611 912.623C871.213 912.868 870.799 913.086 870.373 913.276C869.587 913.626 868.491 914 867.36 914C867.183 914 867.014 913.93 866.89 913.805C866.765 913.68 866.695 913.51 866.695 913.333C866.695 913.157 866.765 912.987 866.89 912.862C867.014 912.737 867.183 912.667 867.36 912.667C868.223 912.667 869.122 912.374 869.832 912.057C870.203 911.892 870.562 911.703 870.908 911.491C870.934 911.475 870.953 911.463 870.965 911.455L870.978 911.447L870.98 911.445C871.052 911.397 871.134 911.363 871.22 911.346C871.305 911.329 871.393 911.329 871.479 911.346C871.565 911.363 871.646 911.397 871.719 911.446C871.791 911.495 871.853 911.557 871.902 911.63Z" fill="#D1D5DB"/>
    </g>
    <g clip-path="url(#clip14_1302_47083)">
        <path d="M775.522 786.295H772.331V779.203C772.331 778.524 771.76 777.975 771.055 777.975C770.35 777.975 769.778 778.524 769.778 779.203V786.295H759.566V779.203C759.566 778.524 758.995 777.975 758.289 777.975C757.584 777.975 757.014 778.524 757.014 779.203V786.295H753.822C753.469 786.295 753.184 786.851 753.184 787.19V790.263C753.184 793.948 759.566 798.228 759.566 804.148V806.135H762.119V808.695H767.225V806.135H769.778V804.148C769.778 798.228 776.161 793.948 776.161 790.263V787.19C776.161 786.851 775.875 786.295 775.522 786.295ZM763.975 796.783C764.016 796.649 763.932 796.535 763.786 796.535H761.306C761.16 796.535 761.118 796.451 761.211 796.343C761.211 796.343 766.32 789.841 766.42 789.716C766.495 789.597 766.578 789.639 766.552 789.776C766.512 789.949 765.422 794.385 765.422 794.385C765.369 794.515 765.445 794.615 765.59 794.615H768.071C768.217 794.615 768.264 794.713 768.174 794.825C768.174 794.825 763.058 801.482 762.966 801.593C762.873 801.705 762.788 801.671 762.834 801.481L763.975 796.783Z" fill="#D1D5DB"/>
    </g>
    <g clip-path="url(#clip15_1302_47083)">
        <path d="M1048.93 410.627H1045.74V403.535C1045.74 402.856 1045.17 402.307 1044.46 402.307C1043.76 402.307 1043.18 402.856 1043.18 403.535V410.627H1032.97V403.535C1032.97 402.856 1032.4 402.307 1031.7 402.307C1030.99 402.307 1030.42 402.856 1030.42 403.535V410.627H1027.23C1026.88 410.627 1026.59 411.183 1026.59 411.522V414.595C1026.59 418.28 1032.97 422.56 1032.97 428.48V430.467H1035.53V433.027H1040.63V430.467H1043.18V428.48C1043.18 422.56 1049.57 418.28 1049.57 414.595V411.522C1049.57 411.183 1049.28 410.627 1048.93 410.627ZM1037.38 421.115C1037.42 420.981 1037.34 420.867 1037.19 420.867H1034.71C1034.57 420.867 1034.52 420.783 1034.62 420.675C1034.62 420.675 1039.73 414.174 1039.83 414.048C1039.9 413.929 1039.98 413.971 1039.96 414.108C1039.92 414.281 1038.83 418.717 1038.83 418.717C1038.77 418.847 1038.85 418.947 1039 418.947H1041.48C1041.62 418.947 1041.67 419.045 1041.58 419.157C1041.58 419.157 1036.46 425.814 1036.37 425.925C1036.28 426.037 1036.19 426.003 1036.24 425.813L1037.38 421.115Z" fill="#D1D5DB"/>
    </g>
    <g clip-path="url(#clip16_1302_47083)">
        <path fill-rule="evenodd" clip-rule="evenodd" d="M1316.41 459.402L1309.27 445.945C1309.23 445.867 1309.2 445.783 1309.2 445.695C1309.19 445.608 1309.2 445.52 1309.22 445.437C1309.27 445.268 1309.39 445.126 1309.55 445.043C1309.7 444.96 1309.88 444.942 1310.05 444.994C1310.14 445.02 1310.21 445.061 1310.28 445.117C1310.35 445.173 1310.4 445.241 1310.45 445.319L1317.58 458.776L1318.59 458.236C1318.9 458.071 1319.24 457.97 1319.59 457.936C1319.93 457.903 1320.29 457.938 1320.62 458.04C1320.95 458.143 1321.26 458.31 1321.53 458.533C1321.8 458.756 1322.03 459.03 1322.19 459.339L1322.62 460.152L1327.19 466.855L1321.38 469.951L1319.37 465.963L1318.18 466.565L1320.2 470.578L1317.71 471.905L1314.73 464.36L1314.3 463.548C1314.13 463.239 1314.03 462.9 1314 462.551C1313.96 462.203 1314 461.851 1314.1 461.516C1314.2 461.181 1314.37 460.87 1314.59 460.6C1314.81 460.329 1315.09 460.106 1315.39 459.941L1316.41 459.402ZM1319.22 459.414L1316.02 461.119C1315.86 461.201 1315.73 461.313 1315.62 461.448C1315.51 461.583 1315.42 461.739 1315.37 461.906C1315.32 462.073 1315.3 462.249 1315.32 462.424C1315.34 462.598 1315.39 462.767 1315.47 462.922L1315.9 463.734L1321.45 460.777L1321.01 459.965C1320.93 459.811 1320.82 459.674 1320.69 459.562C1320.55 459.451 1320.4 459.367 1320.23 459.316C1320.06 459.265 1319.89 459.247 1319.71 459.264C1319.54 459.281 1319.37 459.332 1319.22 459.414Z" fill="#D1D5DB"/>
        <path d="M1313.55 465.908C1313.44 465.772 1313.28 465.687 1313.1 465.671C1312.93 465.655 1312.75 465.709 1312.62 465.822H1312.62L1312.61 465.827L1312.57 465.859C1312.51 465.904 1312.45 465.947 1312.39 465.989C1312.22 466.099 1311.97 466.249 1311.66 466.399C1310.84 466.791 1309.95 466.997 1309.05 467.001C1308.88 467.001 1308.71 467.072 1308.58 467.197C1308.46 467.322 1308.39 467.491 1308.39 467.668C1308.39 467.845 1308.46 468.014 1308.58 468.139C1308.71 468.265 1308.88 468.335 1309.05 468.335C1310.15 468.331 1311.24 468.081 1312.23 467.603C1312.54 467.456 1312.84 467.287 1313.12 467.098C1313.23 467.026 1313.33 466.951 1313.44 466.871L1313.46 466.856L1313.46 466.851L1313.46 466.848H1313.47L1313.47 466.847C1313.6 466.734 1313.69 466.571 1313.7 466.395C1313.72 466.219 1313.66 466.044 1313.55 465.908ZM1314.92 469.298C1314.97 469.371 1315.01 469.453 1315.02 469.539C1315.04 469.624 1315.04 469.713 1315.02 469.799C1315.01 469.885 1314.97 469.966 1314.92 470.039C1314.87 470.112 1314.81 470.174 1314.74 470.223L1314.74 470.224L1314.74 470.225L1314.73 470.229L1314.71 470.243L1314.63 470.291C1314.23 470.536 1313.82 470.754 1313.39 470.944C1312.61 471.294 1311.51 471.668 1310.38 471.668C1310.21 471.668 1310.04 471.598 1309.91 471.473C1309.79 471.348 1309.72 471.178 1309.72 471.001C1309.72 470.825 1309.79 470.655 1309.91 470.53C1310.04 470.405 1310.21 470.335 1310.38 470.335C1311.24 470.335 1312.14 470.042 1312.85 469.725C1313.22 469.56 1313.58 469.371 1313.93 469.159C1313.96 469.143 1313.98 469.131 1313.99 469.123L1314 469.115L1314 469.113C1314.07 469.065 1314.16 469.031 1314.24 469.014C1314.33 468.997 1314.42 468.997 1314.5 469.014C1314.59 469.031 1314.67 469.065 1314.74 469.114C1314.81 469.163 1314.88 469.225 1314.92 469.298Z" fill="#D1D5DB"/>
    </g>
    <path d="M1187.27 778.24C1184.56 775.52 1184.32 770.547 1184.32 769.667H1182.32V772.333H1177V769.667H1174.34C1174.34 768.2 1175.54 767 1177 767H1186.31V768.333C1186.31 768.44 1186.36 774.507 1188.68 776.827L1187.27 778.24ZM1187.64 767V769.667H1188.97V767H1187.64ZM1184.98 780.333C1182.32 777.667 1182.32 773.667 1182.32 773.667H1177V776.333C1177 777.667 1177 777.667 1175.67 779C1174.34 780.333 1174.34 781.667 1174.34 781.667V791C1174.34 792.467 1175.54 793.667 1177 793.667H1182.32C1183.78 793.667 1184.98 792.467 1184.98 791V780.333Z" fill="#D1D5DB"/>
    <path d="M1214.61 402.574C1211.9 399.854 1211.66 394.881 1211.66 394.001H1209.66V396.667H1204.34V394.001H1201.68C1201.68 392.534 1202.88 391.334 1204.34 391.334H1213.65V392.667C1213.65 392.774 1213.7 398.841 1216.02 401.161L1214.61 402.574ZM1214.98 391.334V394.001H1216.31V391.334H1214.98ZM1212.32 404.667C1209.66 402.001 1209.66 398.001 1209.66 398.001H1204.34V400.667C1204.34 402.001 1204.34 402.001 1203.01 403.334C1201.68 404.667 1201.68 406.001 1201.68 406.001V415.334C1201.68 416.801 1202.88 418.001 1204.34 418.001H1209.66C1211.12 418.001 1212.32 416.801 1212.32 415.334V404.667Z" fill="#D1D5DB"/>
    <path d="M1422.74 580.335C1422.07 580.335 1421.49 580.118 1420.99 579.685C1420.49 579.251 1420.2 578.701 1420.11 578.035L1417.95 561.835C1417.9 561.435 1418.02 561.086 1418.28 560.786C1418.55 560.486 1418.88 560.336 1419.28 560.335H1434.84C1435.23 560.335 1435.57 560.486 1435.83 560.786C1436.1 561.086 1436.21 561.436 1436.17 561.835L1434 578.035C1433.92 578.702 1433.62 579.252 1433.12 579.686C1432.62 580.12 1432.04 580.336 1431.38 580.335H1422.74ZM1427.06 571.002C1428.17 571.002 1429.11 570.613 1429.88 569.835C1430.66 569.058 1431.05 568.113 1431.05 567.002V565.669C1431.05 565.291 1430.92 564.974 1430.66 564.719C1430.41 564.464 1430.09 564.336 1429.72 564.335C1429.34 564.334 1429.03 564.462 1428.77 564.719C1428.51 564.976 1428.39 565.293 1428.39 565.669V567.002C1428.39 567.38 1428.26 567.697 1428 567.953C1427.75 568.209 1427.43 568.336 1427.06 568.335C1426.68 568.334 1426.37 568.206 1426.11 567.951C1425.86 567.696 1425.73 567.38 1425.73 567.002V565.669C1425.73 565.291 1425.6 564.974 1425.34 564.719C1425.09 564.464 1424.77 564.336 1424.4 564.335C1424.02 564.334 1423.71 564.462 1423.45 564.719C1423.2 564.976 1423.07 565.293 1423.07 565.669V567.002C1423.07 568.113 1423.46 569.058 1424.23 569.835C1425.01 570.613 1425.95 571.002 1427.06 571.002ZM1431.05 559.002C1430.49 559.002 1430.02 558.808 1429.63 558.419C1429.25 558.031 1429.05 557.558 1429.05 557.002C1429.05 556.446 1429.24 555.974 1429.63 555.586C1430.02 555.198 1430.49 555.004 1431.05 555.002C1431.6 555 1432.07 555.195 1432.46 555.586C1432.85 555.977 1433.04 556.449 1433.04 557.002C1433.04 557.555 1432.84 558.027 1432.46 558.419C1432.07 558.811 1431.6 559.006 1431.05 559.002ZM1424.4 557.669C1423.47 557.669 1422.68 557.346 1422.04 556.702C1421.4 556.058 1421.07 555.269 1421.07 554.335C1421.07 553.402 1421.4 552.613 1422.04 551.969C1422.68 551.324 1423.47 551.002 1424.4 551.002C1425.33 551.002 1426.12 551.324 1426.76 551.969C1427.4 552.613 1427.72 553.402 1427.72 554.335C1427.72 555.269 1427.4 556.058 1426.76 556.702C1426.12 557.346 1425.33 557.669 1424.4 557.669Z" fill="#D1D5DB"/>
    <path d="M1286.03 365.667C1285.37 365.667 1284.79 365.45 1284.29 365.017C1283.79 364.583 1283.5 364.033 1283.41 363.367L1281.25 347.167C1281.2 346.767 1281.31 346.418 1281.58 346.118C1281.84 345.818 1282.18 345.668 1282.58 345.667H1298.13C1298.53 345.667 1298.86 345.818 1299.13 346.118C1299.4 346.418 1299.51 346.768 1299.46 347.167L1297.3 363.367C1297.21 364.034 1296.92 364.584 1296.42 365.018C1295.92 365.452 1295.34 365.668 1294.68 365.667H1286.03ZM1290.35 356.334C1291.46 356.334 1292.4 355.945 1293.18 355.167C1293.96 354.39 1294.34 353.445 1294.34 352.334V351.001C1294.34 350.623 1294.22 350.306 1293.96 350.051C1293.7 349.796 1293.39 349.668 1293.01 349.667C1292.64 349.666 1292.32 349.794 1292.07 350.051C1291.81 350.308 1291.68 350.625 1291.68 351.001V352.334C1291.68 352.712 1291.56 353.029 1291.3 353.285C1291.05 353.541 1290.73 353.668 1290.35 353.667C1289.98 353.666 1289.66 353.538 1289.41 353.283C1289.15 353.028 1289.02 352.712 1289.02 352.334V351.001C1289.02 350.623 1288.9 350.306 1288.64 350.051C1288.39 349.796 1288.07 349.668 1287.69 349.667C1287.32 349.666 1287 349.794 1286.75 350.051C1286.49 350.308 1286.37 350.625 1286.37 351.001V352.334C1286.37 353.445 1286.75 354.39 1287.53 355.167C1288.3 355.945 1289.25 356.334 1290.35 356.334ZM1294.34 344.334C1293.79 344.334 1293.32 344.14 1292.93 343.751C1292.54 343.363 1292.35 342.89 1292.35 342.334C1292.35 341.778 1292.54 341.306 1292.93 340.918C1293.32 340.53 1293.79 340.336 1294.34 340.334C1294.9 340.332 1295.37 340.527 1295.76 340.918C1296.15 341.309 1296.34 341.781 1296.34 342.334C1296.33 342.887 1296.14 343.359 1295.76 343.751C1295.37 344.143 1294.9 344.338 1294.34 344.334ZM1287.69 343.001C1286.76 343.001 1285.98 342.678 1285.33 342.034C1284.69 341.39 1284.37 340.601 1284.37 339.667C1284.37 338.734 1284.69 337.945 1285.33 337.301C1285.98 336.656 1286.76 336.334 1287.69 336.334C1288.63 336.334 1289.41 336.656 1290.05 337.301C1290.7 337.945 1291.02 338.734 1291.02 339.667C1291.02 340.601 1290.7 341.39 1290.05 342.034C1289.41 342.678 1288.63 343.001 1287.69 343.001Z" fill="#D1D5DB"/>
    <path d="M1355.25 826.961H1352.06V819.869C1352.06 819.19 1351.48 818.641 1350.78 818.641C1350.07 818.641 1349.5 819.19 1349.5 819.869V826.961H1339.29V819.869C1339.29 819.19 1338.72 818.641 1338.01 818.641C1337.31 818.641 1336.74 819.19 1336.74 819.869V826.961H1333.55C1333.19 826.961 1332.91 827.517 1332.91 827.856V830.929C1332.91 834.614 1339.29 838.894 1339.29 844.814V846.801H1341.84V849.361H1346.95V846.801H1349.5V844.814C1349.5 838.894 1355.89 834.614 1355.89 830.929V827.856C1355.89 827.517 1355.6 826.961 1355.25 826.961ZM1343.7 837.449C1343.74 837.315 1343.66 837.201 1343.51 837.201H1341.03C1340.88 837.201 1340.84 837.117 1340.94 837.009C1340.94 837.009 1346.04 830.508 1346.14 830.382C1346.22 830.263 1346.3 830.305 1346.28 830.442C1346.24 830.615 1345.15 835.051 1345.15 835.051C1345.09 835.181 1345.17 835.281 1345.31 835.281H1347.8C1347.94 835.281 1347.99 835.379 1347.9 835.491C1347.9 835.491 1342.78 842.148 1342.69 842.259C1342.6 842.371 1342.51 842.337 1342.56 842.147L1343.7 837.449Z" fill="#D1D5DB"/>
    <g clip-path="url(#clip17_1302_47083)">
        <path d="M1112.35 524.413C1112.35 523.137 1110.03 519.57 1110.03 519.57C1110.03 519.57 1107.68 523.137 1107.68 524.413C1107.68 525.686 1108.72 526.719 1110.01 526.719C1111.31 526.719 1112.35 525.686 1112.35 524.413ZM1095.57 504.429H1090.89V499.803H1092.16V497.279H1083.65V499.803H1084.93V506.952C1084.93 508.811 1086.45 510.317 1088.33 510.317H1095.57V511.579H1098.12V503.168H1095.57V504.429ZM1113.01 514.943V507.794C1113.01 505.936 1111.49 504.429 1109.61 504.429H1102.37V503.169H1099.82V511.58H1102.37V510.317H1107.05V514.943H1105.78V517.467H1114.29V514.943H1113.01Z" fill="#D1D5DB"/>
    </g>
    <path d="M1385.76 685.413C1385.76 684.137 1383.44 680.57 1383.44 680.57C1383.44 680.57 1381.08 684.137 1381.08 685.413C1381.08 686.686 1382.13 687.719 1383.42 687.719C1384.71 687.719 1385.76 686.686 1385.76 685.413ZM1368.97 665.429H1364.29V660.803H1365.57V658.279H1357.06V660.803H1358.33V667.952C1358.33 669.811 1359.86 671.317 1361.74 671.317H1368.97V672.579H1371.53V664.168H1368.97V665.429ZM1386.42 675.943V668.794C1386.42 666.936 1384.89 665.429 1383.01 665.429H1375.78V664.169H1373.23V672.58H1375.78V671.317H1380.46V675.943H1379.19V678.467H1387.69V675.943H1386.42Z" fill="#D1D5DB"/>
    <path d="M1167.04 202.413C1167.04 201.137 1164.71 197.57 1164.71 197.57C1164.71 197.57 1162.36 201.137 1162.36 202.413C1162.36 203.686 1163.4 204.719 1164.7 204.719C1165.99 204.719 1167.04 203.686 1167.04 202.413ZM1150.25 182.429H1145.57V177.803H1146.84V175.279H1138.33V177.803H1139.61V184.952C1139.61 186.811 1141.13 188.317 1143.01 188.317H1150.25V189.579H1152.8V181.168H1150.25V182.429ZM1167.69 192.943V185.794C1167.69 183.936 1166.17 182.429 1164.29 182.429H1157.06V181.169H1154.5V189.58H1157.06V188.317H1161.73V192.943H1160.46V195.467H1168.97V192.943H1167.69Z" fill="#D1D5DB"/>
    <g clip-path="url(#clip18_1302_47083)">
        <path fill-rule="evenodd" clip-rule="evenodd" d="M1234.38 727.736L1227.25 714.279C1227.21 714.201 1227.18 714.117 1227.17 714.029C1227.17 713.942 1227.17 713.854 1227.2 713.771C1227.25 713.602 1227.37 713.46 1227.52 713.377C1227.68 713.294 1227.86 713.276 1228.03 713.328C1228.11 713.354 1228.19 713.395 1228.26 713.451C1228.33 713.507 1228.38 713.575 1228.42 713.653L1235.56 727.11L1236.57 726.57C1236.88 726.405 1237.22 726.304 1237.56 726.27C1237.91 726.237 1238.26 726.272 1238.6 726.374C1238.93 726.477 1239.24 726.644 1239.51 726.867C1239.78 727.09 1240 727.364 1240.17 727.673L1240.6 728.486L1245.17 735.189L1239.36 738.285L1237.34 734.297L1236.16 734.899L1238.18 738.912L1235.69 740.239L1232.7 732.694L1232.27 731.882C1232.11 731.573 1232.01 731.234 1231.97 730.885C1231.94 730.537 1231.98 730.185 1232.08 729.85C1232.18 729.515 1232.35 729.204 1232.57 728.934C1232.79 728.663 1233.06 728.44 1233.37 728.275L1234.38 727.736ZM1237.19 727.748L1234 729.453C1233.84 729.535 1233.71 729.647 1233.59 729.782C1233.48 729.917 1233.4 730.073 1233.35 730.24C1233.3 730.407 1233.28 730.583 1233.3 730.758C1233.31 730.932 1233.36 731.101 1233.45 731.256L1233.88 732.068L1239.42 729.111L1238.99 728.299C1238.91 728.145 1238.8 728.008 1238.66 727.896C1238.53 727.785 1238.37 727.701 1238.21 727.65C1238.04 727.599 1237.87 727.581 1237.69 727.598C1237.52 727.615 1237.35 727.666 1237.19 727.748Z" fill="#D1D5DB"/>
        <path d="M1231.53 734.242C1231.42 734.106 1231.25 734.021 1231.08 734.005C1230.9 733.989 1230.73 734.043 1230.59 734.156H1230.59L1230.59 734.161L1230.55 734.193C1230.49 734.238 1230.43 734.281 1230.36 734.323C1230.2 734.433 1229.95 734.583 1229.64 734.733C1228.82 735.125 1227.93 735.331 1227.03 735.335C1226.85 735.335 1226.68 735.406 1226.56 735.531C1226.44 735.656 1226.37 735.825 1226.37 736.002C1226.37 736.179 1226.44 736.348 1226.56 736.473C1226.68 736.599 1226.85 736.669 1227.03 736.669C1228.13 736.664 1229.22 736.415 1230.21 735.937C1230.52 735.79 1230.82 735.621 1231.1 735.432C1231.21 735.36 1231.31 735.285 1231.41 735.205L1231.43 735.19L1231.44 735.185L1231.44 735.182H1231.44L1231.44 735.181C1231.58 735.068 1231.66 734.905 1231.68 734.729C1231.7 734.553 1231.64 734.378 1231.53 734.242ZM1232.9 737.632C1232.95 737.705 1232.98 737.787 1233 737.873C1233.02 737.958 1233.02 738.047 1233 738.133C1232.98 738.219 1232.95 738.3 1232.9 738.373C1232.85 738.446 1232.79 738.508 1232.72 738.557L1232.72 738.558L1232.71 738.559L1232.71 738.563L1232.69 738.577L1232.61 738.625C1232.21 738.87 1231.8 739.088 1231.37 739.278C1230.59 739.628 1229.49 740.002 1228.36 740.002C1228.18 740.002 1228.01 739.932 1227.89 739.807C1227.76 739.682 1227.69 739.512 1227.69 739.335C1227.69 739.159 1227.76 738.989 1227.89 738.864C1228.01 738.739 1228.18 738.669 1228.36 738.669C1229.22 738.669 1230.12 738.376 1230.83 738.059C1231.2 737.894 1231.56 737.705 1231.91 737.493C1231.93 737.477 1231.95 737.465 1231.97 737.457L1231.98 737.449L1231.98 737.447C1232.05 737.399 1232.13 737.365 1232.22 737.348C1232.31 737.331 1232.39 737.331 1232.48 737.348C1232.56 737.365 1232.65 737.399 1232.72 737.448C1232.79 737.497 1232.85 737.559 1232.9 737.632Z" fill="#D1D5DB"/>
    </g>
    <g clip-path="url(#clip19_1302_47083)">
        <path fill-rule="evenodd" clip-rule="evenodd" d="M1261.72 298.402L1254.59 284.945C1254.55 284.867 1254.52 284.783 1254.51 284.695C1254.51 284.608 1254.52 284.52 1254.54 284.437C1254.59 284.268 1254.71 284.126 1254.86 284.043C1255.02 283.96 1255.2 283.942 1255.37 283.994C1255.45 284.02 1255.53 284.061 1255.6 284.117C1255.67 284.173 1255.72 284.241 1255.76 284.319L1262.9 297.776L1263.91 297.236C1264.22 297.071 1264.56 296.97 1264.9 296.936C1265.25 296.903 1265.6 296.938 1265.94 297.04C1266.27 297.143 1266.58 297.31 1266.85 297.533C1267.12 297.756 1267.34 298.03 1267.51 298.339L1267.94 299.152L1272.51 305.855L1266.7 308.951L1264.68 304.963L1263.5 305.565L1265.52 309.578L1263.03 310.905L1260.04 303.36L1259.61 302.548C1259.45 302.239 1259.35 301.9 1259.31 301.551C1259.28 301.203 1259.32 300.851 1259.42 300.516C1259.52 300.181 1259.69 299.87 1259.91 299.6C1260.13 299.329 1260.4 299.106 1260.71 298.941L1261.72 298.402ZM1264.53 298.414L1261.34 300.119C1261.18 300.201 1261.05 300.313 1260.94 300.448C1260.82 300.583 1260.74 300.739 1260.69 300.906C1260.64 301.073 1260.62 301.249 1260.64 301.424C1260.65 301.598 1260.71 301.767 1260.79 301.922L1261.22 302.734L1266.76 299.777L1266.33 298.965C1266.25 298.811 1266.14 298.674 1266 298.562C1265.87 298.451 1265.71 298.367 1265.55 298.316C1265.38 298.265 1265.21 298.247 1265.03 298.264C1264.86 298.281 1264.69 298.332 1264.53 298.414Z" fill="#D1D5DB"/>
        <path d="M1258.87 304.908C1258.76 304.772 1258.6 304.687 1258.42 304.671C1258.24 304.655 1258.07 304.709 1257.93 304.822H1257.94L1257.93 304.827L1257.89 304.859C1257.83 304.904 1257.77 304.947 1257.7 304.989C1257.54 305.099 1257.29 305.249 1256.98 305.399C1256.16 305.791 1255.27 305.997 1254.37 306.001C1254.19 306.001 1254.02 306.072 1253.9 306.197C1253.78 306.322 1253.71 306.491 1253.71 306.668C1253.71 306.845 1253.78 307.014 1253.9 307.139C1254.02 307.265 1254.19 307.335 1254.37 307.335C1255.47 307.331 1256.56 307.081 1257.55 306.603C1257.86 306.456 1258.16 306.287 1258.44 306.098C1258.55 306.026 1258.65 305.951 1258.75 305.871L1258.77 305.856L1258.78 305.851L1258.78 305.848H1258.78L1258.78 305.847C1258.92 305.734 1259.01 305.571 1259.02 305.395C1259.04 305.219 1258.98 305.044 1258.87 304.908ZM1260.24 308.298C1260.29 308.371 1260.32 308.453 1260.34 308.539C1260.36 308.624 1260.36 308.713 1260.34 308.799C1260.32 308.885 1260.29 308.966 1260.24 309.039C1260.19 309.112 1260.13 309.174 1260.06 309.223L1260.06 309.224L1260.05 309.225L1260.05 309.229L1260.03 309.243L1259.95 309.291C1259.55 309.536 1259.14 309.754 1258.71 309.944C1257.93 310.294 1256.83 310.668 1255.7 310.668C1255.52 310.668 1255.35 310.598 1255.23 310.473C1255.11 310.348 1255.04 310.178 1255.04 310.001C1255.04 309.825 1255.11 309.655 1255.23 309.53C1255.35 309.405 1255.52 309.335 1255.7 309.335C1256.56 309.335 1257.46 309.042 1258.17 308.725C1258.54 308.56 1258.9 308.371 1259.25 308.159C1259.27 308.143 1259.29 308.131 1259.31 308.123L1259.32 308.115L1259.32 308.113C1259.39 308.065 1259.47 308.031 1259.56 308.014C1259.65 307.997 1259.73 307.997 1259.82 308.014C1259.9 308.031 1259.99 308.065 1260.06 308.114C1260.13 308.163 1260.19 308.225 1260.24 308.298Z" fill="#D1D5DB"/>
    </g>
    <g clip-path="url(#clip20_1302_47083)">
        <path d="M1136.52 612.295H1133.33V605.203C1133.33 604.524 1132.76 603.975 1132.05 603.975C1131.35 603.975 1130.78 604.524 1130.78 605.203V612.295H1120.57V605.203C1120.57 604.524 1120 603.975 1119.29 603.975C1118.58 603.975 1118.01 604.524 1118.01 605.203V612.295H1114.82C1114.47 612.295 1114.18 612.851 1114.18 613.19V616.263C1114.18 619.948 1120.57 624.228 1120.57 630.148V632.135H1123.12V634.695H1128.23V632.135H1130.78V630.148C1130.78 624.228 1137.16 619.948 1137.16 616.263V613.19C1137.16 612.851 1136.88 612.295 1136.52 612.295ZM1124.97 622.783C1125.02 622.649 1124.93 622.535 1124.79 622.535H1122.31C1122.16 622.535 1122.12 622.451 1122.21 622.343C1122.21 622.343 1127.32 615.841 1127.42 615.716C1127.5 615.597 1127.58 615.639 1127.55 615.776C1127.51 615.949 1126.42 620.385 1126.42 620.385C1126.37 620.515 1126.45 620.615 1126.59 620.615H1129.07C1129.22 620.615 1129.26 620.713 1129.17 620.825C1129.17 620.825 1124.06 627.482 1123.97 627.593C1123.87 627.705 1123.79 627.671 1123.83 627.481L1124.97 622.783Z" fill="#D1D5DB"/>
    </g>
    <g clip-path="url(#clip21_1302_47083)">
        <path d="M1409.93 236.627H1406.74V229.535C1406.74 228.856 1406.17 228.307 1405.46 228.307C1404.76 228.307 1404.18 228.856 1404.18 229.535V236.627H1393.97V229.535C1393.97 228.856 1393.4 228.307 1392.7 228.307C1391.99 228.307 1391.42 228.856 1391.42 229.535V236.627H1388.23C1387.88 236.627 1387.59 237.183 1387.59 237.522V240.595C1387.59 244.28 1393.97 248.56 1393.97 254.48V256.467H1396.53V259.027H1401.63V256.467H1404.18V254.48C1404.18 248.56 1410.57 244.28 1410.57 240.595V237.522C1410.57 237.183 1410.28 236.627 1409.93 236.627ZM1398.38 247.115C1398.42 246.981 1398.34 246.867 1398.19 246.867H1395.71C1395.57 246.867 1395.52 246.783 1395.62 246.675C1395.62 246.675 1400.73 240.174 1400.83 240.048C1400.9 239.929 1400.98 239.971 1400.96 240.108C1400.92 240.281 1399.83 244.717 1399.83 244.717C1399.77 244.847 1399.85 244.947 1400 244.947H1402.48C1402.62 244.947 1402.67 245.045 1402.58 245.157C1402.58 245.157 1397.46 251.814 1397.37 251.925C1397.28 252.037 1397.19 252.003 1397.24 251.813L1398.38 247.115Z" fill="#D1D5DB"/>
    </g>
    <defs>
        <clipPath id="clip0_1302_47083">
            <rect width="31.912" height="32" fill="white" transform="translate(218.741 442.334)"/>
        </clipPath>
        <clipPath id="clip1_1302_47083">
            <rect width="31.912" height="32" fill="white" transform="translate(0.015625 496)"/>
        </clipPath>
        <clipPath id="clip2_1302_47083">
            <rect width="31.912" height="32" fill="white" transform="translate(136.719 710.668)"/>
        </clipPath>
        <clipPath id="clip3_1302_47083">
            <rect width="31.912" height="32" fill="white" transform="translate(164.059 281.334)"/>
        </clipPath>
        <clipPath id="clip4_1302_47083">
            <rect width="31.912" height="32" fill="white" transform="translate(27.3564 603.334)"/>
        </clipPath>
        <clipPath id="clip5_1302_47083">
            <rect width="31.912" height="32" fill="white" transform="translate(300.762 227.666)"/>
        </clipPath>
        <clipPath id="clip6_1302_47083">
            <rect width="31.912" height="32" fill="white" transform="translate(579.741 268.334)"/>
        </clipPath>
        <clipPath id="clip7_1302_47083">
            <rect width="31.912" height="32" fill="white" transform="translate(361.016 322)"/>
        </clipPath>
        <clipPath id="clip8_1302_47083">
            <rect width="31.912" height="32" fill="white" transform="translate(497.719 536.668)"/>
        </clipPath>
        <clipPath id="clip9_1302_47083">
            <rect width="31.912" height="32" fill="white" transform="translate(525.059 107.334)"/>
        </clipPath>
        <clipPath id="clip10_1302_47083">
            <rect width="31.912" height="32" fill="white" transform="translate(388.356 429.334)"/>
        </clipPath>
        <clipPath id="clip11_1302_47083">
            <rect width="31.912" height="32" fill="white" transform="translate(661.762 53.666)"/>
        </clipPath>
        <clipPath id="clip12_1302_47083">
            <rect width="31.912" height="32" fill="white" transform="translate(940.739 616.332)"/>
        </clipPath>
        <clipPath id="clip13_1302_47083">
            <rect width="31.912" height="32" fill="white" transform="translate(858.717 884.666)"/>
        </clipPath>
        <clipPath id="clip14_1302_47083">
            <rect width="31.912" height="32" fill="white" transform="translate(749.354 777.334)"/>
        </clipPath>
        <clipPath id="clip15_1302_47083">
            <rect width="31.912" height="32" fill="white" transform="translate(1022.76 401.666)"/>
        </clipPath>
        <clipPath id="clip16_1302_47083">
            <rect width="31.912" height="32" fill="white" transform="translate(1301.74 442.334)"/>
        </clipPath>
        <clipPath id="clip17_1302_47083">
            <rect width="31.912" height="32" fill="white" transform="translate(1083.01 496)"/>
        </clipPath>
        <clipPath id="clip18_1302_47083">
            <rect width="31.912" height="32" fill="white" transform="translate(1219.72 710.668)"/>
        </clipPath>
        <clipPath id="clip19_1302_47083">
            <rect width="31.912" height="32" fill="white" transform="translate(1247.06 281.334)"/>
        </clipPath>
        <clipPath id="clip20_1302_47083">
            <rect width="31.912" height="32" fill="white" transform="translate(1110.35 603.334)"/>
        </clipPath>
        <clipPath id="clip21_1302_47083">
            <rect width="31.912" height="32" fill="white" transform="translate(1383.76 227.666)"/>
        </clipPath>
    </defs>
</svg>
