<svg width="235" height="225" viewBox="0 0 235 225" fill="none" xmlns="http://www.w3.org/2000/svg">
<g filter="url(#filter0_d_1302_51424)">
<circle cx="105.016" cy="117" r="90" fill="#F6F8FB"/>
</g>
<mask id="mask0_1302_51424" style="mask-type:alpha" maskUnits="userSpaceOnUse" x="15" y="27" width="181" height="180">
<circle cx="105.016" cy="117" r="90" fill="#F6F8FB"/>
</mask>
<g mask="url(#mask0_1302_51424)">
<mask id="mask1_1302_51424" style="mask-type:alpha" maskUnits="userSpaceOnUse" x="15" y="27" width="181" height="180">
<circle cx="105.016" cy="117" r="90" fill="#F6F8FB"/>
</mask>
<g mask="url(#mask1_1302_51424)">
<g filter="url(#filter1_d_1302_51424)">
<rect x="41.2656" y="60.75" width="127.5" height="146.25" rx="15" fill="white"/>
</g>
<rect x="50.2656" y="75.75" width="109.5" height="26.25" rx="6" fill="#F4F6FA"/>
<circle cx="146.266" cy="89.25" r="4.5" fill="#DFE2E8"/>
<circle cx="63.3906" cy="88.875" r="8.625" fill="#FE725F"/>
<rect x="76.5156" y="83.25" width="21" height="3.75" rx="1.875" fill="#E0E2E8"/>
<rect x="76.5156" y="90" width="45" height="4.5" rx="2.25" fill="#E0E2E8"/>
<rect x="50.2656" y="157.5" width="109.5" height="26.25" rx="6" fill="#F4F6FA"/>
<circle cx="146.266" cy="171" r="4.5" fill="#DFE2E8"/>
<circle cx="63.3906" cy="170.625" r="8.625" fill="#FE725F"/>
<rect x="76.5156" y="165" width="21" height="3.75" rx="1.875" fill="#E0E2E8"/>
<rect x="76.5156" y="171.75" width="45" height="4.5" rx="2.25" fill="#E0E2E8"/>
<rect x="50.2656" y="192.75" width="109.5" height="26.25" rx="6" fill="#F4F6FA"/>
<circle cx="146.266" cy="206.25" r="4.5" fill="#DFE2E8"/>
<circle cx="63.3906" cy="205.875" r="8.625" fill="#FE725F"/>
<rect x="76.5156" y="200.25" width="21" height="3.75" rx="1.875" fill="#E0E2E8"/>
<g filter="url(#filter2_d_1302_51424)">
<rect x="30.0156" y="111" width="150" height="37.5" rx="9" fill="#636B81"/>
</g>
<rect x="157.516" y="122.25" width="15" height="15" rx="6" fill="#FE725F"/>
<rect x="69.7656" y="132" width="15" height="9" rx="4.5" fill="#E0E2E8"/>
<rect x="86.2656" y="132" width="15" height="9" rx="4.5" fill="#E0E2E8"/>
<rect x="102.766" y="132" width="15" height="9" rx="4.5" fill="#E0E2E8"/>
<rect x="119.266" y="132" width="15" height="9" rx="4.5" fill="#E0E2E8"/>
<rect x="37.5156" y="132" width="27.75" height="9" rx="4.5" fill="#E0E2E8"/>
<rect x="37.5156" y="118.5" width="43.5" height="9" rx="4.5" fill="#E0E2E8"/>
</g>
</g>
<g filter="url(#filter3_d_1302_51424)">
<mask id="path-27-outside-1_1302_51424" maskUnits="userSpaceOnUse" x="133.266" y="143.75" width="11" height="13" fill="black">
<rect fill="white" x="133.266" y="143.75" width="11" height="13"/>
<path fill-rule="evenodd" clip-rule="evenodd" d="M136.635 150.926L136.087 150.09C135.713 149.518 134.917 149.31 134.307 149.623L134.449 149.55C134.298 149.628 134.226 149.822 134.288 149.983L135.046 151.944C135.166 152.255 135.473 152.695 135.727 152.915C135.727 152.915 137.252 154.178 137.252 154.651V155.25H139.723L140.341 154.015L140.958 155.25H141.576V154.651C141.576 154.178 142.508 152.687 142.508 152.687C142.679 152.397 142.822 151.887 142.822 151.548V149.056C142.811 148.504 142.342 148.057 141.763 148.057C141.474 148.057 141.239 148.281 141.239 148.557V148.756C141.239 148.205 140.77 147.758 140.192 147.758C139.902 147.758 139.668 147.981 139.668 148.257V148.457C139.668 147.905 139.199 147.458 138.62 147.458C138.33 147.458 138.096 147.681 138.096 147.957V148.157C138.096 148.068 138.086 147.998 138.068 147.942L137.908 145.368C137.887 145.02 137.593 144.75 137.252 144.75C136.909 144.75 136.635 145.026 136.635 145.368V147.838V150.926ZM140.97 150.309H141.587V152.779H140.97V150.309ZM139.734 150.309H140.352V152.779H139.734V150.309ZM138.499 150.309H139.117V152.779H138.499V150.309Z"/>
</mask>
<path fill-rule="evenodd" clip-rule="evenodd" d="M136.635 150.926L136.087 150.09C135.713 149.518 134.917 149.31 134.307 149.623L134.449 149.55C134.298 149.628 134.226 149.822 134.288 149.983L135.046 151.944C135.166 152.255 135.473 152.695 135.727 152.915C135.727 152.915 137.252 154.178 137.252 154.651V155.25H139.723L140.341 154.015L140.958 155.25H141.576V154.651C141.576 154.178 142.508 152.687 142.508 152.687C142.679 152.397 142.822 151.887 142.822 151.548V149.056C142.811 148.504 142.342 148.057 141.763 148.057C141.474 148.057 141.239 148.281 141.239 148.557V148.756C141.239 148.205 140.77 147.758 140.192 147.758C139.902 147.758 139.668 147.981 139.668 148.257V148.457C139.668 147.905 139.199 147.458 138.62 147.458C138.33 147.458 138.096 147.681 138.096 147.957V148.157C138.096 148.068 138.086 147.998 138.068 147.942L137.908 145.368C137.887 145.02 137.593 144.75 137.252 144.75C136.909 144.75 136.635 145.026 136.635 145.368V147.838V150.926ZM140.97 150.309H141.587V152.779H140.97V150.309ZM139.734 150.309H140.352V152.779H139.734V150.309ZM138.499 150.309H139.117V152.779H138.499V150.309Z" fill="white"/>
<path d="M136.635 150.926L136.007 151.337L137.385 153.442V150.926H136.635ZM136.087 150.09L136.715 149.679L136.087 150.09ZM134.288 149.983L133.588 150.253L134.288 149.983ZM135.046 151.944L135.746 151.674L135.046 151.944ZM135.727 152.915L135.236 153.482L135.242 153.488L135.249 153.493L135.727 152.915ZM137.252 155.25H136.502V156H137.252V155.25ZM139.723 155.25V156H140.186L140.394 155.585L139.723 155.25ZM140.341 154.015L141.011 153.679L140.341 152.338L139.67 153.679L140.341 154.015ZM140.958 155.25L140.287 155.585L140.495 156H140.958V155.25ZM141.576 155.25V156H142.326V155.25H141.576ZM142.508 152.687L143.144 153.085L143.148 153.077L143.153 153.069L142.508 152.687ZM142.822 149.056H143.572V149.049L143.572 149.041L142.822 149.056ZM138.068 147.942L137.32 147.988L137.326 148.084L137.355 148.176L138.068 147.942ZM137.908 145.368L137.16 145.415L137.908 145.368ZM136.635 145.368H135.885H136.635ZM141.587 150.309H142.337V149.559H141.587V150.309ZM141.587 152.779V153.529H142.337V152.779H141.587ZM140.97 152.779H140.22V153.529H140.97V152.779ZM140.352 150.309H141.102V149.559H140.352V150.309ZM140.352 152.779V153.529H141.102V152.779H140.352ZM139.734 152.779H138.984V153.529H139.734V152.779ZM139.117 150.309H139.867V149.559H139.117V150.309ZM139.117 152.779V153.529H139.867V152.779H139.117ZM138.499 152.779H137.749V153.529H138.499V152.779ZM137.262 150.516L136.715 149.679L135.459 150.5L136.007 151.337L137.262 150.516ZM136.715 149.679C136.129 148.784 134.913 148.469 133.965 148.956L134.65 150.29C134.92 150.151 135.297 150.253 135.459 150.5L136.715 149.679ZM134.65 150.29L134.792 150.217L134.106 148.883L133.965 148.956L134.65 150.29ZM134.106 148.883C133.607 149.14 133.391 149.742 133.588 150.253L134.988 149.712C135.028 149.818 135.02 149.92 134.991 149.998C134.962 150.076 134.9 150.162 134.792 150.217L134.106 148.883ZM133.588 150.253L134.346 152.214L135.746 151.674L134.988 149.712L133.588 150.253ZM134.346 152.214C134.51 152.638 134.888 153.18 135.236 153.482L136.219 152.349C136.058 152.209 135.822 151.872 135.746 151.674L134.346 152.214ZM135.727 152.915C135.249 153.493 135.249 153.493 135.249 153.493C135.249 153.493 135.249 153.493 135.249 153.493C135.249 153.493 135.249 153.493 135.249 153.493C135.249 153.493 135.249 153.493 135.249 153.493C135.25 153.494 135.251 153.495 135.252 153.495C135.254 153.497 135.258 153.5 135.263 153.505C135.273 153.513 135.288 153.526 135.307 153.542C135.346 153.575 135.402 153.624 135.47 153.683C135.607 153.803 135.787 153.966 135.964 154.141C136.145 154.318 136.308 154.493 136.421 154.639C136.477 154.712 136.508 154.762 136.522 154.788C136.544 154.829 136.502 154.772 136.502 154.651H138.002C138.002 154.412 137.913 154.212 137.851 154.093C137.782 153.96 137.694 153.833 137.607 153.721C137.434 153.497 137.216 153.268 137.016 153.071C136.812 152.871 136.61 152.688 136.461 152.557C136.386 152.491 136.323 152.437 136.279 152.399C136.256 152.38 136.239 152.365 136.226 152.355C136.22 152.35 136.215 152.346 136.212 152.343C136.21 152.341 136.209 152.34 136.208 152.339C136.207 152.339 136.207 152.339 136.206 152.338C136.206 152.338 136.206 152.338 136.206 152.338C136.206 152.338 136.206 152.338 136.206 152.338C136.206 152.338 136.206 152.338 135.727 152.915ZM136.502 154.651V155.25H138.002V154.651H136.502ZM137.252 156H139.723V154.5H137.252V156ZM140.394 155.585L141.011 154.35L139.67 153.679L139.052 154.915L140.394 155.585ZM139.67 154.35L140.287 155.585L141.629 154.915L141.011 153.679L139.67 154.35ZM140.958 156H141.576V154.5H140.958V156ZM142.326 155.25V154.651H140.826V155.25H142.326ZM142.326 154.651C142.326 154.703 142.322 154.651 142.412 154.437C142.486 154.262 142.59 154.054 142.702 153.848C142.812 153.644 142.923 153.452 143.007 153.31C143.049 153.24 143.084 153.183 143.108 153.143C143.12 153.124 143.129 153.109 143.135 153.099C143.138 153.094 143.14 153.09 143.142 153.088C143.143 153.086 143.143 153.086 143.143 153.085C143.144 153.085 143.144 153.085 143.144 153.085C143.144 153.085 143.144 153.085 143.144 153.085C143.144 153.085 143.144 153.085 143.144 153.085C143.144 153.085 143.144 153.085 142.508 152.687C141.872 152.29 141.872 152.29 141.872 152.29C141.872 152.29 141.872 152.29 141.872 152.29C141.872 152.29 141.872 152.29 141.871 152.29C141.871 152.29 141.871 152.291 141.871 152.291C141.87 152.292 141.869 152.294 141.868 152.295C141.866 152.299 141.863 152.303 141.859 152.309C141.852 152.322 141.841 152.339 141.828 152.361C141.801 152.405 141.763 152.468 141.717 152.545C141.627 152.697 141.505 152.908 141.382 153.135C141.26 153.361 141.131 153.615 141.031 153.852C140.947 154.051 140.826 154.362 140.826 154.651H142.326ZM143.153 153.069C143.283 152.85 143.384 152.583 143.452 152.337C143.52 152.091 143.572 151.808 143.572 151.548H142.072C142.072 151.628 142.053 151.769 142.007 151.936C141.961 152.102 141.904 152.235 141.862 152.305L143.153 153.069ZM143.572 151.548V149.056H142.072V151.548H143.572ZM143.572 149.041C143.552 148.057 142.726 147.307 141.763 147.307V148.807C141.958 148.807 142.07 148.952 142.072 149.071L143.572 149.041ZM141.763 147.307C141.094 147.307 140.489 147.833 140.489 148.557H141.989C141.989 148.728 141.854 148.807 141.763 148.807V147.307ZM140.489 148.557V148.756H141.989V148.557H140.489ZM141.989 148.756C141.989 147.757 141.15 147.008 140.192 147.008V148.508C140.39 148.508 140.489 148.652 140.489 148.756H141.989ZM140.192 147.008C139.522 147.008 138.918 147.534 138.918 148.257H140.418C140.418 148.429 140.282 148.508 140.192 148.508V147.008ZM138.918 148.257V148.457H140.418V148.257H138.918ZM140.418 148.457C140.418 147.457 139.579 146.708 138.62 146.708V148.208C138.819 148.208 138.918 148.352 138.918 148.457H140.418ZM138.62 146.708C137.95 146.708 137.346 147.234 137.346 147.957H138.846C138.846 148.129 138.711 148.208 138.62 148.208V146.708ZM137.346 147.957V148.157H138.846V147.957H137.346ZM138.846 148.157C138.846 148.021 138.832 147.865 138.781 147.708L137.355 148.176C137.348 148.152 137.346 148.137 137.345 148.134C137.345 148.132 137.346 148.139 137.346 148.157H138.846ZM138.817 147.896L138.657 145.322L137.16 145.415L137.32 147.988L138.817 147.896ZM138.657 145.322C138.611 144.576 137.987 144 137.252 144V145.5C137.222 145.5 137.2 145.488 137.188 145.476C137.174 145.464 137.161 145.442 137.16 145.415L138.657 145.322ZM137.252 144C136.493 144 135.885 144.614 135.885 145.368H137.385C137.385 145.439 137.325 145.5 137.252 145.5V144ZM135.885 145.368V147.838H137.385V145.368H135.885ZM135.885 147.838V150.926H137.385V147.838H135.885ZM140.97 151.059H141.587L141.587 149.559H140.97V151.059ZM140.837 150.309V152.779H142.337V150.309H140.837ZM141.587 152.029H140.97V153.529H141.587V152.029ZM141.72 152.779V150.309H140.22V152.779H141.72ZM139.734 151.059H140.352V149.559H139.734V151.059ZM139.602 150.309V152.779H141.102V150.309H139.602ZM140.352 152.029H139.734V153.529H140.352V152.029ZM140.484 152.779V150.309H138.984V152.779H140.484ZM138.499 151.059H139.117L139.117 149.559H138.499V151.059ZM138.367 150.309V152.779H139.867V150.309H138.367ZM139.117 152.029H138.499V153.529H139.117V152.029ZM139.249 152.779V150.309H137.749V152.779H139.249Z" fill="black" fill-opacity="0.8" mask="url(#path-27-outside-1_1302_51424)"/>
</g>
<g filter="url(#filter4_d_1302_51424)">
<circle cx="176.266" cy="55.5" r="12.75" fill="white"/>
</g>
<path d="M177.329 58.484C177.246 58.484 177.163 58.4534 177.097 58.3877C176.97 58.2609 176.97 58.0509 177.097 57.924L179.521 55.5002L177.097 53.0765C176.97 52.9496 176.97 52.7396 177.097 52.6127C177.224 52.4859 177.434 52.4859 177.561 52.6127L180.216 55.2684C180.343 55.3952 180.343 55.6052 180.216 55.7321L177.561 58.3877C177.495 58.4534 177.412 58.484 177.329 58.484Z" fill="#636B81"/>
<path d="M179.91 55.8281H172.547C172.368 55.8281 172.219 55.6794 172.219 55.5C172.219 55.3206 172.368 55.1719 172.547 55.1719H179.91C180.089 55.1719 180.238 55.3206 180.238 55.5C180.238 55.6794 180.089 55.8281 179.91 55.8281Z" fill="#636B81"/>
<circle cx="19.1336" cy="197.62" r="1.86837" transform="rotate(180 19.1336 197.62)" fill="#F1F3F7"/>
<path d="M26.4659 187.26L25.0815 188.644L24.0805 187.643L25.465 186.259L23.9003 184.694L24.9549 183.64L26.5196 185.204L27.9078 183.816L28.9087 184.817L27.5205 186.205L29.02 187.705L27.9653 188.759L26.4659 187.26Z" fill="#FE725F"/>
<circle cx="1.86837" cy="1.86837" r="1.86837" transform="matrix(1 0 0 -1 48.4219 33.7383)" fill="#C1CBD4"/>
<circle cx="1.86837" cy="1.86837" r="1.86837" transform="matrix(1 0 0 -1 28.1719 37.4883)" fill="#F1F3F7"/>
<path d="M26.4579 57.5098L27.8424 58.8942L28.8433 57.8933L27.4589 56.5089L29.0235 54.9442L27.9689 53.8896L26.4043 55.4543L25.016 54.066L24.0151 55.0669L25.4033 56.4552L23.9039 57.9547L24.9585 59.0093L26.4579 57.5098Z" fill="#FE725F"/>
<circle cx="193.147" cy="205.132" r="1.86837" transform="rotate(180 193.147 205.132)" fill="#C1CBD4"/>
<circle cx="164.634" cy="201.37" r="1.86837" transform="rotate(180 164.634 201.37)" fill="#F1F3F7"/>
<defs>
<filter id="filter0_d_1302_51424" x="0.015625" y="15" width="210" height="210" filterUnits="userSpaceOnUse" color-interpolation-filters="sRGB">
<feFlood flood-opacity="0" result="BackgroundImageFix"/>
<feColorMatrix in="SourceAlpha" type="matrix" values="0 0 0 0 0 0 0 0 0 0 0 0 0 0 0 0 0 0 127 0" result="hardAlpha"/>
<feOffset dy="3"/>
<feGaussianBlur stdDeviation="7.5"/>
<feComposite in2="hardAlpha" operator="out"/>
<feColorMatrix type="matrix" values="0 0 0 0 0.905882 0 0 0 0 0.933333 0 0 0 0 0.984314 0 0 0 0.15 0"/>
<feBlend mode="normal" in2="BackgroundImageFix" result="effect1_dropShadow_1302_51424"/>
<feBlend mode="normal" in="SourceGraphic" in2="effect1_dropShadow_1302_51424" result="shape"/>
</filter>
<filter id="filter1_d_1302_51424" x="-33.7344" y="-11.25" width="277.5" height="296.25" filterUnits="userSpaceOnUse" color-interpolation-filters="sRGB">
<feFlood flood-opacity="0" result="BackgroundImageFix"/>
<feColorMatrix in="SourceAlpha" type="matrix" values="0 0 0 0 0 0 0 0 0 0 0 0 0 0 0 0 0 0 127 0" result="hardAlpha"/>
<feOffset dy="3"/>
<feGaussianBlur stdDeviation="37.5"/>
<feComposite in2="hardAlpha" operator="out"/>
<feColorMatrix type="matrix" values="0 0 0 0 0.388235 0 0 0 0 0.419608 0 0 0 0 0.505882 0 0 0 0.15 0"/>
<feBlend mode="normal" in2="BackgroundImageFix" result="effect1_dropShadow_1302_51424"/>
<feBlend mode="normal" in="SourceGraphic" in2="effect1_dropShadow_1302_51424" result="shape"/>
</filter>
<filter id="filter2_d_1302_51424" x="-44.9844" y="39" width="300" height="187.5" filterUnits="userSpaceOnUse" color-interpolation-filters="sRGB">
<feFlood flood-opacity="0" result="BackgroundImageFix"/>
<feColorMatrix in="SourceAlpha" type="matrix" values="0 0 0 0 0 0 0 0 0 0 0 0 0 0 0 0 0 0 127 0" result="hardAlpha"/>
<feOffset dy="3"/>
<feGaussianBlur stdDeviation="37.5"/>
<feComposite in2="hardAlpha" operator="out"/>
<feColorMatrix type="matrix" values="0 0 0 0 0.388235 0 0 0 0 0.419608 0 0 0 0 0.505882 0 0 0 0.15 0"/>
<feBlend mode="normal" in2="BackgroundImageFix" result="effect1_dropShadow_1302_51424"/>
<feBlend mode="normal" in="SourceGraphic" in2="effect1_dropShadow_1302_51424" result="shape"/>
</filter>
<filter id="filter3_d_1302_51424" x="131.266" y="142.5" width="14.5566" height="16.5" filterUnits="userSpaceOnUse" color-interpolation-filters="sRGB">
<feFlood flood-opacity="0" result="BackgroundImageFix"/>
<feColorMatrix in="SourceAlpha" type="matrix" values="0 0 0 0 0 0 0 0 0 0 0 0 0 0 0 0 0 0 127 0" result="hardAlpha"/>
<feOffset dy="0.75"/>
<feGaussianBlur stdDeviation="1.125"/>
<feColorMatrix type="matrix" values="0 0 0 0 0 0 0 0 0 0 0 0 0 0 0 0 0 0 0.2 0"/>
<feBlend mode="normal" in2="BackgroundImageFix" result="effect1_dropShadow_1302_51424"/>
<feBlend mode="normal" in="SourceGraphic" in2="effect1_dropShadow_1302_51424" result="shape"/>
</filter>
<filter id="filter4_d_1302_51424" x="118.516" y="0.75" width="115.5" height="115.5" filterUnits="userSpaceOnUse" color-interpolation-filters="sRGB">
<feFlood flood-opacity="0" result="BackgroundImageFix"/>
<feColorMatrix in="SourceAlpha" type="matrix" values="0 0 0 0 0 0 0 0 0 0 0 0 0 0 0 0 0 0 127 0" result="hardAlpha"/>
<feOffset dy="3"/>
<feGaussianBlur stdDeviation="22.5"/>
<feComposite in2="hardAlpha" operator="out"/>
<feColorMatrix type="matrix" values="0 0 0 0 0.388235 0 0 0 0 0.419608 0 0 0 0 0.505882 0 0 0 0.25 0"/>
<feBlend mode="normal" in2="BackgroundImageFix" result="effect1_dropShadow_1302_51424"/>
<feBlend mode="normal" in="SourceGraphic" in2="effect1_dropShadow_1302_51424" result="shape"/>
</filter>
</defs>
</svg>
