<svg width="41" height="40" viewBox="0 0 41 40" fill="none" xmlns="http://www.w3.org/2000/svg">
<path d="M5.6582 12.394L20.3748 20.9107L34.9915 12.444" stroke="#6A318A" stroke-width="2.5" stroke-linecap="round" stroke-linejoin="round"/>
<path d="M20.375 36.0107V20.894" stroke="#6A318A" stroke-width="2.5" stroke-linecap="round" stroke-linejoin="round"/>
<path d="M16.925 4.12764L8.02503 9.07769C6.00837 10.1944 4.3584 12.9943 4.3584 15.2943V24.711C4.3584 27.011 6.00837 29.811 8.02503 30.9277L16.925 35.8777C18.825 36.9277 21.9417 36.9277 23.8417 35.8777L32.7417 30.9277C34.7584 29.811 36.4084 27.011 36.4084 24.711V15.2943C36.4084 12.9943 34.7584 10.1944 32.7417 9.07769L23.8417 4.12764C21.925 3.06097 18.825 3.06097 16.925 4.12764Z" stroke="#6A318A" stroke-width="2.5" stroke-linecap="round" stroke-linejoin="round"/>
<path d="M28.7078 22.061V15.961L12.8911 6.82764" stroke="#6A318A" stroke-width="2.5" stroke-linecap="round" stroke-linejoin="round"/>
</svg>
