<svg width="51" height="51" viewBox="0 0 51 51" fill="none" xmlns="http://www.w3.org/2000/svg">
<g clip-path="url(#clip0_1302_62266)">
<path d="M25.2891 50.6934C39.0962 50.6934 50.2891 39.5005 50.2891 25.6934C50.2891 11.8862 39.0962 0.693359 25.2891 0.693359C11.4819 0.693359 0.289062 11.8862 0.289062 25.6934C0.289062 39.5005 11.4819 50.6934 25.2891 50.6934Z" fill="#E6F3FF"/>
<path d="M34.7446 48.8411C43.8635 45.1124 50.2891 36.1539 50.2891 25.6932C50.2891 25.6855 50.2888 25.678 50.2888 25.6704L47.6211 23.0027L46.0513 25.7713L31.0581 10.7783L18.665 18.5404L15.5671 20.2639L21.7021 26.3989L21.4452 26.7031L18.1641 23.422L15.5669 24.6484L19.6952 28.7768L19.354 29.181L22.811 32.638L21.6415 35.7378L34.7446 48.8411Z" fill="#CFDBE6"/>
<path d="M27.739 31.8986V29.1816H22.839V31.8986C22.839 32.1154 22.6632 32.2912 22.4464 32.2912H19.0698V41.6673H31.5084V32.2912H28.1318C27.9146 32.2912 27.739 32.1154 27.739 31.8986Z" fill="#FED8B2"/>
<path d="M31.5086 32.2912H28.132C27.9152 32.2912 27.7395 32.1154 27.7395 31.8986V29.1816H25.2334V41.6673H31.5088V32.2912H31.5086Z" fill="#EABE96"/>
<path d="M17.1442 25.4467C18.2257 25.4467 19.1024 24.57 19.1024 23.4885C19.1024 22.407 18.2257 21.5303 17.1442 21.5303C16.0628 21.5303 15.186 22.407 15.186 23.4885C15.186 24.57 16.0628 25.4467 17.1442 25.4467Z" fill="#FED8B2"/>
<path d="M33.0163 25.4467C34.0978 25.4467 34.9745 24.57 34.9745 23.4885C34.9745 22.407 34.0978 21.5303 33.0163 21.5303C31.9348 21.5303 31.0581 22.407 31.0581 23.4885C31.0581 24.57 31.9348 25.4467 33.0163 25.4467Z" fill="#EABE96"/>
<path d="M25.3009 31.6428H24.8597C20.778 31.6428 17.4692 28.334 17.4692 24.2523V17.5047C17.4692 13.423 20.778 10.1143 24.8597 10.1143H25.3009C29.3825 10.1143 32.6913 13.423 32.6913 17.5047V24.2523C32.6913 28.3341 29.3825 31.6428 25.3009 31.6428Z" fill="#F4E3C3"/>
<path d="M25.3009 10.1143H25.2329V31.6427H25.3009C29.3825 31.6427 32.6913 28.3339 32.6913 24.2522V17.5046C32.6913 13.423 29.3825 10.1143 25.3009 10.1143Z" fill="#FED8B2"/>
<path d="M31.8898 12.6126C30.4383 10.5451 28.0378 9.19238 25.3198 9.19238H25.2329V18.7585C26.2432 18.4306 27.2241 18.0395 28.1644 17.5694C29.2729 18.8427 30.5532 19.9794 31.9665 20.9016V23.4886H33.3437V19.2632V17.216C33.3437 15.5028 32.805 13.9161 31.8898 12.6126Z" fill="#57442F"/>
<path d="M24.8406 9.19238C20.4092 9.19238 16.8169 12.7848 16.8169 17.2163V17.8368V23.4889H17.9948V20.1742C17.9946 20.1742 17.9943 20.1742 17.9941 20.1742C20.4779 19.9219 22.9325 19.5056 25.233 18.7587V9.19238H24.8406Z" fill="#9A4F03"/>
<path d="M21.4926 23.3807C21.9129 23.3807 22.2537 23.0399 22.2537 22.6195C22.2537 22.1992 21.9129 21.8584 21.4926 21.8584C21.0722 21.8584 20.7314 22.1992 20.7314 22.6195C20.7314 23.0399 21.0722 23.3807 21.4926 23.3807Z" fill="#59595B"/>
<path d="M28.6679 23.3807C29.0882 23.3807 29.429 23.0399 29.429 22.6195C29.429 22.1992 29.0882 21.8584 28.6679 21.8584C28.2475 21.8584 27.9067 22.1992 27.9067 22.6195C27.9067 23.0399 28.2475 23.3807 28.6679 23.3807Z" fill="#272525"/>
<path d="M25.08 28.8559C23.7086 28.8559 22.5933 27.7403 22.5933 26.3691C22.5933 26.1366 22.7816 25.9482 23.0142 25.9482C23.2467 25.9482 23.4351 26.1366 23.4351 26.3691C23.4351 27.2762 24.1731 28.0141 25.08 28.0141C25.9869 28.0141 26.7249 27.276 26.7249 26.3691C26.7249 26.1366 26.9133 25.9482 27.1458 25.9482C27.3783 25.9482 27.5667 26.1366 27.5667 26.3691C27.5669 27.7404 26.4514 28.8559 25.08 28.8559Z" fill="#FD8469"/>
<path d="M25.08 28.0141C24.1729 28.0141 23.4351 27.276 23.4351 26.3691C23.4351 26.1366 23.2467 25.9482 23.0142 25.9482C22.7816 25.9482 22.5933 26.1366 22.5933 26.3691C22.5933 27.7405 23.7088 28.8559 25.08 28.8559C25.1315 28.8559 25.182 28.8512 25.2327 28.8481V28.0063C25.1823 28.011 25.1315 28.0141 25.08 28.0141Z" fill="#FD8469"/>
<path d="M27.567 26.3701C27.567 26.1376 27.3786 25.9492 27.1461 25.9492C26.9136 25.9492 26.7252 26.1376 26.7252 26.3701C26.7252 27.2257 26.0685 27.9301 25.2329 28.0075V28.8493C26.533 28.7695 27.567 27.6897 27.567 26.3701Z" fill="#FC6F58"/>
<path d="M16.5352 17.3604V20.1381H25.2333V8.60742C20.4243 8.63789 16.5352 12.5443 16.5352 17.3604Z" fill="#F4A200"/>
<path d="M34.0437 17.3597C34.0437 12.5248 30.1243 8.60547 25.2895 8.60547C25.2706 8.60547 25.2522 8.60684 25.2334 8.60684V20.1375H34.0437V17.3597Z" fill="#DD8D00"/>
<path d="M25.2895 8.60547C24.3181 8.60547 23.3848 8.76611 22.5117 9.0582V20.1375H28.0673V9.0581C27.1939 8.76602 26.2606 8.60547 25.2895 8.60547Z" fill="#CC8006"/>
<path d="M28.0672 9.0582C27.1941 8.76611 26.2608 8.60547 25.2895 8.60547C25.2706 8.60547 25.2521 8.60645 25.2334 8.60664V20.1374H28.0672V9.0582Z" fill="#AA6707"/>
<path d="M35.0113 17.2334H15.5669V20.2637H35.0113V17.2334Z" fill="#DD8D00"/>
<path d="M35.0111 17.2334H25.2334V20.2637H35.0111V17.2334Z" fill="#C67A00"/>
<path d="M31.8333 32.291H29.2262C29.2262 34.581 27.3697 36.4371 25.0801 36.4371C22.7904 36.4371 20.934 34.5807 20.934 32.291H18.327C15.187 32.291 12.6416 34.8364 12.6416 37.9764V47.261C16.3518 49.4417 20.6737 50.6936 25.2887 50.6936C29.7316 50.6936 33.903 49.5331 37.5187 47.501V37.9764C37.5187 34.8365 34.9731 32.291 31.8333 32.291Z" fill="#31BAFD"/>
<path d="M31.8335 32.291H29.2264C29.2264 34.5297 27.4518 36.3528 25.2329 36.4333V50.6926C25.2516 50.6926 25.2701 50.6936 25.289 50.6936C29.7319 50.6936 33.9031 49.5331 37.5189 47.501V37.9764C37.5188 34.8365 34.9733 32.291 31.8335 32.291Z" fill="#2B9ED8"/>
<path d="M19.7338 32.2911H18.3272C17.8544 32.2911 17.3952 32.3499 16.9561 32.4586V49.2682C19.5626 50.1902 22.3668 50.6937 25.2894 50.6937C28.2121 50.6937 31.0159 50.1886 33.6227 49.2664V32.5799C33.0601 32.3936 32.459 32.291 31.834 32.291H30.8449V42.3603H19.7338V32.2911Z" fill="#324A5E"/>
<path d="M31.8336 32.291H30.8445V42.3603H25.2329V50.6929C25.2516 50.6929 25.2701 50.6936 25.289 50.6936C28.2117 50.6936 31.0155 50.1885 33.6223 49.2663V32.5798C33.0597 32.3934 32.4588 32.291 31.8336 32.291Z" fill="#2B3B4E"/>
<path d="M41.9561 44.3252C42.9582 43.4282 43.8872 42.4515 44.7338 41.4052V27.5449H41.9561V44.3252Z" fill="#B97850"/>
<path d="M44.7336 27.5449H43.3589V42.9658C43.8378 42.4648 44.2973 41.9446 44.7336 41.4051V27.5449Z" fill="#935635"/>
<path d="M46.9085 28.6115H39.7813C39.0996 28.6115 38.5469 28.0588 38.5469 27.3771V24.0098C38.5469 23.3281 39.0996 22.7754 39.7813 22.7754H46.9085C47.5901 22.7754 48.1429 23.3281 48.1429 24.0098V27.3771C48.143 28.0591 47.5902 28.6115 46.9085 28.6115Z" fill="#804000"/>
<path d="M46.9084 22.7754H43.3589V28.6116H46.9084C47.59 28.6116 48.1428 28.0589 48.1428 27.3772V24.0099C48.1429 23.3278 47.5901 22.7754 46.9084 22.7754Z" fill="#6D3501"/>
</g>
<defs>
<clipPath id="clip0_1302_62266">
<rect width="50" height="50" fill="white" transform="translate(0.289062 0.693359)"/>
</clipPath>
</defs>
</svg>
