<svg width="51" height="51" viewBox="0 0 51 51" fill="none" xmlns="http://www.w3.org/2000/svg">
<g clip-path="url(#clip0_1302_62478)">
<path d="M25.2891 50.6934C39.0962 50.6934 50.2891 39.5005 50.2891 25.6934C50.2891 11.8862 39.0962 0.693359 25.2891 0.693359C11.4819 0.693359 0.289062 11.8862 0.289062 25.6934C0.289062 39.5005 11.4819 50.6934 25.2891 50.6934Z" fill="#324A5E"/>
<path d="M43.4007 42.8991C38.9125 47.6235 32.5739 50.6157 25.5266 50.6944C25.4479 50.6944 25.3692 50.6944 25.2904 50.6944C18.1644 50.6944 11.7077 47.7023 7.18018 42.8991C8.87309 37.033 12.5739 36.6393 12.5739 36.6393C17.4164 34.3164 20.3298 31.0094 20.4873 30.8125H30.0542C30.2117 31.0094 33.1251 34.3164 38.007 36.6393C38.007 36.6393 41.7471 37.033 43.4007 42.8991Z" fill="#2C9984"/>
<path d="M30.524 43.7245V31.3229C30.1697 31.0867 29.8547 30.7324 29.6972 30.3387C29.5791 30.1025 29.5004 29.8269 29.461 29.5119L29.0673 24.2363H21.5083L21.2327 28.2127L21.1539 29.5119C21.1146 30.2993 20.6421 30.9686 20.0122 31.3623V43.6851L25.2878 49.63L30.524 43.7245Z" fill="#FFD05B"/>
<path d="M29.6975 30.3387C23.3589 35.3387 21.2723 28.4489 21.2329 28.2127L21.5085 24.2363H29.1069L29.5006 29.5119C29.5006 29.8269 29.54 30.1025 29.6975 30.3387Z" fill="#F9B54C"/>
<path d="M30.9969 43.2533V33.9619H19.5796V43.2533L25.2883 49.9068L30.9969 43.2533Z" fill="#E6E9EE"/>
<path d="M26.3515 35.6548L26.9027 33.9619H23.6743L24.2255 35.6548H26.3515Z" fill="#F1543F"/>
<path d="M28.9498 45.0637L26.3514 35.6543H24.2254L21.627 45.0637L25.2884 49.3945L28.9498 45.0637Z" fill="#FF7058"/>
<path d="M32.6903 43.6061L31.273 40.3384H35.1706C34.1864 35.8109 31.5486 32.4644 30.2888 31.0471C30.1706 30.8896 30.0525 30.8109 30.0525 30.7715H29.8163C30.21 31.7951 30.8793 34.6691 28.9502 38.8424C28.9502 38.8424 26.9423 44.6298 25.2494 49.3148C23.5565 44.6298 21.5486 38.8424 21.5486 38.8424C19.6195 34.6691 20.3281 31.7951 20.6825 30.7715H20.4462C20.4069 30.8109 20.3281 30.8896 20.21 31.0471C18.9895 32.425 16.3517 35.8109 15.3281 40.3384H19.2258L17.8084 43.6061C20.2888 44.9447 24.4226 50.1416 24.8557 50.6927C24.9738 50.6927 25.0919 50.6927 25.2494 50.6927C25.3281 50.6927 25.4069 50.6927 25.4856 50.6927C25.525 50.6927 25.5643 50.6927 25.6037 50.6927C26.1155 50.1022 30.21 44.9447 32.6903 43.6061Z" fill="#4CDBC4"/>
<path d="M33.2424 20.4579C33.518 19.6312 33.6755 18.765 33.6755 17.8595C33.6755 13.2926 29.8959 9.5918 25.2896 9.5918C20.644 9.5918 16.9038 13.2926 16.9038 17.8595C16.9038 18.765 17.0613 19.6312 17.3369 20.4579H33.2424Z" fill="#2B3B4E"/>
<path d="M33.6341 18.9616C33.3191 18.8041 32.9254 18.8828 32.5711 19.1584C32.4924 14.2765 29.264 12.5049 25.2876 12.5049C21.3113 12.5049 18.0829 14.2765 18.0435 19.1584C17.6498 18.8828 17.2955 18.8041 16.9806 18.9616C16.3506 19.3159 16.2719 20.497 16.7837 21.6781C17.2561 22.7411 18.0435 23.371 18.6341 23.2529C19.7365 27.0718 22.2955 30.497 25.2876 30.497C28.2798 30.497 30.8388 27.0324 31.9412 23.2529C32.5317 23.371 33.3585 22.7411 33.7916 21.6781C34.3428 20.497 34.2246 19.2765 33.6341 18.9616Z" fill="#FFD05B"/>
<path d="M25.288 17.8195C29.1149 17.8195 32.2172 16.3036 32.2172 14.4337C32.2172 12.5637 29.1149 11.0479 25.288 11.0479C21.4612 11.0479 18.3589 12.5637 18.3589 14.4337C18.3589 16.3036 21.4612 17.8195 25.288 17.8195Z" fill="#2B3B4E"/>
<path d="M17.6106 12.4255H33.0043C34.5397 11.835 35.7208 11.0082 36.1933 10.0633C37.4925 7.38615 32.7681 4.70898 25.2878 4.70898C17.8075 4.70898 13.083 7.42552 14.4216 10.0633C14.8941 11.0082 16.0752 11.835 17.6106 12.4255Z" fill="#4CDBC4"/>
<path d="M17.6133 12.4255C22.5345 10.8113 28.0857 10.8113 33.007 12.4255C33.007 13.1341 33.007 13.8428 33.007 14.5515C27.8889 14.5515 22.7314 14.5515 17.6133 14.5515C17.6133 13.8428 17.6133 13.1341 17.6133 12.4255Z" fill="#2C9984"/>
<path d="M25.2894 10.0632C26.2461 10.0632 27.0217 9.28763 27.0217 8.33092C27.0217 7.3742 26.2461 6.59863 25.2894 6.59863C24.3327 6.59863 23.5571 7.3742 23.5571 8.33092C23.5571 9.28763 24.3327 10.0632 25.2894 10.0632Z" fill="#2C9984"/>
<path d="M29.6975 30.3779C29.6975 30.3779 29.3826 32.1496 25.2881 33.9606C25.2881 33.9606 28.3196 35.8504 28.8708 37.3858C28.8708 37.3858 31.666 33.5669 29.6975 30.3779Z" fill="white"/>
<path d="M20.9196 30.3779C20.9196 30.3779 21.2346 32.1496 25.2897 33.9606C25.2897 33.9606 22.2582 35.8504 21.707 37.3858C21.707 37.3858 18.9117 33.5669 20.9196 30.3779Z" fill="white"/>
<path d="M25.2886 25.3389C23.9107 24.6302 23.3595 26.7562 21.1548 25.5357C21.1548 25.5357 22.0209 27.9373 25.2886 26.4806C28.5564 27.8979 29.4225 25.5357 29.4225 25.5357C27.2178 26.7562 26.6666 24.6302 25.2886 25.3389Z" fill="#324A5E"/>
</g>
<defs>
<clipPath id="clip0_1302_62478">
<rect width="50" height="50" fill="white" transform="translate(0.289062 0.693359)"/>
</clipPath>
</defs>
</svg>
