<svg width="51" height="51" viewBox="0 0 51 51" fill="none" xmlns="http://www.w3.org/2000/svg">
<path d="M33.4892 5.4082C33.1316 5.4082 32.8418 5.69808 32.8418 6.05563V8.21379H34.1367V6.05563C34.1367 5.69808 33.8469 5.4082 33.4892 5.4082Z" fill="#5CA8D3"/>
<path d="M17.0868 12.5293L12.7705 16.8456L17.0868 15.1191C18.5112 15.1191 19.6766 13.9537 19.6766 12.5293H17.0868Z" fill="#FDA162"/>
<path d="M8.4541 12.5293H17.0867C17.0867 13.9536 15.9214 15.1191 14.4969 15.1191L12.7704 16.8456L11.0439 15.1191C9.61948 15.1191 8.4541 13.9537 8.4541 12.5293Z" fill="#FDCE6E"/>
<path d="M17.0868 15.1211L12.7705 19.4374L17.0868 17.7109C18.5112 17.7109 19.6766 16.5455 19.6766 15.1211H17.0868Z" fill="#FDA162"/>
<path d="M8.4541 15.1211H17.0867C17.0867 16.5454 15.9214 17.7109 14.4969 17.7109L12.7704 19.4374L11.0439 17.7109C9.61948 17.7109 8.4541 16.5455 8.4541 15.1211Z" fill="#FDCE6E"/>
<path d="M17.0868 17.7109L12.7705 22.0272L17.0868 20.3007C18.5112 20.3007 19.6766 19.1354 19.6766 17.7109H17.0868Z" fill="#FDA162"/>
<path d="M8.4541 17.7109H17.0867C17.0867 19.1353 15.9214 20.3007 14.4969 20.3007L12.7704 22.0272L11.0439 20.3007C9.61948 20.3007 8.4541 19.1354 8.4541 17.7109Z" fill="#FDCE6E"/>
<path d="M17.0868 20.2998L12.7705 24.6161L17.0868 22.8896C18.5112 22.8896 19.6766 21.7242 19.6766 20.2998H17.0868Z" fill="#FDA162"/>
<path d="M8.4541 20.2998H17.0867C17.0867 21.7242 15.9214 22.8896 14.4969 22.8896L12.7704 24.6161L11.0439 22.8896C9.61948 22.8896 8.4541 21.7242 8.4541 20.2998Z" fill="#FDCE6E"/>
<path d="M33.4868 7.35059V16.8465L41.2562 15.12C41.2561 10.8286 37.7781 7.35059 33.4868 7.35059Z" fill="#66C6FE"/>
<path d="M38.6692 15.118L32.1947 16.8446L25.7202 15.118C25.7202 10.8268 29.1983 7.34863 33.4896 7.34863C36.3504 7.34871 38.6692 10.8268 38.6692 15.118Z" fill="#99D9FF"/>
<path d="M39.5329 15.1211H24.8574V17.7109H39.5329V15.1211Z" fill="#5CA8D3"/>
<path d="M42.122 15.1211H39.5322V17.7109H42.122V15.1211Z" fill="#5389A9"/>
<path d="M19.8943 20.9472H8.2402C7.88257 20.9472 7.59277 20.6573 7.59277 20.2998C7.59277 19.9422 7.88257 19.6523 8.2402 19.6523H19.8943C20.2519 19.6523 20.5417 19.9422 20.5417 20.2998C20.5417 20.6573 20.2519 20.9472 19.8943 20.9472Z" fill="#FDFA7B"/>
<path d="M19.8943 18.3574H8.2402C7.88257 18.3574 7.59277 18.0675 7.59277 17.7099C7.59277 17.3524 7.88257 17.0625 8.2402 17.0625H19.8943C20.2519 17.0625 20.5417 17.3524 20.5417 17.7099C20.5417 18.0675 20.2519 18.3574 19.8943 18.3574Z" fill="#FDFA7B"/>
<path d="M19.8943 15.7685H8.2402C7.88257 15.7685 7.59277 15.4786 7.59277 15.1211C7.59277 14.7635 7.88257 14.4736 8.2402 14.4736H19.8943C20.2519 14.4736 20.5417 14.7635 20.5417 15.1211C20.5417 15.4786 20.2519 15.7685 19.8943 15.7685Z" fill="#FDFA7B"/>
<path d="M19.8943 13.1787H8.2402C7.88257 13.1787 7.59277 12.8888 7.59277 12.5312C7.59277 12.1737 7.88257 11.8838 8.2402 11.8838H19.8943C20.2519 11.8838 20.5417 12.1737 20.5417 12.5312C20.5417 12.8888 20.2519 13.1787 19.8943 13.1787Z" fill="#FDFA7B"/>
<path d="M25.5038 15.1211H24.209V24.617H25.5038V15.1211Z" fill="#5389A9"/>
<path d="M42.7695 15.1211H41.4746V24.617H42.7695V15.1211Z" fill="#496A7E"/>
<path d="M40.8257 39.5791V45.3348C40.8257 45.6924 41.1155 45.9822 41.4731 45.9822C41.8307 45.9822 42.1205 45.6924 42.1205 45.3348V39.5791H40.8257Z" fill="#B1786B"/>
<path d="M8.4541 39.5791V45.3348C8.4541 45.6924 8.7439 45.9822 9.10153 45.9822C9.45916 45.9822 9.74896 45.6924 9.74896 45.3348V39.5791H8.4541Z" fill="#CB9385"/>
<path d="M25.2875 24.6143L6.51172 28.0674V30.6298L38.4521 36.9158L41.4479 42.1539C42.0901 42.4768 42.8357 42.7428 44.0633 42.7428V28.0672L25.2875 24.6143Z" fill="#FDA162"/>
<path d="M44.2898 22.8896V28.0692H41.7004L39.8706 25.6956L41.7004 22.8896H44.2898Z" fill="#99D9FF"/>
<path d="M41.7028 22.8896H6.29004V28.0693H41.7028V22.8896Z" fill="#CCECFF"/>
<path d="M41.4487 30.6582H6.51172V42.7439C9.6411 42.7439 9.6411 41.0174 12.7706 41.0174C15.9 41.0174 15.8999 42.7439 19.0294 42.7439C22.1589 42.7439 22.1588 41.0174 25.2882 41.0174C28.4177 41.0174 28.4176 42.7439 31.5471 42.7439C34.6764 42.7439 34.6764 41.0174 37.8057 41.0174C39.7073 41.0174 40.4537 41.6548 41.4487 42.1551V30.6582H41.4487Z" fill="#FDCE6E"/>
<path d="M39.5078 35.623C39.8653 35.623 40.1552 35.3331 40.1552 34.9756C40.1552 34.618 39.8653 34.3281 39.5078 34.3281C39.1502 34.3281 38.8604 34.618 38.8604 34.9756C38.8604 35.3331 39.1502 35.623 39.5078 35.623Z" fill="#FDA162"/>
<path d="M36.9165 38.2128C37.274 38.2128 37.5639 37.923 37.5639 37.5654C37.5639 37.2078 37.274 36.918 36.9165 36.918C36.5589 36.918 36.269 37.2078 36.269 37.5654C36.269 37.923 36.5589 38.2128 36.9165 38.2128Z" fill="#FDA162"/>
<path d="M42.9855 15.7675H23.9936C23.636 15.7675 23.3462 15.4776 23.3462 15.1201C23.3462 14.7625 23.636 14.4727 23.9936 14.4727H42.9855C43.3431 14.4727 43.6329 14.7625 43.6329 15.1201C43.633 15.4776 43.3432 15.7675 42.9855 15.7675Z" fill="#5389A9"/>
</svg>
