<svg width="51" height="51" viewBox="0 0 51 51" fill="none" xmlns="http://www.w3.org/2000/svg">
<g clip-path="url(#clip0_1302_62553)">
<path d="M49.6696 20.1426C47.1449 9.00703 37.1883 0.693359 25.2891 0.693359C11.482 0.693359 0.289062 11.8863 0.289062 25.6934C0.289062 37.1482 7.99326 46.8031 18.5026 49.7605L49.6696 20.1426Z" fill="#FBD867"/>
<path d="M50.2887 25.6934C50.2887 23.7855 50.074 21.9279 49.6692 20.1426L44.0974 14.5707L36.845 8.85547L9.86182 41.1202L18.5021 49.7605C20.6604 50.368 22.9364 50.6934 25.2887 50.6934C39.0958 50.6934 50.2887 39.5005 50.2887 25.6934Z" fill="#F9BE02"/>
<path d="M34.106 15.3389L28.5391 20.9057L33.1506 22.4429L37.1803 18.4133L34.106 15.3389Z" fill="#FDE59A"/>
<path d="M32.5688 13.8018L28.5391 17.8314L29.3076 21.6744L34.8745 16.1075L32.5688 13.8018Z" fill="#FEF2CC"/>
<path d="M30.8447 20.1377L21.6216 26.2865L25.4646 30.1294L33.1505 22.4435L30.8447 20.1377Z" fill="#263230"/>
<path d="M23.1585 27.8235L30.8442 20.1377L28.5385 17.832L20.8527 25.5177L23.1585 27.8235Z" fill="#1A534A"/>
<path d="M41.7921 13.8018L40.0682 15.5257C38.7968 16.7971 36.728 16.7971 35.4566 15.5257H33.9194V17.0629C36.0418 19.1853 39.4829 19.1854 41.6054 17.0629L42.5607 16.1075L41.7921 13.8018Z" fill="#FEF2CC"/>
<path d="M35.4567 10.9144L37.1806 9.19043L34.8748 8.42188L33.9194 9.37725C31.797 11.4997 31.7971 14.9407 33.9194 17.0632L35.4567 15.526C34.1854 14.2546 34.1854 12.1857 35.4567 10.9144Z" fill="white"/>
<path d="M44.098 14.5704L42.5607 16.1076L38.7178 12.2646L38.8181 10.8277L40.2549 10.7275L44.098 14.5704Z" fill="#1A534A"/>
<path d="M38.7177 12.2637L40.2549 10.7266L36.412 6.88364L34.8748 8.42082L38.7177 12.2637Z" fill="#0E7563"/>
<path d="M26.2334 27.8232L30.8449 32.4348L23.5432 39.7366C19.8247 43.4551 14.0826 43.9161 9.8623 41.12L18.1631 29.7449L26.2334 27.8232Z" fill="#1A534A"/>
<path d="M23.159 27.8236V24.7492L18.5475 20.1377L11.2456 27.4396C7.52717 31.158 7.06613 36.9001 9.86223 41.1204L23.159 27.8236Z" fill="#0E7563"/>
<path d="M12.7807 35.1261L14.3179 33.5889L12.7807 32.0517L11.2435 33.5889L12.7807 35.1261Z" fill="#1A534A"/>
<path d="M14.3193 30.5147L15.8564 28.9775L14.3193 27.4404L12.7821 28.9775L14.3193 30.5147Z" fill="#1A534A"/>
<path d="M24.6958 26.2861L22.6975 26.7474L21.291 29.6909C22.5182 30.2774 24.0181 30.0382 25.0032 29.0531L26.233 27.8233L24.6958 26.2861Z" fill="#0E7563"/>
<path d="M23.1589 24.749L21.9291 25.9788C20.9438 26.9641 20.7047 28.4638 21.2913 29.691L24.6962 26.2861L23.1589 24.749Z" fill="#02967D"/>
</g>
<defs>
<clipPath id="clip0_1302_62553">
<rect width="50" height="50" fill="white" transform="translate(0.289062 0.693359)"/>
</clipPath>
</defs>
</svg>
