<svg width="51" height="51" viewBox="0 0 51 51" fill="none" xmlns="http://www.w3.org/2000/svg">
<g clip-path="url(#clip0_1302_62337)">
<path d="M25.2876 0.693359C11.4827 0.693359 0.287598 11.8884 0.287598 25.6934C0.287598 39.4983 11.4827 50.6934 25.2876 50.6934C39.0925 50.6934 50.2876 39.4983 50.2876 25.6934C50.2876 11.8884 39.0925 0.693359 25.2876 0.693359Z" fill="#48A1AF"/>
<path d="M29.6003 33.4326H20.9546V36.6067H29.6003V33.4326Z" fill="#1D2D33"/>
<path d="M29.2077 29.1201H21.3682C22.5874 32.8081 21.4689 34.4909 21.4689 34.4909L24.1795 35.1056H26.3964L29.107 34.4909C29.107 34.4909 27.9885 32.8081 29.2077 29.1201Z" fill="#E2A379"/>
<path d="M25.2681 32.6367L21.4692 34.4908C21.4692 34.4908 23.1621 37.3223 25.258 37.3223C27.354 37.3223 29.1073 34.4908 29.1073 34.4908L25.2681 32.6367Z" fill="#E2A379"/>
<path d="M29.0972 34.4912C29.0972 34.4912 28.2004 36.2345 25.258 36.2345C22.3157 36.2345 21.4793 34.4912 21.4793 34.4912C21.4793 34.4912 20.7739 40.0031 25.2983 40.0031C29.8227 40.0031 29.0972 34.4912 29.0972 34.4912Z" fill="#E2A379"/>
<path d="M40.0705 39.2676C39.3349 36.5167 33.027 34.2998 25.2479 34.2998C17.4688 34.2998 11.2314 36.5267 10.4958 39.2676C10.1632 40.4969 9.7904 42.8145 9.47803 45.0616C13.7807 48.5783 19.2926 50.6944 25.2882 50.6944C31.2838 50.6944 36.7856 48.5783 41.0983 45.0616C40.7759 42.8044 40.4031 40.4868 40.0705 39.2676Z" fill="#E2A379"/>
<path d="M40.0695 39.2666C39.334 36.5157 33.026 34.2988 25.2469 34.2988C17.4678 34.2988 11.2304 36.5258 10.4948 39.2666C10.1623 40.4959 9.78942 42.8135 9.47705 45.0606C13.7798 48.5773 19.2916 50.6934 25.2872 50.6934C31.2828 50.6934 36.7846 48.5773 41.0974 45.0606C40.7749 42.8035 40.4021 40.4858 40.0695 39.2666Z" fill="#334D5C"/>
<path d="M32.3222 45.1327C32.5838 45.1327 32.7958 44.9207 32.7958 44.6591C32.7958 44.3976 32.5838 44.1855 32.3222 44.1855C32.0607 44.1855 31.8486 44.3976 31.8486 44.6591C31.8486 44.9207 32.0607 45.1327 32.3222 45.1327Z" fill="#263A44"/>
<path d="M29.3091 43.6113V50.3626C29.4098 50.3425 29.5106 50.3324 29.6114 50.3123V45.4553L32.3522 45.9692L35.0225 45.4654V48.7302C35.1233 48.6899 35.224 48.6496 35.3248 48.5992V43.6214H29.3091V43.6113ZM35.0225 45.153L32.3522 45.6569L29.6114 45.143V43.9035H35.0225V45.153Z" fill="#263A44"/>
<path d="M15.2524 43.6113V48.5892C15.3532 48.6295 15.454 48.6799 15.5547 48.7202V45.4553L18.2956 45.9692L20.9659 45.4654V50.3223C21.0666 50.3425 21.1674 50.3526 21.2682 50.3727V43.6214H15.2524V43.6113ZM20.9659 45.153L18.2956 45.6569L15.5547 45.143V43.9035H20.9659V45.153Z" fill="#263A44"/>
<path d="M18.2553 45.1327C18.5169 45.1327 18.7289 44.9207 18.7289 44.6591C18.7289 44.3976 18.5169 44.1855 18.2553 44.1855C17.9938 44.1855 17.7817 44.3976 17.7817 44.6591C17.7817 44.9207 17.9938 45.1327 18.2553 45.1327Z" fill="#263A44"/>
<path d="M25.2587 34.29C23.6565 34.29 22.1148 34.3807 20.6738 34.5621L25.2889 43.7318L29.904 34.5722C28.4429 34.3908 26.881 34.29 25.2587 34.29Z" fill="#263A44"/>
<path d="M25.3596 41.7165C25.3899 41.7468 20.9562 33.4336 20.9562 33.4336L17.3286 34.8645L18.034 37.1821H21.2585L20.1501 38.2905L25.3596 41.7165Z" fill="#263A44"/>
<path d="M33.2392 34.8645L29.6116 33.4336C29.6116 33.4336 25.1779 41.7468 25.2082 41.7165L30.4178 38.2905L29.3093 37.1821H32.5338L33.2392 34.8645Z" fill="#263A44"/>
<path d="M30.3056 18.338L19.4632 17.7637C10.3237 26.9434 15.9162 32.8685 17.7099 35.7604C21.3173 41.5746 17.3471 43.59 17.3471 43.59L17.5386 43.4892C17.5386 43.4892 24.572 42.1288 21.942 35.8108C20.6321 32.677 19.8159 25.9358 30.3056 18.338Z" fill="#3A1D12"/>
<path d="M25.2887 6.90137C20.855 6.90137 17.2476 9.0376 17.2476 18.3484C17.2476 21.5023 17.8118 23.9711 18.6583 25.8756C20.5124 30.0674 23.7268 31.5285 25.2887 31.5285C26.8505 31.5285 30.0549 30.0674 31.9191 25.8756C32.7655 23.9711 33.3298 21.5023 33.3298 18.3484C33.3298 9.0376 29.7224 6.90137 25.2887 6.90137Z" fill="#F4B382"/>
<path d="M17.3987 18.6309C16.6328 18.7619 16.0484 19.0944 16.4817 21.6236C16.915 24.1629 17.4491 24.2737 18.2249 24.1427L17.3987 18.6309Z" fill="#F4B382"/>
<path d="M33.1883 18.6309L32.3721 24.1528C33.1379 24.2838 33.682 24.1629 34.1153 21.6337C34.5385 19.0944 33.9541 18.7619 33.1883 18.6309Z" fill="#F4B382"/>
<path d="M25.2874 6.90137C19.5136 6.90137 16.9541 9.43059 16.9541 18.7414L17.9114 17.9453C22.5265 17.9453 26.4664 15.2347 29.3181 12.6752C30.5273 16.0106 33.6208 18.7313 33.6208 18.7313C33.6208 9.43059 31.0613 6.90137 25.2874 6.90137Z" fill="#3A1D12"/>
<path d="M32.4421 8.54376C31.1724 6.66952 27.6859 5.03711 25.3079 5.03711C22.9298 5.03711 19.4231 6.66952 18.1535 8.54376C16.9644 10.287 16.6621 15.2648 17.0954 15.2648H33.49C33.7823 15.2648 33.6311 10.2971 32.4421 8.54376Z" fill="#E5AA17"/>
<path d="M16.9243 14.6602L17.0049 16.6452C17.0049 16.6452 20.572 17.008 25.2879 17.008C30.0037 17.008 33.5608 16.6452 33.5608 16.6452L33.5809 14.6602H16.9243Z" fill="#EFC76C"/>
<path d="M25.2875 4.71387C23.6954 4.71387 22.3955 5.03632 22.3955 5.70137V7.83761C22.3955 8.50266 23.6853 16.0198 25.2875 16.0198C26.8796 16.0198 28.1795 8.51274 28.1795 7.83761V5.71145C28.1795 5.03632 26.8796 4.71387 25.2875 4.71387Z" fill="#E5AA17"/>
<path d="M22.4053 5.71264C22.4053 5.70256 22.4053 5.70256 22.4053 5.71264C22.3952 5.70256 22.3852 5.70256 22.3852 5.71264C22.3146 5.89401 22.2743 6.06532 22.2542 6.24669C22.234 6.33738 22.234 6.42807 22.2239 6.50869C22.2139 6.59937 22.2139 6.69006 22.2139 6.77068C22.2139 6.86137 22.2139 6.95206 22.2239 7.03267C22.234 7.12336 22.234 7.21405 22.2542 7.29466C22.2743 7.47604 22.3146 7.64734 22.3852 7.82872C22.3852 7.82872 22.3852 7.83879 22.3952 7.83879C22.4053 7.83879 22.4053 7.83879 22.4053 7.82872L22.4154 6.7606L22.4053 5.71264Z" fill="#C18D17"/>
<path d="M28.3506 6.50827C28.3406 6.41759 28.3406 6.3269 28.3204 6.24628C28.3003 6.06491 28.2599 5.8936 28.1894 5.71222C28.1894 5.71222 28.1894 5.70215 28.1793 5.70215C28.1693 5.70215 28.1693 5.70215 28.1693 5.71222L28.1592 6.78034L28.1693 7.84846C28.1693 7.84846 28.1693 7.85854 28.1793 7.85854C28.1793 7.85854 28.1894 7.85854 28.1894 7.84846C28.2599 7.66708 28.3003 7.49578 28.3204 7.3144C28.3406 7.22371 28.3406 7.13302 28.3506 7.05241C28.3607 6.96172 28.3607 6.87103 28.3607 6.79042C28.3506 6.68965 28.3506 6.59896 28.3506 6.50827Z" fill="#C18D17"/>
<path d="M27.0007 5.36935C27.0007 4.70429 26.2349 4.16016 25.2877 4.16016C24.3405 4.16016 23.5747 4.70429 23.5747 5.36935L22.436 14.4685C22.436 15.1336 24.3405 15.6777 25.2877 15.6777C26.2349 15.6777 28.1394 15.1336 28.1394 14.4685L27.0007 5.36935Z" fill="#F4B21E"/>
<path d="M33.2277 13.5014C32.0488 13.4511 28.6529 14.2068 25.2874 14.2068C21.9621 14.2068 18.6671 13.4511 17.5183 13.5014C16.3797 13.5014 16.0068 15.7183 16.0068 15.7183C16.0068 15.7183 20.0072 16.1314 25.2974 16.1314C30.5876 16.1314 34.578 15.7183 34.578 15.7183C34.578 15.7183 34.2152 13.5014 33.2277 13.5014Z" fill="#E5AA17"/>
<path d="M31.4749 13.9041C30.7796 13.9444 30.0944 13.9847 29.3991 14.0149C28.0086 14.0754 26.6281 14.1157 25.2375 14.1056C23.8469 14.1157 22.4664 14.0653 21.0759 14.0048C20.3806 13.9746 19.6853 13.9343 19.0001 13.894C18.3048 13.8537 17.6196 13.8033 16.9243 13.7529C17.6095 13.8537 18.3048 13.9242 18.99 13.9948C19.6853 14.0552 20.3705 14.1157 21.0658 14.1661C22.4564 14.2568 23.8469 14.2971 25.2274 14.3071C26.618 14.2971 28.0086 14.2568 29.3991 14.1661C30.0944 14.1157 30.7897 14.0653 31.4749 13.9948C32.1702 13.9242 32.8554 13.8537 33.5406 13.7529C32.8554 13.8033 32.1702 13.8638 31.4749 13.9041Z" fill="#C18D17"/>
<path d="M26.3351 26.6708C26.0328 26.6305 25.2871 26.9227 25.2871 26.9227C25.2871 26.9227 24.5213 26.6305 24.219 26.6708C23.7353 26.7413 22.5967 27.1343 22.5967 27.2754C22.5967 27.2754 24.0276 28.2428 25.2871 28.2428C26.5467 28.2428 27.9776 27.2754 27.9776 27.2754C27.9776 27.2754 26.8288 26.7413 26.3351 26.6708Z" fill="#CC785E"/>
<path d="M25.902 27.3359C25.7004 27.3258 25.4485 27.5072 25.2873 27.5072C25.0958 27.5072 24.8036 27.3258 24.5819 27.3459C23.2619 27.4265 22.6069 27.2754 22.6069 27.2754C22.6069 27.2754 24.0378 28.6357 25.2974 28.6357C26.557 28.6357 27.9878 27.2754 27.9878 27.2754C27.9878 27.2754 27.2825 27.4165 25.902 27.3359Z" fill="#C16952"/>
<path d="M17.901 19.1431C17.8607 18.8711 17.8506 18.6192 17.8607 18.4277C17.8708 18.1355 17.9111 17.9541 17.9111 17.9541L16.9639 18.3068C16.9639 18.4479 16.9639 18.599 16.9639 18.7401C16.9639 18.7401 17.0646 18.7098 17.246 18.6494C17.2359 18.6494 17.2259 18.6595 17.2158 18.6595C17.3468 18.8811 17.508 19.2238 17.6692 19.7175C17.6592 19.7175 18.032 19.9896 17.901 19.1431Z" fill="#3A1D12"/>
<path d="M33.6104 18.3064L32.6732 17.6816C32.6732 17.6816 32.7135 18.1351 32.7236 18.4273C32.7337 18.6288 32.7236 18.8707 32.6833 19.1427C32.5523 19.9892 32.9151 19.7171 32.9151 19.7171C33.0662 19.2133 33.2375 18.8808 33.3584 18.6591C33.5197 18.7195 33.6104 18.7397 33.6104 18.7397C33.6204 18.5885 33.6204 18.4475 33.6104 18.3064Z" fill="#3A1D12"/>
<path d="M25.2569 33.2314C22.4153 33.2314 21.4883 34.4809 21.4883 34.4809L25.2972 40.6579L29.1062 34.4809C29.0961 34.4809 28.0884 33.2314 25.2569 33.2314Z" fill="#E2A379"/>
<path d="M25.9932 50.684V41.7158H24.5825V50.684C24.8143 50.6941 25.0561 50.6941 25.2879 50.6941C25.5196 50.6941 25.7615 50.684 25.9932 50.684Z" fill="#263A44"/>
</g>
<defs>
<clipPath id="clip0_1302_62337">
<rect width="50" height="50" fill="white" transform="translate(0.289062 0.693359)"/>
</clipPath>
</defs>
</svg>
