<svg width="57" height="57" viewBox="0 0 57 57" fill="none" xmlns="http://www.w3.org/2000/svg">
<rect x="0.430664" y="0.542969" width="56" height="56" rx="28" fill="#FE725F"/>
<path d="M38.1107 33.5026L34.9806 26.1926C33.9207 23.7126 31.9707 23.6126 30.6607 25.9726L28.7707 29.3826C27.8107 31.1126 26.0207 31.2626 24.7807 29.7126L24.5607 29.4326C23.2707 27.8126 21.4507 28.0126 20.5207 29.8626L18.8007 33.3126C17.5907 35.7126 19.3407 38.5426 22.0207 38.5426H34.7807C37.3807 38.5426 39.1307 35.8926 38.1107 33.5026Z" stroke="#E8E8EA" stroke-width="1.5" stroke-linecap="round" stroke-linejoin="round"/>
<path d="M23.4007 24.543C25.0575 24.543 26.4007 23.1998 26.4007 21.543C26.4007 19.8861 25.0575 18.543 23.4007 18.543C21.7438 18.543 20.4007 19.8861 20.4007 21.543C20.4007 23.1998 21.7438 24.543 23.4007 24.543Z" stroke="#E8E8EA" stroke-width="1.5" stroke-linecap="round" stroke-linejoin="round"/>
</svg>
