<svg width="51" height="51" viewBox="0 0 51 51" fill="none" xmlns="http://www.w3.org/2000/svg">
<g clip-path="url(#clip0_1302_62381)">
<path d="M25.289 50.6932C39.096 50.6932 50.2889 39.5003 50.2889 25.6933C50.2889 11.8862 39.096 0.693359 25.289 0.693359C11.4819 0.693359 0.289062 11.8862 0.289062 25.6933C0.289062 39.5003 11.4819 50.6932 25.289 50.6932Z" fill="#FD8469"/>
<path d="M37.6184 47.4462C45.1852 43.1485 50.2901 35.0178 50.2901 25.6939C50.2901 23.9326 50.1069 22.2141 49.7605 20.5557L47.0915 17.8867L42.8271 23.3823L31.1412 11.6963L23.4454 19.2688L15.5171 24.5772L19.9162 28.9763L19.3537 29.1817L37.6184 47.4462Z" fill="#FC6F58"/>
<path d="M27.7375 31.8986V29.1816H22.8375V31.8986C22.8375 32.1154 22.6617 32.2912 22.4449 32.2912H19.0684V41.6672H31.5069V32.2912H28.1303C27.9132 32.2912 27.7375 32.1154 27.7375 31.8986Z" fill="#FED8B2"/>
<path d="M31.5073 32.2912H28.1307C27.914 32.2912 27.7382 32.1154 27.7382 31.8986V29.1816H25.1196V41.6672H31.5071V32.2912H31.5073Z" fill="#EABE96"/>
<path d="M17.1433 25.4467C18.2247 25.4467 19.1014 24.57 19.1014 23.4885C19.1014 22.407 18.2247 21.5303 17.1433 21.5303C16.0618 21.5303 15.1851 22.407 15.1851 23.4885C15.1851 24.57 16.0618 25.4467 17.1433 25.4467Z" fill="#FED8B2"/>
<path d="M33.0153 25.4467C34.0968 25.4467 34.9735 24.57 34.9735 23.4885C34.9735 22.407 34.0968 21.5303 33.0153 21.5303C31.9338 21.5303 31.0571 22.407 31.0571 23.4885C31.0571 24.57 31.9338 25.4467 33.0153 25.4467Z" fill="#EABE96"/>
<path d="M25.3018 31.6427H24.8606C20.779 31.6427 17.4702 28.3339 17.4702 24.2523V17.5047C17.4702 13.423 20.779 10.1143 24.8606 10.1143H25.3018C29.3834 10.1143 32.6922 13.423 32.6922 17.5047V24.2523C32.6922 28.334 29.3834 31.6427 25.3018 31.6427Z" fill="#F4E3C3"/>
<path d="M25.2998 10.1143H25.1196V31.6426H25.2998C29.3814 31.6426 32.6902 28.3338 32.6902 24.2522V17.5046C32.69 13.423 29.3813 10.1143 25.2998 10.1143Z" fill="#FED8B2"/>
<path d="M31.8889 12.6126C30.4375 10.5451 28.0369 9.19238 25.3189 9.19238H24.8398C20.4084 9.19238 16.8159 12.7848 16.8159 17.2163V17.8368V23.4888H17.9938V20.1742C17.9936 20.1742 17.9934 20.1742 17.9932 20.1742C21.5679 19.8111 25.0827 19.1098 28.1635 17.5696C29.2721 18.8426 30.5524 19.9795 31.9657 20.9017V23.4887H33.3428V19.2633V17.2162C33.3428 15.5026 32.8039 13.9159 31.8889 12.6126Z" fill="#324A5E"/>
<path d="M31.8887 12.6126C30.4373 10.5451 28.0367 9.19238 25.3188 9.19238H25.1196V18.7951C26.1696 18.4599 27.1883 18.0569 28.1632 17.5695C29.2718 18.8427 30.552 19.9795 31.9653 20.9016V23.4886H33.3424V19.2632V17.2161C33.3426 15.5028 32.8038 13.9161 31.8887 12.6126Z" fill="#2B3B4E"/>
<path d="M21.4931 23.3807C21.9134 23.3807 22.2542 23.0399 22.2542 22.6195C22.2542 22.1992 21.9134 21.8584 21.4931 21.8584C21.0727 21.8584 20.7319 22.1992 20.7319 22.6195C20.7319 23.0399 21.0727 23.3807 21.4931 23.3807Z" fill="#59595B"/>
<path d="M28.6674 23.3807C29.0877 23.3807 29.4285 23.0399 29.4285 22.6195C29.4285 22.1992 29.0877 21.8584 28.6674 21.8584C28.247 21.8584 27.9062 22.1992 27.9062 22.6195C27.9062 23.0399 28.247 23.3807 28.6674 23.3807Z" fill="#272525"/>
<path d="M32.0427 32.29H29.4357C29.4357 34.58 27.5794 35.1202 25.2896 35.1202C22.9998 35.1202 21.1435 34.58 21.1435 32.29H18.5364C15.3965 32.29 12.8511 34.8354 12.8511 37.9754V47.3832C16.514 49.4885 20.7611 50.6925 25.2894 50.6925C29.8177 50.6925 34.0648 49.4885 37.728 47.3832V37.9754C37.7279 34.8355 35.1826 32.29 32.0427 32.29Z" fill="#324A5E"/>
<path d="M32.0411 32.29H29.4341C29.4341 34.58 27.5778 35.1202 25.288 35.1202C25.2315 35.1202 25.1755 35.1195 25.1196 35.1188V50.6897C25.1759 50.69 25.2315 50.6925 25.2878 50.6925C29.8161 50.6925 34.0631 49.4885 37.7264 47.3832V37.9754C37.7263 34.8355 35.181 32.29 32.0411 32.29Z" fill="#2B3B4E"/>
<path d="M25.0805 28.8568C23.7091 28.8568 22.5938 27.7413 22.5938 26.3701C22.5938 26.1376 22.7821 25.9492 23.0146 25.9492C23.2472 25.9492 23.4355 26.1376 23.4355 26.3701C23.4355 27.2771 24.1736 28.015 25.0805 28.015C25.9874 28.015 26.7254 27.2769 26.7254 26.3701C26.7254 26.1376 26.9138 25.9492 27.1463 25.9492C27.3788 25.9492 27.5672 26.1376 27.5672 26.3701C27.5672 27.7414 26.4516 28.8568 25.0805 28.8568Z" fill="#FD8469"/>
<path d="M27.566 26.3701C27.566 26.1376 27.3776 25.9492 27.1451 25.9492C26.9126 25.9492 26.7242 26.1376 26.7242 26.3701C26.7242 27.2636 26.0079 27.9913 25.1196 28.0131V28.8549C26.4723 28.8327 27.566 27.7276 27.566 26.3701Z" fill="#FC6F58"/>
<path d="M40.5659 45.4821C41.5529 44.719 42.4819 43.8842 43.3436 42.9846V28.4717H40.5659V45.4821Z" fill="#935635"/>
<path d="M42.0112 28.4717V44.2759C42.4712 43.862 42.9159 43.4313 43.3438 42.9845V28.4717H42.0112Z" fill="#804000"/>
<path d="M41.9569 30.7224C39.1211 30.7224 36.8223 28.4236 36.8223 25.5878V17.8857H47.0916V25.5878C47.0916 28.4236 44.7927 30.7224 41.9569 30.7224Z" fill="#FFD15D"/>
<path d="M42.0112 17.8857V30.721C44.821 30.6908 47.0896 28.4047 47.0896 25.5878V17.8857H42.0112Z" fill="#F9B54C"/>
<path d="M25.2889 42.3592C22.2208 42.3592 19.7334 39.8718 19.7334 36.8037V32.29H18.5355C17.9871 32.29 17.4572 32.3693 16.9556 32.5143V49.2669C19.5623 50.1885 22.3664 50.6925 25.2889 50.6925C28.2113 50.6925 31.0155 50.1885 33.6222 49.2669V32.5143C33.1203 32.3693 32.5908 32.29 32.0422 32.29H30.8445V36.8037C30.8445 39.8718 28.3571 42.3592 25.2889 42.3592Z" fill="#E6F3FF"/>
<path d="M32.0413 32.29H30.8435V36.8037C30.8435 39.8718 28.3561 42.3592 25.288 42.3592C25.2315 42.3592 25.1757 42.3567 25.1196 42.355V50.6908C25.1757 50.6911 25.2315 50.6927 25.2878 50.6927C28.2101 50.6927 31.0143 50.1887 33.6211 49.2671V32.5144C33.1194 32.3693 32.5898 32.29 32.0413 32.29Z" fill="#CFDBE6"/>
<path d="M36.8223 24.7676V25.5883C36.8223 25.8825 36.8483 26.1704 36.8958 26.4511H47.0178C47.0653 26.1704 47.0914 25.8825 47.0914 25.5883V24.7676H36.8223Z" fill="#F9B54C"/>
<path d="M42.0273 24.7676V26.4511H47.0182C47.0657 26.1704 47.0918 25.8825 47.0918 25.5883V24.7676H42.0273Z" fill="#F4A200"/>
</g>
<defs>
<clipPath id="clip0_1302_62381">
<rect width="50" height="50" fill="white" transform="translate(0.289062 0.693359)"/>
</clipPath>
</defs>
</svg>
