<svg width="51" height="51" viewBox="0 0 51 51" fill="none" xmlns="http://www.w3.org/2000/svg">
<g clip-path="url(#clip0_1302_62302)">
<path d="M25.2891 50.6934C39.0962 50.6934 50.2891 39.5005 50.2891 25.6934C50.2891 11.8862 39.0962 0.693359 25.2891 0.693359C11.4819 0.693359 0.289062 11.8862 0.289062 25.6934C0.289062 39.5005 11.4819 50.6934 25.2891 50.6934Z" fill="#FD8469"/>
<path d="M8.4543 41.7135L14.4719 47.7312L17.005 34.867L11.5971 33.2256L7.76709 35.4227L8.39844 40.7593L8.4543 41.7135Z" fill="#FC6F58"/>
<path d="M50.0721 29.0061L32.2585 11.1924L20.2002 22.0039L15.6123 24.7022L19.9793 29.0692L19.5894 29.4287L37.6105 47.4497C44.2699 43.6707 49.0234 36.9235 50.0721 29.0061Z" fill="#FC6F58"/>
<path d="M16.0217 38.1925H16.9565V35.4147H16.0217C15.9275 35.1015 15.8031 34.8013 15.6507 34.5183L16.3116 33.8573L14.3475 31.8932L13.6865 32.5541C13.4035 32.4016 13.1033 32.277 12.79 32.1831V31.248H10.0122V32.1829C9.69893 32.2771 9.39873 32.4015 9.11572 32.5539L8.45479 31.893L6.49063 33.8571L7.15156 34.5181C6.99902 34.8011 6.87461 35.1013 6.78057 35.4145H5.8457V38.1923H6.78057C6.87471 38.5056 6.99912 38.8058 7.15156 39.0888L6.49063 39.7497L8.45479 41.7141L9.11572 41.0531C9.39873 41.2057 9.69893 41.3301 10.0122 41.4241V42.359H12.7899V41.4241C13.1032 41.33 13.4034 41.2056 13.6864 41.0531L14.3474 41.7141L16.3115 39.7499L15.6506 39.089C15.8031 38.806 15.9277 38.5058 16.0217 38.1925ZM11.4011 39.2159C10.0687 39.2159 8.98877 38.1359 8.98877 36.8036C8.98877 35.4713 10.0687 34.3913 11.4011 34.3913C12.7334 34.3913 13.8134 35.4713 13.8134 36.8036C13.8133 38.1359 12.7333 39.2159 11.4011 39.2159Z" fill="#E6F3FF"/>
<path d="M16.0215 38.1925H16.9563V35.4147H16.0215C15.9273 35.1015 15.8029 34.8013 15.6505 34.5183L16.3114 33.8573L14.3473 31.8932L13.6863 32.5541C13.4033 32.4016 13.1031 32.2771 12.7898 32.1831V31.248H11.373V34.3927C11.3825 34.3925 11.3916 34.3913 11.401 34.3913C12.7333 34.3913 13.8133 35.4713 13.8133 36.8036C13.8133 38.1359 12.7333 39.2159 11.401 39.2159C11.3915 39.2159 11.3824 39.2146 11.373 39.2146V42.3592H12.7898V41.4243C13.1031 41.3302 13.4033 41.2058 13.6863 41.0533L14.3473 41.7143L16.3114 39.7501L15.6505 39.0892C15.8029 38.806 15.9275 38.5058 16.0215 38.1925Z" fill="#CFDBE6"/>
<path d="M27.7409 31.8986V29.1816H22.8409V31.8986C22.8409 32.1154 22.6651 32.2912 22.4483 32.2912H19.0718V41.6673H31.5104V32.2912H28.1338C27.9166 32.2912 27.7409 32.1154 27.7409 31.8986Z" fill="#FED8B2"/>
<path d="M31.5095 32.2912H28.1329C27.9161 32.2912 27.7403 32.1154 27.7403 31.8986V29.1816H25.1782V41.6673H31.5097V32.2912H31.5095Z" fill="#EABE96"/>
<path d="M17.1433 25.4467C18.2247 25.4467 19.1015 24.57 19.1015 23.4885C19.1015 22.407 18.2247 21.5303 17.1433 21.5303C16.0618 21.5303 15.1851 22.407 15.1851 23.4885C15.1851 24.57 16.0618 25.4467 17.1433 25.4467Z" fill="#FED8B2"/>
<path d="M33.0153 25.4467C34.0968 25.4467 34.9735 24.57 34.9735 23.4885C34.9735 22.407 34.0968 21.5303 33.0153 21.5303C31.9338 21.5303 31.0571 22.407 31.0571 23.4885C31.0571 24.57 31.9338 25.4467 33.0153 25.4467Z" fill="#EABE96"/>
<path d="M25.3019 31.6428H24.8606C20.779 31.6428 17.4702 28.334 17.4702 24.2523V17.5047C17.4702 13.423 20.779 10.1143 24.8606 10.1143H25.3019C29.3835 10.1143 32.6923 13.423 32.6923 17.5047V24.2523C32.6923 28.3341 29.3835 31.6428 25.3019 31.6428Z" fill="#F4E3C3"/>
<path d="M25.3023 10.1152H25.1782V31.6437H25.3023C29.384 31.6437 32.6928 28.3349 32.6928 24.2532V17.5056C32.6928 13.424 29.384 10.1152 25.3023 10.1152Z" fill="#FED8B2"/>
<path d="M24.8398 9.19238C20.4084 9.19238 16.8159 12.7848 16.8159 17.2163V17.8368V23.4889H17.9938V20.1742C17.9936 20.1742 17.9934 20.1742 17.9932 20.1742C20.4465 19.9251 22.8718 19.5163 25.1479 18.7867V9.19238H24.8398Z" fill="#FFD15D"/>
<path d="M31.8899 12.6126C30.4386 10.5451 28.0379 9.19238 25.3199 9.19238H25.1489V18.7865C26.1892 18.453 27.1982 18.0527 28.1646 17.5695C29.2731 18.8426 30.5534 19.9795 31.9667 20.9017V23.4887H33.3438V19.2633V17.2161C33.3437 15.5028 32.8051 13.9161 31.8899 12.6126Z" fill="#F9B54C"/>
<path d="M21.4931 23.3807C21.9134 23.3807 22.2542 23.0399 22.2542 22.6195C22.2542 22.1992 21.9134 21.8584 21.4931 21.8584C21.0727 21.8584 20.7319 22.1992 20.7319 22.6195C20.7319 23.0399 21.0727 23.3807 21.4931 23.3807Z" fill="#59595B"/>
<path d="M28.6674 23.3807C29.0877 23.3807 29.4285 23.0399 29.4285 22.6195C29.4285 22.1992 29.0877 21.8584 28.6674 21.8584C28.247 21.8584 27.9062 22.1992 27.9062 22.6195C27.9062 23.0399 28.247 23.3807 28.6674 23.3807Z" fill="#272525"/>
<path d="M25.0805 28.8568C23.7091 28.8568 22.5938 27.7413 22.5938 26.3701C22.5938 26.1376 22.7821 25.9492 23.0146 25.9492C23.2472 25.9492 23.4355 26.1376 23.4355 26.3701C23.4355 27.2771 24.1736 28.015 25.0805 28.015C25.9874 28.015 26.7254 27.277 26.7254 26.3701C26.7254 26.1376 26.9138 25.9492 27.1463 25.9492C27.3788 25.9492 27.5672 26.1376 27.5672 26.3701C27.5674 27.7414 26.4519 28.8568 25.0805 28.8568Z" fill="#FD8469"/>
<path d="M27.5685 26.3701C27.5685 26.1376 27.3801 25.9492 27.1476 25.9492C26.915 25.9492 26.7267 26.1376 26.7267 26.3701C26.7267 27.2445 26.0403 27.9599 25.1782 28.0102V28.852C26.5047 28.8006 27.5685 27.7086 27.5685 26.3701Z" fill="#FC6F58"/>
<path d="M33.4532 20.0547H16.7866V13.8975C16.7866 12.3695 17.7583 11.0107 19.2043 10.5168L24.1099 8.84121C24.8729 8.58056 25.702 8.58564 26.4617 8.85605L31.078 10.4979C32.5021 11.0042 33.4533 12.3521 33.4533 13.8636L33.4532 20.0547Z" fill="#324A5E"/>
<path d="M33.4534 13.8628C33.4534 12.3513 32.5022 11.0033 31.0781 10.4969L26.4618 8.85504C26.0467 8.70738 25.6108 8.64176 25.1763 8.6525V20.0539H33.4534V13.8628Z" fill="#2B3B4E"/>
<path d="M16.4492 20.79C16.4492 19.1165 20.4062 17.7598 25.2876 17.7598C30.1689 17.7598 34.126 19.1165 34.126 20.79H16.4492Z" fill="#2B3B4E"/>
<path d="M25.2903 17.7607C25.2528 17.7607 25.2157 17.7616 25.1782 17.7617V20.791H34.1287C34.1287 19.1175 30.1717 17.7607 25.2903 17.7607Z" fill="#20303F"/>
<path d="M31.8343 32.29H29.2271C29.2271 34.58 27.3707 36.4361 25.0811 36.4361C22.7914 36.4361 20.935 34.5797 20.935 32.29H18.3279C15.188 32.29 12.6426 34.8354 12.6426 37.9754V47.2601C16.3527 49.4407 20.6747 50.6926 25.2896 50.6926C29.7326 50.6926 33.904 49.5321 37.5196 47.5V37.9754C37.5196 34.8355 34.9741 32.29 31.8343 32.29Z" fill="#31BAFD"/>
<path d="M31.8351 32.29H29.2279C29.2279 34.5475 27.4233 36.3823 25.1782 36.4338V50.6907C25.2157 50.6909 25.2528 50.6926 25.2903 50.6926C29.7333 50.6926 33.9047 49.5321 37.5203 47.5V37.9754C37.5204 34.8355 34.9749 32.29 31.8351 32.29Z" fill="#2B9ED8"/>
<path d="M19.7333 32.2901H18.3268C17.8539 32.2901 17.3947 32.3489 16.9556 32.4576V49.2672C19.5621 50.1893 22.3663 50.6927 25.2889 50.6927C28.2116 50.6927 31.0154 50.1876 33.6222 49.2654V32.5789C33.0596 32.3926 32.4585 32.29 31.8335 32.29H30.8444V42.3594H19.7333V32.2901Z" fill="#324A5E"/>
<path d="M31.835 32.29H30.8459V42.3593H25.1782V50.6914C25.2156 50.6916 25.2528 50.6926 25.2903 50.6926C28.2131 50.6926 31.0169 50.1875 33.6236 49.2653V32.5788C33.061 32.3924 32.4602 32.29 31.835 32.29Z" fill="#2B3B4E"/>
<path d="M46.5751 29.8595H47.51V27.0817H46.5751C46.481 26.7685 46.3565 26.4683 46.2041 26.1853L46.865 25.5243L44.9009 23.5602L44.2399 24.2211C43.9569 24.0686 43.6567 23.9439 43.3435 23.8501V22.915H40.5657V23.8499C40.2524 23.944 39.9522 24.0685 39.6692 24.2209L39.0083 23.5602L37.0441 25.5243L37.7051 26.1853C37.5525 26.4683 37.4281 26.7685 37.3341 27.0817H36.3989V29.8595H37.3338C37.4279 30.1728 37.5523 30.4729 37.7048 30.756L37.0438 31.4169L39.0083 33.3811L39.6692 32.7201C39.9522 32.8727 40.2524 32.9971 40.5657 33.0911V34.0262H43.3435V33.0913C43.6567 32.9972 43.9569 32.8728 44.2399 32.7203L44.9009 33.3813L46.865 31.4171L46.2041 30.7562C46.3565 30.4729 46.481 30.1728 46.5751 29.8595ZM41.9544 30.8828C40.6221 30.8828 39.5421 29.8028 39.5421 28.4705C39.5421 27.1382 40.6221 26.0582 41.9544 26.0582C43.2867 26.0582 44.3667 27.1382 44.3667 28.4705C44.3667 29.8028 43.2867 30.8828 41.9544 30.8828Z" fill="white"/>
<path d="M46.577 29.8595H47.5118V27.0817H46.577C46.4828 26.7685 46.3584 26.4683 46.206 26.1853L46.8669 25.5243L44.9027 23.5602L44.2418 24.2211C43.9588 24.0686 43.6586 23.9441 43.3453 23.8501V22.915H41.9004V26.0611C41.9192 26.0606 41.9376 26.0583 41.9564 26.0583C43.2888 26.0583 44.3687 27.1383 44.3687 28.4706C44.3687 29.8029 43.2888 30.8829 41.9564 30.8829C41.9376 30.8829 41.9192 30.8806 41.9004 30.8801V34.0262H43.3453V33.0913C43.6586 32.9972 43.9588 32.8728 44.2418 32.7203L44.9027 33.3813L46.8669 31.4171L46.206 30.7562C46.3584 30.4729 46.483 30.1728 46.577 29.8595Z" fill="#E6F3FF"/>
</g>
<defs>
<clipPath id="clip0_1302_62302">
<rect width="50" height="50" fill="white" transform="translate(0.289062 0.693359)"/>
</clipPath>
</defs>
</svg>
