<svg width="51" height="51" viewBox="0 0 51 51" fill="none" xmlns="http://www.w3.org/2000/svg">
<path d="M22.9409 21.6807C22.9409 21.6807 22.7339 21.083 22.2847 20.876C21.8394 20.6689 21.0933 20.6377 21.0933 20.6377L19.8433 35.4229L20.8589 42.7197C20.8589 42.7197 21.1558 43.583 21.9331 43.6143C22.7065 43.6455 29.1479 43.6143 29.7144 43.6143C30.2808 43.6143 30.4604 42.8682 30.4878 42.54C30.519 42.2119 30.5073 41.6611 30.5073 41.6611L33.2573 41.6494C33.2573 41.6494 33.4175 42.8213 33.1519 43.5596C32.9214 44.2002 32.7144 44.7119 32.7183 44.9307C32.7222 45.2432 33.1362 45.5557 33.6128 45.5283C34.0894 45.4971 34.8042 44.8721 35.2808 44.4854C35.7573 44.0986 43.3979 44.1885 43.3979 44.1885C43.3979 44.1885 43.7651 44.8682 44.1753 45.2783C44.4214 45.5244 44.8198 45.6455 45.1792 45.6455C45.5386 45.6455 45.9839 45.1689 45.894 44.8408C45.8042 44.5127 45.398 43.7588 45.3276 43.0244C45.2964 42.6924 45.3354 41.7666 45.4995 41.6143C45.5386 41.5791 46.1323 41.5986 46.687 41.54C47.6323 41.4424 48.5776 40.2197 48.6948 39.2666C48.8159 38.3135 48.7261 35.3018 48.7261 35.3018L22.9409 21.6807Z" fill="#B3AFAF"/>
<path d="M20.6079 38.2354H48.7446C48.7446 38.2354 48.811 39.0244 48.6743 39.5322C48.6018 39.8018 48.4785 40.055 48.311 40.2783L20.7681 40.2744L20.6079 38.2354Z" fill="#9A9A9A"/>
<path d="M10.7397 36.958L4.78271 38.8018L1.80615 37.7744C1.80615 37.7744 1.91162 32.1729 1.94678 31.6065C1.98193 31.0401 2.12256 30.544 2.65771 30.1885C3.18896 29.833 4.67725 28.9463 4.67725 28.9463C4.67725 28.9463 9.25147 21.6065 9.64209 21.0752C10.0327 20.544 10.5132 19.8955 11.6499 19.7901C12.7866 19.6846 19.8022 19.7705 20.439 19.8057C21.0757 19.8408 21.5522 20.1299 21.5522 21.5127C21.5522 22.8955 21.5171 33.4502 21.4819 33.9815C21.4468 34.5127 18.7866 36.4619 18.7866 36.4619L10.7397 36.958Z" fill="#E0E0E0"/>
<path d="M19.4116 43.6738C19.4116 43.6738 19.9819 43.6895 20.3765 43.6348C20.771 43.5801 21.3647 43.1855 21.3921 42.252C21.4077 41.6973 21.4819 33.9824 21.4819 33.9824L10.8569 34.0059L7.41943 37.7676L1.80615 37.7754C1.80615 37.7754 1.78271 39.9824 1.79834 40.5723C1.81396 41.166 4.86865 42.459 4.86865 42.459L19.4116 43.6738Z" fill="#DC0D28"/>
<path d="M1.79809 40.5719H8.19653C8.19653 40.5719 9.56762 37.8375 13.509 37.8844C19.2981 37.9547 19.4153 43.6695 19.4153 43.6695H4.33715C3.4895 43.6695 2.27856 43.3883 1.96997 42.318C1.70825 41.4195 1.79809 40.5719 1.79809 40.5719Z" fill="#B10A1B"/>
<path d="M5.7157 30.4829C5.7157 30.4829 5.7157 29.8462 5.29774 29.8227C4.87977 29.7993 4.41883 30.061 4.00086 30.4165C3.55945 30.7915 3.3407 31.1313 3.25477 31.4282C3.12195 31.8696 3.23133 32.2642 3.91492 32.2837C4.75086 32.311 18.0243 32.2251 18.6376 32.1743C19.4071 32.1079 19.868 31.7798 19.8446 31.2056C19.8251 30.6548 19.4266 30.479 17.7782 30.4595C16.1298 30.4399 5.7157 30.4829 5.7157 30.4829Z" fill="white"/>
<path d="M1.93115 32.3449C1.93115 32.3449 5.91943 32.2199 6.00537 32.3176C6.12646 32.4621 6.1499 34.3449 6.10693 34.6301C6.06396 34.9152 5.68896 35.1144 5.22803 35.134C4.76709 35.1535 1.86475 35.2004 1.86475 35.2004L1.93115 32.3449Z" fill="#FDEDC5"/>
<path d="M18.3526 29.7991C18.9698 29.7991 19.1886 29.096 19.1886 28.6116V22.4827C19.1886 21.9983 18.88 21.7366 17.9151 21.6897C16.9464 21.6468 12.5323 21.6975 12.048 21.7132C11.3019 21.7366 10.794 22.0647 10.1144 23.01C9.67295 23.6233 6.9503 28.1311 6.73155 28.5022C6.5128 28.8772 6.24717 29.8655 7.3917 29.885C8.5753 29.9085 18.3526 29.7991 18.3526 29.7991Z" fill="#5F6369"/>
<path d="M7.9585 28.7669H17.8022C18.0015 28.7669 18.1772 28.5481 18.1772 28.2825C18.1772 28.0169 18.1929 23.8684 18.2007 23.6223C18.2241 22.9426 17.7163 22.7864 17.2788 22.8098C16.8374 22.8333 12.3921 22.8176 12.1304 22.8294C11.6265 22.8528 11.1265 23.5286 10.689 24.1965C10.1616 25.0051 7.9585 28.7669 7.9585 28.7669Z" fill="#AFE3FB"/>
<path d="M8.10845 29.4941C8.15141 30.4824 9.73345 31.2949 10.1319 31.3184C10.5264 31.3418 10.7686 30.5723 10.8116 29.5371C10.8545 28.502 10.4405 27.6465 10.1084 27.6465C9.78032 27.6465 8.07329 28.6582 8.10845 29.4941Z" fill="#5F6369"/>
<path d="M8.45381 44.2948C8.48506 46.2479 10.0397 49.0565 13.4226 49.076C16.8054 49.0956 18.5632 46.5018 18.4538 43.8417C18.3444 41.1385 16.2468 39.2284 13.2272 39.3143C10.403 39.4002 8.41084 41.5956 8.45381 44.2948Z" fill="#4E433D"/>
<path d="M10.8719 44.182C10.8875 45.2094 11.7039 46.6937 13.4851 46.7055C15.2664 46.7172 16.1258 45.4281 16.0711 44.0258C16.0125 42.6 14.8758 41.5375 13.3836 41.5609C11.8992 41.5805 10.8523 42.7562 10.8719 44.182Z" fill="#C8C8C8"/>
<path d="M34.2351 44.2948C34.2663 46.2479 35.821 49.0565 39.2038 49.076C42.5866 49.0956 44.3444 46.5018 44.2351 43.8417C44.1257 41.1385 42.028 39.2284 39.0085 39.3143C36.1843 39.4002 34.1921 41.5956 34.2351 44.2948Z" fill="#4E433D"/>
<path d="M36.6531 44.182C36.6687 45.2094 37.4851 46.6937 39.2664 46.7055C41.0437 46.7172 41.907 45.4281 41.8523 44.0258C41.7937 42.6 40.657 41.5375 39.1648 41.5609C37.6804 41.5805 36.6336 42.7562 36.6531 44.182Z" fill="#C8C8C8"/>
<path d="M22.5034 11.873C22.5034 10.8496 22.9526 10.4395 23.7729 10.4824C24.5933 10.5215 47.0737 10.4004 47.8081 10.4004C48.5425 10.4004 48.8315 11.1777 48.8315 11.627C48.8315 12.0762 48.6909 34.8652 48.7222 35.3066C48.7495 35.748 48.6284 36.3613 47.8511 36.4434C47.0737 36.5254 24.019 36.4824 23.5269 36.4434C23.0347 36.4043 22.4214 35.9941 22.4214 35.4199C22.4214 34.8418 22.5034 12.4043 22.5034 11.873Z" fill="#D16E1D"/>
<path d="M24.5513 12.7715C24.5513 13.3027 24.3872 33.2051 24.3872 33.6973C24.3872 34.1895 24.6333 34.7637 25.2896 34.7637C25.9458 34.7637 46.0903 34.8027 46.5005 34.7637C46.9106 34.7246 47.1567 34.4785 47.1958 33.8223C47.2349 33.166 47.2349 13.1855 47.2349 12.5293C47.2349 11.873 46.5786 11.834 45.8833 11.834C45.188 11.834 25.4927 11.873 25.2036 11.916C24.9185 11.9512 24.5513 12.2402 24.5513 12.7715Z" fill="#F5B03A"/>
<path d="M29.3726 35.459C29.3492 28.252 29.2984 11.4434 29.3804 10.9863L29.9585 11.0918L30.5406 11.1621C30.4859 11.8066 30.5132 26.041 30.5445 35.4551L29.3726 35.459Z" fill="#D16E1D"/>
<path d="M35.3477 11.0527H36.5195V35.498H35.3477V11.0527Z" fill="#D16E1D"/>
<path d="M41.2622 11.0723H42.4341V35.3965H41.2622V11.0723Z" fill="#D16E1D"/>
</svg>
