<svg width="51" height="51" viewBox="0 0 51 51" fill="none" xmlns="http://www.w3.org/2000/svg">
<path d="M25.2891 6.16211C14.5023 6.16211 5.75781 14.9066 5.75781 25.6934H44.8203C44.8203 14.9066 36.0758 6.16211 25.2891 6.16211Z" fill="#FF786E"/>
<path d="M25.2891 45.2246C36.0758 45.2246 44.8203 36.4801 44.8203 25.6934H5.75781C5.75781 36.4801 14.5023 45.2246 25.2891 45.2246Z" fill="#BE5652"/>
<path d="M45.3419 33.9464C44.113 33.6183 41.8536 32.4105 40.1763 28.0238C37.7567 21.6956 35.4763 20.473 28.6872 19.4316C28.6872 19.4316 26.8927 15.6855 26.6208 13.0503C27.0349 12.48 27.0349 11.0339 26.7974 10.423C25.7575 7.74485 23.6732 7.26204 21.6177 5.0722C20.8247 3.97845 19.9192 3.0722 18.338 3.03938C17.6872 3.0261 16.713 3.10579 16.2935 3.7011C15.9474 4.19173 15.9724 4.85345 16.0224 5.42298C16.0841 6.12376 16.256 8.79954 16.013 10.8308C15.8857 11.8995 15.9724 12.7402 16.3107 13.7902C16.5286 14.4691 16.9716 14.9714 17.5857 15.2699C18.5708 16.5472 20.0364 18.9917 19.1677 21.3878C19.1677 21.3878 14.7857 27.4902 13.12 37.1699C12.0021 43.6659 11.0825 45.6831 9.46847 46.0933C8.72159 46.2831 8.67472 47.3527 9.41065 47.5839C11.7497 48.3191 15.8091 47.2339 21.5036 37.2355C31.0052 20.5519 31.1138 28.7636 32.2669 32.0581C33.42 35.3527 34.5646 40.9878 40.5763 38.4144C43.7052 37.0745 45.1083 35.9511 45.7341 35.1824C46.0841 34.7495 45.8794 34.0894 45.3419 33.9464ZM17.6263 3.86516C18.3982 3.6386 19.3708 3.90579 19.9825 4.35813C21.956 5.81829 21.6669 8.65501 22.095 10.8003C22.095 10.8003 22.4075 12.3706 22.3911 12.3831C22.3911 12.3831 21.3802 10.7308 21.263 10.5753C20.8396 10.0144 20.3716 9.49016 19.8942 8.97532C19.2896 8.32376 18.6552 7.6972 18.0888 7.01751C17.6982 6.54798 17.3396 6.05345 17.045 5.50735C16.7091 4.88313 16.8794 4.08391 17.6263 3.86516Z" fill="#EFEAE0"/>
<path d="M36.2368 38.7517C33.8509 37.7126 33.0595 34.329 32.2642 32.0571C31.111 28.7626 31.0024 20.5509 21.5009 37.2345C18.4032 42.6735 15.7907 45.4712 13.6743 46.7767C16.486 46.3962 21.2376 45.9899 23.0173 47.2618C23.8071 47.8259 24.1204 46.4446 24.0595 44.4009C25.2087 43.8243 28.0712 42.5806 32.1212 42.1407C37.4626 41.5603 36.2368 38.7681 36.2368 38.7681C36.2368 38.7681 36.2376 38.761 36.2368 38.7517Z" fill="#CCCCCC"/>
</svg>
