<svg width="51" height="51" viewBox="0 0 51 51" fill="none" xmlns="http://www.w3.org/2000/svg">
<g clip-path="url(#clip0_1302_62503)">
<g clip-path="url(#clip1_1302_62503)">
<path d="M25.2891 50.6934C39.0962 50.6934 50.2891 39.5005 50.2891 25.6934C50.2891 11.8862 39.0962 0.693359 25.2891 0.693359C11.4819 0.693359 0.289062 11.8862 0.289062 25.6934C0.289062 39.5005 11.4819 50.6934 25.2891 50.6934Z" fill="#E6F3FF"/>
<path d="M26.7611 45.5547H23.6421L23.8658 50.6861H26.6119L26.7611 45.5547Z" fill="white"/>
<path d="M17.7144 23.9046H33.5757V13.8833C33.5757 12.4294 32.9982 11.0351 31.9702 10.007C30.9421 8.97896 29.5478 8.40139 28.0939 8.40137H23.1962C21.7423 8.40139 20.348 8.97896 19.32 10.007C18.2919 11.0351 17.7144 12.4294 17.7144 13.8833V23.9046Z" fill="#3F3F3F"/>
<path d="M39.375 50.6831C39.375 50.6831 42.3657 40.2431 31.695 39.5752C29.315 41.1554 27.2761 42.2474 24.9843 42.2427H25.0775C22.7858 42.2474 20.7468 41.1554 18.3669 39.5752C9.41933 39.5752 10.9106 50.6831 10.9106 50.6831" fill="#EA5A47"/>
<path d="M32.2478 39.6104C29.9269 41.1576 28.532 42.0262 25.5576 42.4574C35.1215 42.7586 35.1215 47.7584 35.6795 50.687H39.423C39.423 50.687 41.0337 39.6104 32.2478 39.6104Z" fill="#D22F27"/>
<path d="M31.8414 40.2474C32.6372 40.2408 33.4309 40.3309 34.205 40.5158C28.6202 47.4577 20.1723 46.0633 16.1533 40.5158C16.9249 40.3309 17.7161 40.2407 18.5095 40.2474C20.8657 41.8058 22.8789 42.8944 25.1307 42.9242H25.2202C27.472 42.8944 29.4926 41.8058 31.8414 40.2474Z" fill="#3F3F3F"/>
<path d="M26.7611 45.5547H23.6421L23.8658 50.6861H26.6119L26.7611 45.5547Z" fill="white"/>
<path d="M33.6259 28.262C33.6319 26.6731 33.3197 25.0991 32.7077 23.6328L17.3581 23.9068C16.8201 25.2956 16.5465 26.7727 16.5513 28.2621C16.5509 28.9542 16.6089 29.6451 16.7248 30.3274C17.5209 34.9982 20.8183 38.5118 25.37 38.5118C29.9218 38.5118 33.0253 34.6358 33.4359 30.4242C33.563 29.7105 33.6266 28.9869 33.6259 28.262Z" fill="#FCEA2B"/>
<path d="M29.6524 26.9356C29.6524 27.2305 29.565 27.5189 29.4011 27.7641C29.2373 28.0093 29.0044 28.2005 28.7319 28.3133C28.4594 28.4262 28.1595 28.4557 27.8702 28.3982C27.581 28.3407 27.3153 28.1986 27.1067 27.9901C26.8981 27.7815 26.7561 27.5158 26.6986 27.2265C26.641 26.9372 26.6706 26.6374 26.7834 26.3649C26.8963 26.0924 27.0874 25.8595 27.3327 25.6957C27.5779 25.5318 27.8662 25.4443 28.1612 25.4443C28.5566 25.4445 28.9359 25.6016 29.2155 25.8813C29.4951 26.1609 29.6523 26.5401 29.6524 26.9356Z" fill="black"/>
<path d="M23.6876 26.9356C23.6876 27.2305 23.6001 27.5189 23.4363 27.7641C23.2724 28.0093 23.0395 28.2005 22.767 28.3133C22.4945 28.4262 22.1947 28.4557 21.9054 28.3982C21.6161 28.3407 21.3504 28.1986 21.1419 27.9901C20.9333 27.7815 20.7913 27.5158 20.7337 27.2265C20.6762 26.9372 20.7057 26.6374 20.8186 26.3649C20.9315 26.0924 21.1226 25.8595 21.3678 25.6957C21.6131 25.5318 21.9014 25.4443 22.1963 25.4443C22.5918 25.4445 22.971 25.6016 23.2507 25.8813C23.5303 26.1609 23.6875 26.5401 23.6876 26.9356Z" fill="black"/>
<path d="M25.1789 34.3942C24.2838 34.3856 23.4033 34.1664 22.6085 33.7545C22.5209 33.7107 22.4428 33.6501 22.3786 33.5761C22.3145 33.5021 22.2655 33.4163 22.2346 33.3233C22.2036 33.2304 22.1912 33.1323 22.1982 33.0347C22.2051 32.937 22.2312 32.8416 22.275 32.754C22.3188 32.6664 22.3794 32.5883 22.4534 32.5242C22.5274 32.46 22.6133 32.411 22.7062 32.3801C22.7991 32.3491 22.8972 32.3367 22.9949 32.3437C23.0926 32.3506 23.188 32.3767 23.2755 32.4205C23.8604 32.736 24.5144 32.9011 25.1789 32.9011C25.8434 32.9011 26.4975 32.736 27.0823 32.4205C27.1699 32.3767 27.2652 32.3506 27.3629 32.3437C27.4606 32.3367 27.5587 32.3491 27.6516 32.3801C27.7445 32.411 27.8304 32.46 27.9044 32.5242C27.9784 32.5883 28.039 32.6664 28.0828 32.754C28.1266 32.8416 28.1527 32.937 28.1597 33.0347C28.1666 33.1323 28.1542 33.2304 28.1233 33.3233C28.0923 33.4163 28.0434 33.5021 27.9792 33.5761C27.915 33.6501 27.8369 33.7107 27.7493 33.7545C26.9546 34.1664 26.074 34.3856 25.1789 34.3942Z" fill="black"/>
<path d="M11.0531 49.9435C11.0531 49.9435 9.84516 42.0697 16.1532 40.5188C16.9247 40.3338 17.716 40.2437 18.5094 40.2503C20.8656 41.8087 22.8788 42.8973 25.1306 42.9272H25.22C27.4718 42.8973 29.4925 41.8087 31.8412 40.2503C32.6371 40.2437 33.4308 40.3338 34.2049 40.5188C40.5054 42.0771 39.2975 49.9435 39.2975 49.9435" stroke="black" stroke-width="1.49126" stroke-linecap="round" stroke-linejoin="round"/>
<path d="M16.1519 40.5186C20.1708 46.066 28.6188 47.4604 34.2035 40.5186" stroke="black" stroke-width="1.49126" stroke-linecap="round" stroke-linejoin="round"/>
<path d="M23.9439 50.6969C23.8459 50.6969 23.749 50.6777 23.6585 50.6402C23.568 50.6028 23.4858 50.5479 23.4165 50.4786C23.3473 50.4094 23.2923 50.3271 23.2549 50.2367C23.2174 50.1462 23.1982 50.0492 23.1982 49.9512V45.1782C23.1982 44.9805 23.2768 44.7908 23.4166 44.651C23.5565 44.5112 23.7461 44.4326 23.9439 44.4326C24.1416 44.4326 24.3313 44.5112 24.4711 44.651C24.6109 44.7908 24.6895 44.9805 24.6895 45.1782V49.9512C24.6896 50.0492 24.6703 50.1462 24.6329 50.2367C24.5954 50.3271 24.5405 50.4094 24.4712 50.4786C24.402 50.5479 24.3198 50.6028 24.2293 50.6402C24.1388 50.6777 24.0418 50.6969 23.9439 50.6969Z" fill="black"/>
<path d="M26.5952 50.6968C26.4973 50.6968 26.4003 50.6776 26.3098 50.6401C26.2193 50.6027 26.1371 50.5478 26.0679 50.4785C25.9986 50.4093 25.9437 50.327 25.9062 50.2366C25.8688 50.1461 25.8496 50.0491 25.8496 49.9511V45.1548C25.8496 44.9571 25.9282 44.7674 26.068 44.6276C26.2078 44.4877 26.3975 44.4092 26.5952 44.4092C26.793 44.4092 26.9826 44.4877 27.1225 44.6276C27.2623 44.7674 27.3409 44.9571 27.3409 45.1548V49.9511C27.3409 50.0491 27.3217 50.1461 27.2842 50.2366C27.2468 50.327 27.1919 50.4093 27.1226 50.4785C27.0534 50.5478 26.9711 50.6027 26.8806 50.6401C26.7902 50.6776 26.6932 50.6968 26.5952 50.6968Z" fill="black"/>
<path d="M33.0523 24.6536H17.1909C16.9932 24.6536 16.8035 24.575 16.6637 24.4352C16.5239 24.2953 16.4453 24.1057 16.4453 23.9079V13.887C16.4472 12.2359 17.104 10.6529 18.2715 9.48537C19.439 8.31783 21.022 7.66107 22.6732 7.65918H27.5708C29.2218 7.66111 30.8047 8.31791 31.9721 9.48546C33.1395 10.653 33.7962 12.236 33.7979 13.887V23.9083C33.7978 24.106 33.7192 24.2955 33.5794 24.4353C33.4395 24.5751 33.2499 24.6536 33.0523 24.6536ZM17.9366 23.1623H32.3066V13.887C32.3053 12.6314 31.8059 11.4275 30.9181 10.5395C30.0303 9.65153 28.8265 9.15198 27.5708 9.15044H22.6732C21.4174 9.15192 20.2135 9.65143 19.3255 10.5394C18.4376 11.4274 17.9381 12.6313 17.9366 13.887V23.1623Z" fill="black"/>
<path d="M29.6524 26.9288C29.6524 27.2237 29.565 27.512 29.4011 27.7573C29.2373 28.0025 29.0044 28.1936 28.7319 28.3065C28.4594 28.4194 28.1595 28.4489 27.8702 28.3914C27.581 28.3338 27.3153 28.1918 27.1067 27.9832C26.8981 27.7747 26.7561 27.509 26.6986 27.2197C26.641 26.9304 26.6706 26.6306 26.7834 26.3581C26.8963 26.0856 27.0874 25.8527 27.3327 25.6888C27.5779 25.525 27.8662 25.4375 28.1612 25.4375C28.5566 25.4376 28.9359 25.5948 29.2155 25.8744C29.4951 26.1541 29.6523 26.5333 29.6524 26.9288Z" fill="black"/>
<path d="M23.6827 26.9288C23.6827 27.2237 23.5952 27.512 23.4314 27.7573C23.2675 28.0025 23.0346 28.1936 22.7621 28.3065C22.4896 28.4194 22.1898 28.4489 21.9005 28.3914C21.6112 28.3338 21.3455 28.1918 21.137 27.9832C20.9284 27.7747 20.7864 27.509 20.7289 27.2197C20.6713 26.9304 20.7008 26.6306 20.8137 26.3581C20.9266 26.0856 21.1177 25.8527 21.363 25.6888C21.6082 25.525 21.8965 25.4375 22.1915 25.4375C22.5869 25.4376 22.9661 25.5948 23.2458 25.8744C23.5254 26.1541 23.6826 26.5333 23.6827 26.9288Z" fill="black"/>
<path d="M25.1789 34.3893C24.2838 34.3806 23.4033 34.1615 22.6085 33.7497C22.4316 33.6612 22.2971 33.5061 22.2346 33.3185C22.172 33.1308 22.1866 32.926 22.275 32.7491C22.3635 32.5722 22.5186 32.4377 22.7062 32.3752C22.8939 32.3126 23.0987 32.3272 23.2756 32.4157C23.8604 32.7311 24.5144 32.8962 25.1789 32.8962C25.8434 32.8962 26.4975 32.7311 27.0823 32.4157C27.2592 32.3272 27.464 32.3126 27.6516 32.3752C27.8392 32.4377 27.9943 32.5722 28.0828 32.7491C28.1713 32.926 28.1858 33.1308 28.1233 33.3185C28.0607 33.5061 27.9262 33.6612 27.7493 33.7497C26.9545 34.1615 26.074 34.3806 25.1789 34.3893Z" fill="black"/>
<path d="M25.1749 39.2598C20.1019 39.2598 15.9747 34.1845 15.9747 27.946C15.9712 26.5667 16.1774 25.1949 16.5861 23.8775C16.6138 23.7824 16.6603 23.6937 16.7228 23.6167C16.7853 23.5397 16.8624 23.4759 16.9498 23.4291C17.0373 23.3823 17.1331 23.3534 17.2318 23.3441C17.3305 23.3348 17.4301 23.3453 17.5247 23.3749C17.6193 23.4045 17.7071 23.4527 17.7828 23.5167C17.8586 23.5807 17.9208 23.6591 17.9659 23.7474C18.011 23.8357 18.038 23.9321 18.0454 24.031C18.0528 24.1298 18.0404 24.2292 18.0089 24.3232C17.6453 25.4963 17.4621 26.7179 17.4657 27.946C17.4657 33.3624 20.9237 37.7685 25.1747 37.7685C29.4257 37.7685 32.8831 33.3624 32.8831 27.9461C32.8839 27.1529 32.8086 26.3613 32.6581 25.5825C32.5762 25.1614 32.4714 24.7452 32.3443 24.3356C32.2856 24.1467 32.3043 23.9423 32.3963 23.7672C32.4883 23.5922 32.6461 23.4608 32.835 23.4021C33.0238 23.3434 33.2283 23.3621 33.4033 23.4541C33.5784 23.5462 33.7097 23.704 33.7684 23.8928C33.9115 24.3544 34.0294 24.8234 34.1215 25.2978C34.2904 26.1704 34.375 27.0572 34.3742 27.946C34.3744 34.1845 30.2472 39.2598 25.1749 39.2598Z" fill="black"/>
<path d="M11.6362 39.893C13.0585 38.9444 14.6784 38.3327 16.3726 38.1045" stroke="black" stroke-width="1.49126" stroke-linecap="round" stroke-linejoin="round"/>
<path d="M38.9 39.893C37.4777 38.9444 35.8578 38.3327 34.1636 38.1045" stroke="black" stroke-width="1.49126" stroke-linecap="round" stroke-linejoin="round"/>
<path d="M29.6524 26.9356C29.6524 27.2305 29.565 27.5189 29.4011 27.7641C29.2373 28.0093 29.0044 28.2005 28.7319 28.3133C28.4594 28.4262 28.1595 28.4557 27.8702 28.3982C27.581 28.3407 27.3153 28.1986 27.1067 27.9901C26.8981 27.7815 26.7561 27.5158 26.6986 27.2265C26.641 26.9372 26.6706 26.6374 26.7834 26.3649C26.8963 26.0924 27.0874 25.8595 27.3327 25.6957C27.5779 25.5318 27.8662 25.4443 28.1612 25.4443C28.5566 25.4445 28.9359 25.6016 29.2155 25.8813C29.4951 26.1609 29.6523 26.5401 29.6524 26.9356Z" fill="black"/>
<path d="M23.6876 26.9356C23.6876 27.2305 23.6001 27.5189 23.4363 27.7641C23.2724 28.0093 23.0395 28.2005 22.767 28.3133C22.4945 28.4262 22.1947 28.4557 21.9054 28.3982C21.6161 28.3407 21.3504 28.1986 21.1419 27.9901C20.9333 27.7815 20.7913 27.5158 20.7337 27.2265C20.6762 26.9372 20.7057 26.6374 20.8186 26.3649C20.9315 26.0924 21.1226 25.8595 21.3678 25.6957C21.6131 25.5318 21.9014 25.4443 22.1963 25.4443C22.5918 25.4445 22.971 25.6016 23.2507 25.8813C23.5303 26.1609 23.6875 26.5401 23.6876 26.9356Z" fill="black"/>
<path d="M25.1789 34.3942C24.2838 34.3856 23.4033 34.1664 22.6085 33.7545C22.5209 33.7107 22.4428 33.6501 22.3786 33.5761C22.3145 33.5021 22.2655 33.4163 22.2346 33.3233C22.2036 33.2304 22.1912 33.1323 22.1982 33.0347C22.2051 32.937 22.2312 32.8416 22.275 32.754C22.3188 32.6664 22.3794 32.5883 22.4534 32.5242C22.5274 32.46 22.6133 32.411 22.7062 32.3801C22.7991 32.3491 22.8972 32.3367 22.9949 32.3437C23.0926 32.3506 23.188 32.3767 23.2755 32.4205C23.8604 32.736 24.5144 32.9011 25.1789 32.9011C25.8434 32.9011 26.4975 32.736 27.0823 32.4205C27.1699 32.3767 27.2652 32.3506 27.3629 32.3437C27.4606 32.3367 27.5587 32.3491 27.6516 32.3801C27.7445 32.411 27.8304 32.46 27.9044 32.5242C27.9784 32.5883 28.039 32.6664 28.0828 32.754C28.1266 32.8416 28.1527 32.937 28.1597 33.0347C28.1666 33.1323 28.1542 33.2304 28.1233 33.3233C28.0923 33.4163 28.0434 33.5021 27.9792 33.5761C27.915 33.6501 27.8369 33.7107 27.7493 33.7545C26.9546 34.1664 26.074 34.3856 25.1789 34.3942Z" fill="black"/>
<path d="M11.0531 49.9435C11.0531 49.9435 9.84516 42.0697 16.1532 40.5188C16.9247 40.3338 17.716 40.2437 18.5094 40.2503C20.8656 41.8087 22.8788 42.8973 25.1306 42.9272H25.22C27.4718 42.8973 29.4925 41.8087 31.8412 40.2503C32.6371 40.2437 33.4308 40.3338 34.2049 40.5188C40.5054 42.0771 39.2975 49.9435 39.2975 49.9435" stroke="black" stroke-width="1.49126" stroke-linecap="round" stroke-linejoin="round"/>
<path d="M16.1519 40.5186C20.1708 46.066 28.6188 47.4604 34.2035 40.5186" stroke="black" stroke-width="1.49126" stroke-linecap="round" stroke-linejoin="round"/>
<path d="M23.9439 50.6969C23.8459 50.6969 23.749 50.6777 23.6585 50.6402C23.568 50.6028 23.4858 50.5479 23.4165 50.4786C23.3473 50.4094 23.2923 50.3271 23.2549 50.2367C23.2174 50.1462 23.1982 50.0492 23.1982 49.9512V45.1782C23.1982 44.9805 23.2768 44.7908 23.4166 44.651C23.5565 44.5112 23.7461 44.4326 23.9439 44.4326C24.1416 44.4326 24.3313 44.5112 24.4711 44.651C24.6109 44.7908 24.6895 44.9805 24.6895 45.1782V49.9512C24.6896 50.0492 24.6703 50.1462 24.6329 50.2367C24.5954 50.3271 24.5405 50.4094 24.4712 50.4786C24.402 50.5479 24.3198 50.6028 24.2293 50.6402C24.1388 50.6777 24.0418 50.6969 23.9439 50.6969Z" fill="black"/>
<path d="M26.5952 50.6968C26.4973 50.6968 26.4003 50.6776 26.3098 50.6401C26.2193 50.6027 26.1371 50.5478 26.0679 50.4785C25.9986 50.4093 25.9437 50.327 25.9062 50.2366C25.8688 50.1461 25.8496 50.0491 25.8496 49.9511V45.1548C25.8496 44.9571 25.9282 44.7674 26.068 44.6276C26.2078 44.4877 26.3975 44.4092 26.5952 44.4092C26.793 44.4092 26.9826 44.4877 27.1225 44.6276C27.2623 44.7674 27.3409 44.9571 27.3409 45.1548V49.9511C27.3409 50.0491 27.3217 50.1461 27.2842 50.2366C27.2468 50.327 27.1919 50.4093 27.1226 50.4785C27.0534 50.5478 26.9711 50.6027 26.8806 50.6401C26.7902 50.6776 26.6932 50.6968 26.5952 50.6968Z" fill="black"/>
<path d="M33.0523 24.6536H17.1909C16.9932 24.6536 16.8035 24.575 16.6637 24.4352C16.5239 24.2953 16.4453 24.1057 16.4453 23.9079V13.887C16.4472 12.2359 17.104 10.6529 18.2715 9.48537C19.439 8.31783 21.022 7.66107 22.6732 7.65918H27.5708C29.2218 7.66111 30.8047 8.31791 31.9721 9.48546C33.1395 10.653 33.7962 12.236 33.7979 13.887V23.9083C33.7978 24.106 33.7192 24.2955 33.5794 24.4353C33.4395 24.5751 33.2499 24.6536 33.0523 24.6536ZM17.9366 23.1623H32.3066V13.887C32.3053 12.6314 31.8059 11.4275 30.9181 10.5395C30.0303 9.65153 28.8265 9.15198 27.5708 9.15044H22.6732C21.4174 9.15192 20.2135 9.65143 19.3255 10.5394C18.4376 11.4274 17.9381 12.6313 17.9366 13.887V23.1623Z" fill="black"/>
<path d="M29.6524 26.9288C29.6524 27.2237 29.565 27.512 29.4011 27.7573C29.2373 28.0025 29.0044 28.1936 28.7319 28.3065C28.4594 28.4194 28.1595 28.4489 27.8702 28.3914C27.581 28.3338 27.3153 28.1918 27.1067 27.9832C26.8981 27.7747 26.7561 27.509 26.6986 27.2197C26.641 26.9304 26.6706 26.6306 26.7834 26.3581C26.8963 26.0856 27.0874 25.8527 27.3327 25.6888C27.5779 25.525 27.8662 25.4375 28.1612 25.4375C28.5566 25.4376 28.9359 25.5948 29.2155 25.8744C29.4951 26.1541 29.6523 26.5333 29.6524 26.9288Z" fill="black"/>
<path d="M23.6827 26.9288C23.6827 27.2237 23.5952 27.512 23.4314 27.7573C23.2675 28.0025 23.0346 28.1936 22.7621 28.3065C22.4896 28.4194 22.1898 28.4489 21.9005 28.3914C21.6112 28.3338 21.3455 28.1918 21.137 27.9832C20.9284 27.7747 20.7864 27.509 20.7289 27.2197C20.6713 26.9304 20.7008 26.6306 20.8137 26.3581C20.9266 26.0856 21.1177 25.8527 21.363 25.6888C21.6082 25.525 21.8965 25.4375 22.1915 25.4375C22.5869 25.4376 22.9661 25.5948 23.2458 25.8744C23.5254 26.1541 23.6826 26.5333 23.6827 26.9288Z" fill="black"/>
<path d="M25.1789 34.3893C24.2838 34.3806 23.4033 34.1615 22.6085 33.7497C22.4316 33.6612 22.2971 33.5061 22.2346 33.3185C22.172 33.1308 22.1866 32.926 22.275 32.7491C22.3635 32.5722 22.5186 32.4377 22.7062 32.3752C22.8939 32.3126 23.0987 32.3272 23.2756 32.4157C23.8604 32.7311 24.5144 32.8962 25.1789 32.8962C25.8434 32.8962 26.4975 32.7311 27.0823 32.4157C27.2592 32.3272 27.464 32.3126 27.6516 32.3752C27.8392 32.4377 27.9943 32.5722 28.0828 32.7491C28.1713 32.926 28.1858 33.1308 28.1233 33.3185C28.0607 33.5061 27.9262 33.6612 27.7493 33.7497C26.9545 34.1615 26.074 34.3806 25.1789 34.3893Z" fill="black"/>
<path d="M25.1749 39.2598C20.1019 39.2598 15.9747 34.1845 15.9747 27.946C15.9712 26.5667 16.1774 25.1949 16.5861 23.8775C16.6138 23.7824 16.6603 23.6937 16.7228 23.6167C16.7853 23.5397 16.8624 23.4759 16.9498 23.4291C17.0373 23.3823 17.1331 23.3534 17.2318 23.3441C17.3305 23.3348 17.4301 23.3453 17.5247 23.3749C17.6193 23.4045 17.7071 23.4527 17.7828 23.5167C17.8586 23.5807 17.9208 23.6591 17.9659 23.7474C18.011 23.8357 18.038 23.9321 18.0454 24.031C18.0528 24.1298 18.0404 24.2292 18.0089 24.3232C17.6453 25.4963 17.4621 26.7179 17.4657 27.946C17.4657 33.3624 20.9237 37.7685 25.1747 37.7685C29.4257 37.7685 32.8831 33.3624 32.8831 27.9461C32.8839 27.1529 32.8086 26.3613 32.6581 25.5825C32.5762 25.1614 32.4714 24.7452 32.3443 24.3356C32.2856 24.1467 32.3043 23.9423 32.3963 23.7672C32.4883 23.5922 32.6461 23.4608 32.835 23.4021C33.0238 23.3434 33.2283 23.3621 33.4033 23.4541C33.5784 23.5462 33.7097 23.704 33.7684 23.8928C33.9115 24.3544 34.0294 24.8234 34.1215 25.2978C34.2904 26.1704 34.375 27.0572 34.3742 27.946C34.3744 34.1845 30.2472 39.2598 25.1749 39.2598Z" fill="black"/>
<path d="M11.6362 39.893C13.0585 38.9444 14.6784 38.3327 16.3726 38.1045" stroke="black" stroke-width="1.49126" stroke-linecap="round" stroke-linejoin="round"/>
<path d="M38.9 39.893C37.4777 38.9444 35.8578 38.3327 34.1636 38.1045" stroke="black" stroke-width="1.49126" stroke-linecap="round" stroke-linejoin="round"/>
<path d="M25.272 30.6003C25.272 30.6003 26.1667 29.109 27.9562 30.6003C28.2337 30.8826 28.5981 31.0632 28.9908 31.1129" stroke="black" stroke-width="1.19301" stroke-linecap="round" stroke-linejoin="round"/>
<path d="M25.2579 30.6003C25.2579 30.6003 24.3631 29.109 22.5736 30.6003C22.2962 30.8826 21.9317 31.0632 21.5391 31.1129" stroke="black" stroke-width="1.19301" stroke-linecap="round" stroke-linejoin="round"/>
</g>
</g>
<defs>
<clipPath id="clip0_1302_62503">
<rect width="50" height="50" fill="white" transform="translate(0.289062 0.693359)"/>
</clipPath>
<clipPath id="clip1_1302_62503">
<rect x="0.289062" y="0.693359" width="50" height="50" rx="25" fill="white"/>
</clipPath>
</defs>
</svg>
