<svg width="51" height="51" viewBox="0 0 51 51" fill="none" xmlns="http://www.w3.org/2000/svg">
<g clip-path="url(#clip0_1302_62412)">
<path d="M50.2891 25.6934C50.2891 34.0004 46.2339 41.3627 39.9741 45.9296C35.8796 48.9217 30.8009 50.6934 25.2891 50.6934C24.541 50.6934 23.8324 50.654 23.1237 50.6146C18.478 50.2209 14.1867 48.528 10.604 45.9296C4.34418 41.3627 0.289062 34.0004 0.289062 25.6934C0.289062 11.8745 11.4702 0.693359 25.2891 0.693359C39.108 0.693359 50.2891 11.8745 50.2891 25.6934Z" fill="#FD8469"/>
<path d="M33.9498 25.8518C33.9498 31.6392 30.0915 37.5054 25.2884 37.5054C20.4852 37.5054 16.627 31.6392 16.627 25.8518C16.627 20.0251 20.5246 16.4818 25.2884 16.4818C30.0915 16.4424 33.9498 20.0251 33.9498 25.8518Z" fill="#2B3B4E"/>
<path d="M40.2097 43.1737C40.2097 44.0398 40.131 44.9847 39.9735 45.9296C35.879 48.9217 30.8003 50.6934 25.2884 50.6934C24.5404 50.6934 23.8318 50.654 23.1231 50.6146C18.4774 50.2209 14.1861 48.528 10.6034 45.9296C10.4459 44.9847 10.3672 44.0792 10.3672 43.1737C10.3672 35.0634 17.0601 32.8193 25.2884 32.8193C33.5168 32.8193 40.2097 35.0634 40.2097 43.1737Z" fill="#CED5E0"/>
<path d="M40.2111 43.1731C40.2111 44.0392 40.1324 44.9841 39.9749 45.929C35.8804 48.9211 30.8017 50.6928 25.2899 50.6928C24.5418 50.6928 23.8332 50.6534 23.1245 50.6141V38.3306L29.1481 33.0156C35.5261 33.6849 40.2111 36.3621 40.2111 43.1731Z" fill="#E6E9EE"/>
<path d="M29.6606 33.214C29.6212 33.1746 29.6212 33.1353 29.5818 33.0565C29.5818 33.0565 29.5031 33.4108 29.07 34.0014C27.1409 36.403 23.4401 36.403 21.511 34.0014C21.0779 33.4502 20.9991 33.0565 20.9991 33.0565C20.9598 33.0959 20.9598 33.1353 20.9204 33.1746C21.0779 32.899 21.1566 32.5841 21.196 32.2297L21.2747 30.9699L21.5503 27.0723H28.9519L29.3456 32.2297C29.3456 32.5053 29.4243 32.7809 29.5425 33.0171C29.6212 33.0959 29.6212 33.1746 29.6606 33.214Z" fill="#F9B54C"/>
<path d="M31.9812 24.6705C31.8237 24.5917 31.5875 24.5917 31.3906 24.6705C31.3906 24.5917 31.3906 24.513 31.3906 24.4342C31.3906 20.261 28.6741 18.7256 25.2882 18.7256C21.9024 18.7256 19.1859 20.261 19.1859 24.4342C19.1859 24.513 19.1859 24.5917 19.1859 24.6705C18.989 24.5917 18.7922 24.5917 18.5953 24.6705C18.0835 24.9461 18.0048 25.9697 18.4378 26.9146C18.7922 27.702 19.3434 28.2138 19.8552 28.2531C20.8394 31.2453 22.926 33.8437 25.2882 33.8437C27.6504 33.8437 29.7371 31.2453 30.7213 28.2138C31.1938 28.2138 31.7843 27.702 32.1386 26.8752C32.5717 25.9303 32.493 24.9461 31.9812 24.6705Z" fill="#FFD05B"/>
<path d="M30.2912 31.8751C30.6455 29.4735 30.0156 27.7412 29.7793 26.5207C29.5038 24.9853 28.2439 23.7648 26.6691 23.4892C21.5116 22.5837 20.9604 19.1585 20.9604 19.1585L24.8581 17.7412L30.488 19.1585L32.4171 22.7018L33.2045 27.1507L31.6691 31.5207L30.2912 31.8751Z" fill="#2B3B4E"/>
<path d="M19.6203 29.1582C19.6203 29.1582 20.8801 22.9771 24.5415 20.1031C28.2029 17.1897 22.7699 18.2527 22.7699 18.2527L19.9746 19.2763L17.6911 23.607L17.4155 28.8432L19.6203 29.1582Z" fill="#2B3B4E"/>
<path d="M35.9982 9.70989C35.9982 7.42643 34.1478 5.57603 31.8643 5.57603C30.6832 5.57603 29.5809 6.08784 28.8328 6.87525C28.3604 5.14296 26.7462 3.84375 24.8565 3.84375C23.1636 3.84375 21.7069 4.86737 21.0769 6.32406C20.4076 5.85162 19.5809 5.53666 18.6754 5.53666C16.3919 5.53666 14.5415 7.38706 14.5415 9.67052C14.5415 11.1272 15.2895 12.4264 16.4706 13.1745C16.9037 14.9461 17.3368 16.8359 17.8092 18.8831C17.7305 18.8831 17.6124 18.8831 17.5336 18.9225C17.2974 18.9619 17.1399 19.1587 17.1793 19.3949C17.258 20.0249 17.3368 20.6154 17.4155 21.2453C17.4549 21.4815 17.6517 21.639 17.888 21.5997C22.8486 21.0091 27.8486 21.0091 32.7699 21.5997C33.0061 21.639 33.2029 21.4815 33.2423 21.2453C33.321 20.6154 33.3998 20.0249 33.4785 19.3949C33.5179 19.1587 33.3604 18.9619 33.1242 18.9225C33.0454 18.9225 32.9273 18.9225 32.8486 18.8831C33.321 16.8359 33.7541 14.9067 34.1872 13.1745C35.2502 12.4658 35.9982 11.1666 35.9982 9.70989Z" fill="white"/>
<path d="M25.2892 41.0491C25.9198 41.0491 26.4309 40.5379 26.4309 39.9074C26.4309 39.2768 25.9198 38.7656 25.2892 38.7656C24.6586 38.7656 24.1475 39.2768 24.1475 39.9074C24.1475 40.5379 24.6586 41.0491 25.2892 41.0491Z" fill="white"/>
<path d="M29.0685 41.0491C29.6991 41.0491 30.2102 40.5379 30.2102 39.9074C30.2102 39.2768 29.6991 38.7656 29.0685 38.7656C28.4379 38.7656 27.9268 39.2768 27.9268 39.9074C27.9268 40.5379 28.4379 41.0491 29.0685 41.0491Z" fill="white"/>
<path d="M25.2892 44.3548C25.9198 44.3548 26.4309 43.8436 26.4309 43.213C26.4309 42.5825 25.9198 42.0713 25.2892 42.0713C24.6586 42.0713 24.1475 42.5825 24.1475 43.213C24.1475 43.8436 24.6586 44.3548 25.2892 44.3548Z" fill="white"/>
<path d="M29.0685 44.3548C29.6991 44.3548 30.2102 43.8436 30.2102 43.213C30.2102 42.5825 29.6991 42.0713 29.0685 42.0713C28.4379 42.0713 27.9268 42.5825 27.9268 43.213C27.9268 43.8436 28.4379 44.3548 29.0685 44.3548Z" fill="white"/>
<path d="M25.2892 47.6624C25.9198 47.6624 26.4309 47.1512 26.4309 46.5206C26.4309 45.8901 25.9198 45.3789 25.2892 45.3789C24.6586 45.3789 24.1475 45.8901 24.1475 46.5206C24.1475 47.1512 24.6586 47.6624 25.2892 47.6624Z" fill="white"/>
<path d="M29.0685 47.6624C29.6991 47.6624 30.2102 47.1512 30.2102 46.5206C30.2102 45.8901 29.6991 45.3789 29.0685 45.3789C28.4379 45.3789 27.9268 45.8901 27.9268 46.5206C27.9268 47.1512 28.4379 47.6624 29.0685 47.6624Z" fill="white"/>
</g>
<defs>
<clipPath id="clip0_1302_62412">
<rect width="50" height="50" fill="white" transform="translate(0.289062 0.693359)"/>
</clipPath>
</defs>
</svg>
