<svg width="51" height="51" viewBox="0 0 51 51" fill="none" xmlns="http://www.w3.org/2000/svg">
<path d="M1.85156 48.3496L8.57031 46.0059L3.49219 43.6621L1.85156 48.3496Z" fill="#F7B600"/>
<path d="M21.3047 29.1309L11.8516 19.5996L10.2891 23.9746L21.3047 29.1309Z" fill="#FFDD7D"/>
<path d="M10.2891 23.9746L8.57031 28.8965L29.5078 38.6621L30.5234 38.3496L21.3047 29.1309L10.2891 23.9746Z" fill="#F7B600"/>
<path d="M6.92969 33.8184L22.5547 41.084L29.5078 38.6621L8.57031 28.8965L6.92969 33.8184Z" fill="#FFDD7D"/>
<path d="M5.21094 38.7402L15.5234 43.584L22.5547 41.084L6.92969 33.8184L5.21094 38.7402Z" fill="#F7B600"/>
<path d="M5.21094 38.7402L3.49219 43.6621L8.57031 46.0059L15.5234 43.584L5.21094 38.7402Z" fill="#FFDD7D"/>
<path d="M25.2098 25.0675C30.4442 30.2238 33.1786 36.005 31.3036 37.88C29.3504 39.755 23.5692 37.0988 18.2567 31.8644C13.0223 26.7081 10.2879 20.9269 12.1629 19.0519C14.1161 17.1769 19.8973 19.9113 25.2098 25.0675Z" fill="#493816"/>
<path d="M18.6474 12.0214C17.3974 10.2245 18.7255 9.44325 20.4443 9.75575C18.8037 7.80262 19.8193 6.39637 22.3974 6.94325C23.1787 7.0995 22.0849 8.42762 21.3818 8.42762C23.4912 9.99012 22.3193 11.7089 20.0537 11.3182C22.0849 14.0526 18.6474 13.3495 17.0849 13.5057C16.6943 15.537 19.038 17.8807 18.2568 17.8807C16.538 17.8807 13.7255 11.3964 18.6474 12.0214Z" fill="#42ADE2"/>
<path d="M35.0553 15.7714C33.8835 16.3183 30.6022 11.162 34.6647 11.0839C32.321 8.97453 32.6335 7.9589 35.7585 7.88078C32.1647 4.28703 37.8678 3.03703 38.4147 4.91203C38.571 5.4589 36.696 4.44328 36.071 5.4589C35.3678 6.63078 40.446 9.67765 35.2116 9.44328C37.1647 11.3964 37.2428 12.3339 34.196 12.6464C34.5866 13.2714 35.8366 15.4589 35.0553 15.7714Z" fill="#FF8736"/>
<path d="M36.3828 27.959L37.5547 26.9434C37.5547 26.9434 38.6484 28.584 39.4297 29.209C40.0547 26.3965 39.8984 24.7559 43.1016 26.6309C41.3047 21.7871 44.2734 23.584 47.1641 24.9121C47.0078 23.6621 47.1641 23.8184 48.4141 23.4277C49.5078 27.5684 46.5391 26.3184 44.1953 24.9902C45.6016 28.7402 44.1172 28.5059 41.1484 27.2559C41.0703 28.8184 40.6016 30.6152 39.6641 30.7715C38.5703 31.084 36.3828 27.959 36.3828 27.959Z" fill="#ED4C5C"/>
<path d="M27.6328 16.3965C26.2266 18.2715 23.9609 19.2871 22.3203 20.9277C20.6016 22.6465 19.5859 27.334 19.5859 27.334C19.5859 27.334 20.2109 22.4121 21.8516 20.5371C23.3359 18.8184 25.5234 17.5684 26.6953 15.6152C28.7266 12.0215 26.8516 7.33398 24.1953 4.59961C24.7422 4.13086 25.5234 3.50586 25.9141 3.03711C28.4922 6.24023 30.6797 12.4121 27.6328 16.3965Z" fill="#C28FEF"/>
<path d="M30.0547 20.3804C28.0234 21.8648 26.5391 24.0523 25.1328 26.0836C23.8828 27.8804 19.8984 30.1461 19.8984 30.1461C19.8984 30.1461 23.6484 27.5679 24.8203 25.6929C26.2266 23.3492 27.6328 20.9273 29.8203 19.2086C34.1953 15.8492 40.5234 16.1617 45.4453 17.9586C45.1328 18.6617 44.5859 20.1461 44.5859 20.1461C44.5859 20.1461 34.1953 17.3336 30.0547 20.3804Z" fill="#FF8736"/>
<path d="M38.7256 19.9902C37.3975 21.709 36.7725 23.8184 35.7568 25.7715C34.8193 27.5684 33.5693 29.2871 31.7725 30.2246C29.7412 31.2402 25.2881 30.9277 25.2881 30.9277C25.2881 30.9277 29.7412 30.8496 31.6162 29.5996C33.4912 28.3496 34.5068 26.1621 35.21 24.1309C36.6162 20.2246 38.335 16.0059 42.3975 14.2871C42.6318 14.9902 43.1787 16.4746 43.1787 16.4746C43.1787 16.4746 40.9131 17.0996 38.7256 19.9902Z" fill="#42ADE2"/>
<path d="M2.79443 11.885L5.00381 9.6748L7.21396 11.8842L5.00459 14.0951L2.79443 11.885Z" fill="#42ADE2"/>
<path d="M5.89453 18.8158L8.10313 16.6064L10.3125 18.8158L8.10313 21.0252L5.89453 18.8158Z" fill="#FF8736"/>
<path d="M11.5063 8.3666L13.7157 6.15723L15.9251 8.3666L13.7157 10.576L11.5063 8.3666Z" fill="#ED4C5C"/>
<path d="M35.605 34.8303L37.8144 32.6201L40.0237 34.8303L37.8144 37.0396L35.605 34.8303Z" fill="#C28FEF"/>
<path d="M30.6831 42.4047L32.8925 40.1953L35.1026 42.4055L32.8925 44.6148L30.6831 42.4047Z" fill="#ED4C5C"/>
<path d="M40.3511 44.1359L42.5604 41.9258L44.7698 44.1359L42.5604 46.3453L40.3511 44.1359Z" fill="#FF8736"/>
<path d="M42.5342 34.0756L44.7436 31.8662L46.9529 34.0756L44.7436 36.2857L42.5342 34.0756Z" fill="#42ADE2"/>
<path d="M38.8462 10.7102L41.0556 8.5L43.2657 10.7102L41.0563 12.9195L38.8462 10.7102Z" fill="#42ADE2"/>
<path d="M15.1685 23.9691L17.3786 21.7598L19.588 23.9691L17.3786 26.1793L15.1685 23.9691Z" fill="#ED4C5C"/>
</svg>
