<svg width="41" height="40" viewBox="0 0 41 40" fill="none" xmlns="http://www.w3.org/2000/svg">
<path d="M22.0415 18.5771H12.0415" stroke="#FE725F" stroke-width="2.5" stroke-linecap="round" stroke-linejoin="round"/>
<path d="M3.7085 18.577V10.8771C3.7085 7.47705 6.4585 4.72705 9.8585 4.72705H19.2252C22.6252 4.72705 25.3752 6.84371 25.3752 10.2437" stroke="#FE725F" stroke-width="2.5" stroke-linecap="round" stroke-linejoin="round"/>
<path d="M29.5085 20.3275C28.6751 21.1275 28.2752 22.3608 28.6085 23.6274C29.0252 25.1774 30.5585 26.1608 32.1585 26.1608H33.7085V28.5775C33.7085 32.2608 30.7252 35.2441 27.0418 35.2441H10.3752C6.69183 35.2441 3.7085 32.2608 3.7085 28.5775V16.9108C3.7085 13.2275 6.69183 10.2441 10.3752 10.2441H27.0418C30.7085 10.2441 33.7085 13.2441 33.7085 16.9108V19.3274H31.9085C30.9751 19.3274 30.1251 19.6941 29.5085 20.3275Z" stroke="#FE725F" stroke-width="2.5" stroke-linecap="round" stroke-linejoin="round"/>
<path d="M37.0422 21.0277V24.461C37.0422 25.3943 36.2755 26.161 35.3255 26.161H32.1088C30.3088 26.161 28.6589 24.8444 28.5089 23.0444C28.4089 21.9944 28.8088 21.011 29.5088 20.3277C30.1255 19.6944 30.9755 19.3276 31.9088 19.3276H35.3255C36.2755 19.3276 37.0422 20.0943 37.0422 21.0277Z" stroke="#FE725F" stroke-width="2.5" stroke-linecap="round" stroke-linejoin="round"/>
</svg>
